<?xml version="1.0" encoding="UTF-8" standalone="no"?><svg xmlns="http://www.w3.org/2000/svg" xmlns:xlink="http://www.w3.org/1999/xlink" contentScriptType="application/ecmascript" contentStyleType="text/css" height="747px" preserveAspectRatio="none" style="width:633px;height:747px;" version="1.1" viewBox="0 0 633 747" width="633px" zoomAndPan="magnify"><defs><filter height="300%" id="f7cwe33" width="300%" x="-1" y="-1"><feGaussianBlur result="blurOut" stdDeviation="2.0"/><feColorMatrix in="blurOut" result="blurOut2" type="matrix" values="0 0 0 0 0 0 0 0 0 0 0 0 0 0 0 0 0 0 .4 0"/><feOffset dx="4.0" dy="4.0" in="blurOut2" result="blurOut3"/><feBlend in="SourceGraphic" in2="blurOut3" mode="normal"/></filter></defs><g><text fill="#000000" font-family="sans-serif" font-size="18" lengthAdjust="spacingAndGlyphs" textLength="133" x="255.5" y="16.708">Select a server</text><rect fill="#FEFECE" filter="url(#f7cwe33)" height="711.2969" rx="12.5" ry="12.5" style="stroke: #A80036; stroke-width: 1.5;" width="620" x="6" y="28.9531"/><rect fill="#FFFFFF" height="679" rx="12.5" ry="12.5" style="stroke: #FFFFFF; stroke-width: 1.0;" width="614" x="9" y="58.25"/><line style="stroke: #A80036; stroke-width: 1.5;" x1="6" x2="626" y1="55.25" y2="55.25"/><text fill="#000000" font-family="sans-serif" font-size="14" lengthAdjust="spacingAndGlyphs" textLength="125" x="253.5" y="46.9482">Server processing</text><ellipse cx="166" cy="78.25" fill="#000000" filter="url(#f7cwe33)" rx="10" ry="10" style="stroke: none; stroke-width: 1.0;"/><rect fill="#FEFECE" filter="url(#f7cwe33)" height="64.2344" rx="12.5" ry="12.5" style="stroke: #A80036; stroke-width: 1.5;" width="144" x="17" y="141.25"/><line style="stroke: #A80036; stroke-width: 1.5;" x1="17" x2="161" y1="167.5469" y2="167.5469"/><text fill="#000000" font-family="sans-serif" font-size="14" lengthAdjust="spacingAndGlyphs" textLength="34" x="72" y="159.2451">Build</text><text fill="#000000" font-family="sans-serif" font-size="12" lengthAdjust="spacingAndGlyphs" textLength="124" x="22" y="183.6855">init object and start</text><text fill="#000000" font-family="sans-serif" font-size="12" lengthAdjust="spacingAndGlyphs" textLength="107" x="22" y="197.6543">background proc</text><ellipse cx="142" cy="297.25" fill="none" filter="url(#f7cwe33)" rx="10" ry="10" style="stroke: #000000; stroke-width: 1.0;"/><ellipse cx="142.5" cy="297.75" fill="#000000" rx="6" ry="6" style="stroke: none; stroke-width: 1.0;"/><rect fill="#FEFECE" filter="url(#f7cwe33)" height="50.2656" rx="12.5" ry="12.5" style="stroke: #A80036; stroke-width: 1.5;" width="132" x="179" y="148.25"/><line style="stroke: #A80036; stroke-width: 1.5;" x1="179" x2="311" y1="174.5469" y2="174.5469"/><text fill="#000000" font-family="sans-serif" font-size="14" lengthAdjust="spacingAndGlyphs" textLength="43" x="223.5" y="166.2451">Select</text><text fill="#000000" font-family="sans-serif" font-size="12" lengthAdjust="spacingAndGlyphs" textLength="112" x="184" y="190.6855">find proper server</text><rect fill="#FEFECE" filter="url(#f7cwe33)" height="78.2031" rx="12.5" ry="12.5" style="stroke: #A80036; stroke-width: 1.5;" width="151" x="252.5" y="258.25"/><line style="stroke: #A80036; stroke-width: 1.5;" x1="252.5" x2="403.5" y1="284.5469" y2="284.5469"/><text fill="#000000" font-family="sans-serif" font-size="14" lengthAdjust="spacingAndGlyphs" textLength="36" x="310" y="276.2451">Await</text><text fill="#000000" font-family="sans-serif" font-size="12" lengthAdjust="spacingAndGlyphs" textLength="131" x="257.5" y="300.6855">wait for server select</text><text fill="#000000" font-family="sans-serif" font-size="12" lengthAdjust="spacingAndGlyphs" textLength="111" x="257.5" y="314.6543">to have at least a</text><text fill="#000000" font-family="sans-serif" font-size="12" lengthAdjust="spacingAndGlyphs" textLength="87" x="257.5" y="328.623">master server</text><rect fill="#FEFECE" filter="url(#f7cwe33)" height="64.2344" rx="12.5" ry="12.5" style="stroke: #A80036; stroke-width: 1.5;" width="152" x="329" y="141.25"/><line style="stroke: #A80036; stroke-width: 1.5;" x1="329" x2="481" y1="167.5469" y2="167.5469"/><text fill="#000000" font-family="sans-serif" font-size="14" lengthAdjust="spacingAndGlyphs" textLength="55" x="377.5" y="159.2451">Receive</text><text fill="#000000" font-family="sans-serif" font-size="12" lengthAdjust="spacingAndGlyphs" textLength="88" x="334" y="183.6855">receive server</text><text fill="#000000" font-family="sans-serif" font-size="12" lengthAdjust="spacingAndGlyphs" textLength="132" x="334" y="197.6543">objects from channel</text><path d="M159.958,86.548 C150.993,97.376 133.574,118.414 118.239,136.935 " fill="none" style="stroke: #A80036; stroke-width: 1.0;"/><polygon fill="#A80036" points="114.8005,141.088,123.6212,136.7068,117.9893,137.2368,117.4593,131.6048,114.8005,141.088" style="stroke: #A80036; stroke-width: 1.0;"/><text fill="#000000" font-family="sans-serif" font-size="13" lengthAdjust="spacingAndGlyphs" textLength="18" x="145" y="119.3169">Uri</text><path d="M84.9226,205.39 C84.6019,216.722 85.6452,229.403 90,240.25 C98.1712,260.6036 117.473,278.0222 130.123,287.809 " fill="none" style="stroke: #A80036; stroke-width: 1.0;"/><polygon fill="#A80036" points="134.132,290.8286,129.35,282.2186,130.1383,287.8202,124.5366,288.6085,134.132,290.8286" style="stroke: #A80036; stroke-width: 1.0;"/><text fill="#000000" font-family="sans-serif" font-size="13" lengthAdjust="spacingAndGlyphs" textLength="81" x="91" y="236.3169">Client Object</text><path d="M172.199,86.548 C182.634,98.832 204.23,124.255 221.205,144.238 " fill="none" style="stroke: #A80036; stroke-width: 1.0;"/><polygon fill="#A80036" points="224.534,148.157,221.7549,138.7084,221.2965,144.3466,215.6583,143.8883,224.534,148.157" style="stroke: #A80036; stroke-width: 1.0;"/><path d="M263.244,198.463 C269.026,206.299 275.374,215.076 281,223.25 C287.73,233.028 294.767,243.6979 301.285,253.786 " fill="none" style="stroke: #A80036; stroke-width: 1.0;"/><polygon fill="#A80036" points="304.045,258.0695,302.5333,248.3374,301.3371,253.8663,295.8081,252.6701,304.045,258.0695" style="stroke: #A80036; stroke-width: 1.0;"/><path d="M317.903,258.1164 C313.759,246.332 308.205,233.711 301,223.25 C295.683,215.53 288.881,208.249 281.863,201.78 " fill="none" style="stroke: #A80036; stroke-width: 1.0;"/><polygon fill="#A80036" points="277.95,198.271,281.9798,207.2577,281.6724,201.6092,287.3209,201.3018,277.95,198.271" style="stroke: #A80036; stroke-width: 1.0;"/><text fill="#000000" font-family="sans-serif" font-size="13" lengthAdjust="spacingAndGlyphs" textLength="40" x="312" y="236.3169">server</text><path d="M216.621,198.323 C208.307,205.935 199.455,214.621 192,223.25 C174.889,243.054 158.408,268.8314 149.296,283.8596 " fill="none" style="stroke: #A80036; stroke-width: 1.0;"/><polygon fill="#A80036" points="146.713,288.1599,154.7768,282.5052,149.288,283.8739,147.9192,278.3852,146.713,288.1599" style="stroke: #A80036; stroke-width: 1.0;"/><text fill="#000000" font-family="sans-serif" font-size="13" lengthAdjust="spacingAndGlyphs" textLength="83" x="193" y="236.3169">server object</text><path d="M392.329,205.315 C387.218,216.638 380.896,229.333 374,240.25 C371.119,244.8107 367.913,249.4145 364.571,253.9191 " fill="none" style="stroke: #A80036; stroke-width: 1.0;"/><polygon fill="#A80036" points="361.47,258.024,370.0875,253.2555,364.4846,254.035,363.7051,248.4321,361.47,258.024" style="stroke: #A80036; stroke-width: 1.0;"/><line style="stroke: #A80036; stroke-width: 1.5; stroke-dasharray: 8.0,10.0;" x1="11" x2="619" y1="346.25" y2="346.25"/><ellipse cx="324" cy="364.25" fill="#000000" filter="url(#f7cwe33)" rx="10" ry="10" style="stroke: none; stroke-width: 1.0;"/><rect fill="#FEFECE" filter="url(#f7cwe33)" height="64.2344" rx="12.5" ry="12.5" style="stroke: #A80036; stroke-width: 1.5;" width="104" x="272" y="427.25"/><line style="stroke: #A80036; stroke-width: 1.5;" x1="272" x2="376" y1="453.5469" y2="453.5469"/><text fill="#000000" font-family="sans-serif" font-size="14" lengthAdjust="spacingAndGlyphs" textLength="60" x="294" y="445.2451">Discover</text><text fill="#000000" font-family="sans-serif" font-size="12" lengthAdjust="spacingAndGlyphs" textLength="81" x="277" y="469.6855">loop through</text><text fill="#000000" font-family="sans-serif" font-size="12" lengthAdjust="spacingAndGlyphs" textLength="84" x="277" y="483.6543">list of servers</text><rect fill="#FEFECE" filter="url(#f7cwe33)" height="64.2344" rx="12.5" ry="12.5" style="stroke: #A80036; stroke-width: 1.5;" width="107" x="270.5" y="544.25"/><line style="stroke: #A80036; stroke-width: 1.5;" x1="270.5" x2="377.5" y1="570.5469" y2="570.5469"/><text fill="#000000" font-family="sans-serif" font-size="14" lengthAdjust="spacingAndGlyphs" textLength="74" x="287" y="562.2451">Catagorize</text><text fill="#000000" font-family="sans-serif" font-size="12" lengthAdjust="spacingAndGlyphs" textLength="87" x="275.5" y="586.6855">catagorize list</text><text fill="#000000" font-family="sans-serif" font-size="12" lengthAdjust="spacingAndGlyphs" textLength="62" x="275.5" y="600.6543">of servers</text><rect fill="#FEFECE" filter="url(#f7cwe33)" height="64.2344" rx="12.5" ry="12.5" style="stroke: #A80036; stroke-width: 1.5;" width="167" x="249.5" y="661.25"/><line style="stroke: #A80036; stroke-width: 1.5;" x1="249.5" x2="416.5" y1="687.5469" y2="687.5469"/><text fill="#000000" font-family="sans-serif" font-size="14" lengthAdjust="spacingAndGlyphs" textLength="36" x="315" y="679.2451">Send</text><text fill="#000000" font-family="sans-serif" font-size="12" lengthAdjust="spacingAndGlyphs" textLength="109" x="254.5" y="703.6855">send each server</text><text fill="#000000" font-family="sans-serif" font-size="12" lengthAdjust="spacingAndGlyphs" textLength="147" x="254.5" y="717.6543">object through channel</text><rect fill="#FEFECE" filter="url(#f7cwe33)" height="64.2344" rx="12.5" ry="12.5" style="stroke: #A80036; stroke-width: 1.5;" width="149" x="443.5" y="661.25"/><line style="stroke: #A80036; stroke-width: 1.5;" x1="443.5" x2="592.5" y1="687.5469" y2="687.5469"/><text fill="#000000" font-family="sans-serif" font-size="14" lengthAdjust="spacingAndGlyphs" textLength="64" x="486" y="679.2451">Topology</text><text fill="#000000" font-family="sans-serif" font-size="12" lengthAdjust="spacingAndGlyphs" textLength="129" x="448.5" y="703.6855">set server types and</text><text fill="#000000" font-family="sans-serif" font-size="12" lengthAdjust="spacingAndGlyphs" textLength="93" x="448.5" y="717.6543">Client topology</text><rect fill="#FEFECE" filter="url(#f7cwe33)" height="50.2656" rx="12.5" ry="12.5" style="stroke: #A80036; stroke-width: 1.5;" width="214" x="17" y="668.25"/><line style="stroke: #A80036; stroke-width: 1.5;" x1="17" x2="231" y1="694.5469" y2="694.5469"/><text fill="#000000" font-family="sans-serif" font-size="14" lengthAdjust="spacingAndGlyphs" textLength="76" x="86" y="686.2451">Interrogate</text><text fill="#000000" font-family="sans-serif" font-size="12" lengthAdjust="spacingAndGlyphs" textLength="194" x="22" y="710.6855">ask server for secondary hosts</text><path d="M324,374.507 C324,385.499 324,404.504 324,421.633 " fill="none" style="stroke: #A80036; stroke-width: 1.0;"/><polygon fill="#A80036" points="324,426.878,328,417.878,324,421.878,320,417.878,324,426.878" style="stroke: #A80036; stroke-width: 1.0;"/><text fill="#000000" font-family="sans-serif" font-size="13" lengthAdjust="spacingAndGlyphs" textLength="94" x="325" y="405.3169">server from uri</text><path d="M324,491.371 C324,506.072 324,523.712 324,539.013 " fill="none" style="stroke: #A80036; stroke-width: 1.0;"/><polygon fill="#A80036" points="324,544.104,328,535.104,324,539.104,320,535.104,324,544.104" style="stroke: #A80036; stroke-width: 1.0;"/><text fill="#000000" font-family="sans-serif" font-size="13" lengthAdjust="spacingAndGlyphs" textLength="85" x="325" y="522.3169">list of servers</text><path d="M323.536,608.522 C323.621,619.519 323.997,631.9493 325,643.25 C325.372,647.4463 325.894,651.8264 326.495,656.1671 " fill="none" style="stroke: #A80036; stroke-width: 1.0;"/><polygon fill="#A80036" points="327.232,661.2312,329.8938,651.7489,326.5118,656.2833,321.9773,652.9013,327.232,661.2312" style="stroke: #A80036; stroke-width: 1.0;"/><text fill="#000000" font-family="sans-serif" font-size="13" lengthAdjust="spacingAndGlyphs" textLength="85" x="326" y="639.3169">list of servers</text><path d="M377.697,605.708 C389.179,612.192 401.122,619.242 412,626.25 C422.686,633.1339 424.402,636.2318 435,643.25 C442.652,648.3169 450.834,653.4618 458.969,658.4186 " fill="none" style="stroke: #A80036; stroke-width: 1.0;"/><polygon fill="#A80036" points="463.48,661.1513,457.8559,653.0661,459.2039,658.56,453.7099,659.908,463.48,661.1513" style="stroke: #A80036; stroke-width: 1.0;"/><text fill="#000000" font-family="sans-serif" font-size="13" lengthAdjust="spacingAndGlyphs" textLength="85" x="436" y="639.3169">list of servers</text><path d="M270.46,603.46 C256.5,610.598 241.569,618.504 228,626.25 C206.591,638.4717 183.373,653.07 164.318,665.426 " fill="none" style="stroke: #A80036; stroke-width: 1.0;"/><polygon fill="#A80036" points="160.069,668.189,169.7947,666.6362,164.2608,665.4634,165.4336,659.9294,160.069,668.189" style="stroke: #A80036; stroke-width: 1.0;"/><text fill="#000000" font-family="sans-serif" font-size="13" lengthAdjust="spacingAndGlyphs" textLength="90" x="229" y="639.3169">master server</text><path d="M126.341,668.1277 C130.534,636.4855 141.918,580.714 172,544.25 C196.779,514.213 235.242,493.104 267.275,479.56 " fill="none" style="stroke: #A80036; stroke-width: 1.0;"/><polygon fill="#A80036" points="271.952,477.616,262.1061,477.3757,267.3348,479.5346,265.1759,484.7633,271.952,477.616" style="stroke: #A80036; stroke-width: 1.0;"/><text fill="#000000" font-family="sans-serif" font-size="13" lengthAdjust="spacingAndGlyphs" textLength="87" x="173" y="580.8169">found servers</text><path d="M525.202,661.1832 C526.464,649.8597 526.238,637.1649 522,626.25 C496.86,561.508 429.705,514.359 380.552,487.203 " fill="none" style="stroke: #A80036; stroke-width: 1.0;"/><polygon fill="#A80036" points="376.153,484.799,382.1329,492.6246,380.5407,487.1965,385.9689,485.6043,376.153,484.799" style="stroke: #A80036; stroke-width: 1.0;"/></g></svg>