<?xml version="1.0" encoding="UTF-8" standalone="no"?><svg xmlns="http://www.w3.org/2000/svg" xmlns:xlink="http://www.w3.org/1999/xlink" contentScriptType="application/ecmascript" contentStyleType="text/css" height="460px" preserveAspectRatio="none" style="width:363px;height:460px;" version="1.1" viewBox="0 0 363 460" width="363px" zoomAndPan="magnify"><defs><filter height="300%" id="ff5li3p" width="300%" x="-1" y="-1"><feGaussianBlur result="blurOut" stdDeviation="2.0"/><feColorMatrix in="blurOut" result="blurOut2" type="matrix" values="0 0 0 0 0 0 0 0 0 0 0 0 0 0 0 0 0 0 .4 0"/><feOffset dx="4.0" dy="4.0" in="blurOut2" result="blurOut3"/><feBlend in="SourceGraphic" in2="blurOut3" mode="normal"/></filter></defs><g><text fill="#000000" font-family="sans-serif" font-size="18" lengthAdjust="spacingAndGlyphs" textLength="190" x="99.5" y="16.708">Classes in this project</text><!--cluster MongoDB--><polygon fill="#FFFFFF" filter="url(#ff5li3p)" points="22,44.9531,102,44.9531,109,67.25,355,67.25,355,359.9531,22,359.9531,22,44.9531" style="stroke: #000000; stroke-width: 2.0;"/><line style="stroke: #000000; stroke-width: 2.0;" x1="22" x2="109" y1="67.25" y2="67.25"/><text fill="#000000" font-family="sans-serif" font-size="14" font-weight="bold" lengthAdjust="spacingAndGlyphs" textLength="74" x="26" y="59.9482">MongoDB</text><!--class MC--><rect fill="#FEFECE" filter="url(#ff5li3p)" height="48" style="stroke: #A80036; stroke-width: 1.5;" width="67" x="264.5" y="79.9531"/><ellipse cx="279.5" cy="95.9531" fill="#ADD1B2" rx="11" ry="11" style="stroke: #A80036; stroke-width: 1.0;"/><path d="M282.4688,101.5938 Q281.8906,101.8906 281.25,102.0391 Q280.6094,102.1875 279.9063,102.1875 Q277.4063,102.1875 276.0859,100.5391 Q274.7656,98.8906 274.7656,95.7656 Q274.7656,92.6406 276.0859,90.9844 Q277.4063,89.3281 279.9063,89.3281 Q280.6094,89.3281 281.2578,89.4844 Q281.9063,89.6406 282.4688,89.9375 L282.4688,92.6563 Q281.8438,92.0781 281.25,91.8047 Q280.6563,91.5313 280.0313,91.5313 Q278.6875,91.5313 278,92.6016 Q277.3125,93.6719 277.3125,95.7656 Q277.3125,97.8594 278,98.9297 Q278.6875,100 280.0313,100 Q280.6563,100 281.25,99.7266 Q281.8438,99.4531 282.4688,98.875 L282.4688,101.5938 Z "/><text fill="#000000" font-family="sans-serif" font-size="12" lengthAdjust="spacingAndGlyphs" textLength="35" x="293.5" y="100.1074">Client</text><line style="stroke: #A80036; stroke-width: 1.5;" x1="265.5" x2="330.5" y1="111.9531" y2="111.9531"/><line style="stroke: #A80036; stroke-width: 1.5;" x1="265.5" x2="330.5" y1="119.9531" y2="119.9531"/><!--class MD--><rect fill="#FEFECE" filter="url(#ff5li3p)" height="48" style="stroke: #A80036; stroke-width: 1.5;" width="93" x="245.5" y="187.9531"/><ellipse cx="260.5" cy="203.9531" fill="#ADD1B2" rx="11" ry="11" style="stroke: #A80036; stroke-width: 1.0;"/><path d="M263.4688,209.5938 Q262.8906,209.8906 262.25,210.0391 Q261.6094,210.1875 260.9063,210.1875 Q258.4063,210.1875 257.0859,208.5391 Q255.7656,206.8906 255.7656,203.7656 Q255.7656,200.6406 257.0859,198.9844 Q258.4063,197.3281 260.9063,197.3281 Q261.6094,197.3281 262.2578,197.4844 Q262.9063,197.6406 263.4688,197.9375 L263.4688,200.6563 Q262.8438,200.0781 262.25,199.8047 Q261.6563,199.5313 261.0313,199.5313 Q259.6875,199.5313 259,200.6016 Q258.3125,201.6719 258.3125,203.7656 Q258.3125,205.8594 259,206.9297 Q259.6875,208 261.0313,208 Q261.6563,208 262.25,207.7266 Q262.8438,207.4531 263.4688,206.875 L263.4688,209.5938 Z "/><text fill="#000000" font-family="sans-serif" font-size="12" lengthAdjust="spacingAndGlyphs" textLength="61" x="274.5" y="208.1074">Database</text><line style="stroke: #A80036; stroke-width: 1.5;" x1="246.5" x2="337.5" y1="219.9531" y2="219.9531"/><line style="stroke: #A80036; stroke-width: 1.5;" x1="246.5" x2="337.5" y1="227.9531" y2="227.9531"/><!--class ML--><rect fill="#FEFECE" filter="url(#ff5li3p)" height="48" style="stroke: #A80036; stroke-width: 1.5;" width="93" x="161.5" y="295.9531"/><ellipse cx="176.5" cy="311.9531" fill="#ADD1B2" rx="11" ry="11" style="stroke: #A80036; stroke-width: 1.0;"/><path d="M179.4688,317.5938 Q178.8906,317.8906 178.25,318.0391 Q177.6094,318.1875 176.9063,318.1875 Q174.4063,318.1875 173.0859,316.5391 Q171.7656,314.8906 171.7656,311.7656 Q171.7656,308.6406 173.0859,306.9844 Q174.4063,305.3281 176.9063,305.3281 Q177.6094,305.3281 178.2578,305.4844 Q178.9063,305.6406 179.4688,305.9375 L179.4688,308.6563 Q178.8438,308.0781 178.25,307.8047 Q177.6563,307.5313 177.0313,307.5313 Q175.6875,307.5313 175,308.6016 Q174.3125,309.6719 174.3125,311.7656 Q174.3125,313.8594 175,314.9297 Q175.6875,316 177.0313,316 Q177.6563,316 178.25,315.7266 Q178.8438,315.4531 179.4688,314.875 L179.4688,317.5938 Z "/><text fill="#000000" font-family="sans-serif" font-size="12" lengthAdjust="spacingAndGlyphs" textLength="61" x="190.5" y="316.1074">Collection</text><line style="stroke: #A80036; stroke-width: 1.5;" x1="162.5" x2="253.5" y1="327.9531" y2="327.9531"/><line style="stroke: #A80036; stroke-width: 1.5;" x1="162.5" x2="253.5" y1="335.9531" y2="335.9531"/><!--class MR--><rect fill="#FEFECE" filter="url(#ff5li3p)" height="48" style="stroke: #A80036; stroke-width: 1.5;" width="73" x="53.5" y="295.9531"/><ellipse cx="68.5" cy="311.9531" fill="#ADD1B2" rx="11" ry="11" style="stroke: #A80036; stroke-width: 1.0;"/><path d="M71.4688,317.5938 Q70.8906,317.8906 70.25,318.0391 Q69.6094,318.1875 68.9063,318.1875 Q66.4063,318.1875 65.0859,316.5391 Q63.7656,314.8906 63.7656,311.7656 Q63.7656,308.6406 65.0859,306.9844 Q66.4063,305.3281 68.9063,305.3281 Q69.6094,305.3281 70.2578,305.4844 Q70.9063,305.6406 71.4688,305.9375 L71.4688,308.6563 Q70.8438,308.0781 70.25,307.8047 Q69.6563,307.5313 69.0313,307.5313 Q67.6875,307.5313 67,308.6016 Q66.3125,309.6719 66.3125,311.7656 Q66.3125,313.8594 67,314.9297 Q67.6875,316 69.0313,316 Q69.6563,316 70.25,315.7266 Q70.8438,315.4531 71.4688,314.875 L71.4688,317.5938 Z "/><text fill="#000000" font-family="sans-serif" font-size="12" lengthAdjust="spacingAndGlyphs" textLength="41" x="82.5" y="316.1074">Cursor</text><line style="stroke: #A80036; stroke-width: 1.5;" x1="54.5" x2="125.5" y1="327.9531" y2="327.9531"/><line style="stroke: #A80036; stroke-width: 1.5;" x1="54.5" x2="125.5" y1="335.9531" y2="335.9531"/><!--class MW--><rect fill="#FEFECE" filter="url(#ff5li3p)" height="48" style="stroke: #A80036; stroke-width: 1.5;" width="59" x="151.5" y="187.9531"/><ellipse cx="166.5" cy="203.9531" fill="#ADD1B2" rx="11" ry="11" style="stroke: #A80036; stroke-width: 1.0;"/><path d="M169.4688,209.5938 Q168.8906,209.8906 168.25,210.0391 Q167.6094,210.1875 166.9063,210.1875 Q164.4063,210.1875 163.0859,208.5391 Q161.7656,206.8906 161.7656,203.7656 Q161.7656,200.6406 163.0859,198.9844 Q164.4063,197.3281 166.9063,197.3281 Q167.6094,197.3281 168.2578,197.4844 Q168.9063,197.6406 169.4688,197.9375 L169.4688,200.6563 Q168.8438,200.0781 168.25,199.8047 Q167.6563,199.5313 167.0313,199.5313 Q165.6875,199.5313 165,200.6016 Q164.3125,201.6719 164.3125,203.7656 Q164.3125,205.8594 165,206.9297 Q165.6875,208 167.0313,208 Q167.6563,208 168.25,207.7266 Q168.8438,207.4531 169.4688,206.875 L169.4688,209.5938 Z "/><text fill="#000000" font-family="sans-serif" font-size="12" lengthAdjust="spacingAndGlyphs" textLength="27" x="180.5" y="208.1074">Wire</text><line style="stroke: #A80036; stroke-width: 1.5;" x1="152.5" x2="209.5" y1="219.9531" y2="219.9531"/><line style="stroke: #A80036; stroke-width: 1.5;" x1="152.5" x2="209.5" y1="227.9531" y2="227.9531"/><!--class MH--><rect fill="#FEFECE" filter="url(#ff5li3p)" height="48" style="stroke: #A80036; stroke-width: 1.5;" width="78" x="38" y="187.9531"/><ellipse cx="53" cy="203.9531" fill="#ADD1B2" rx="11" ry="11" style="stroke: #A80036; stroke-width: 1.0;"/><path d="M55.9688,209.5938 Q55.3906,209.8906 54.75,210.0391 Q54.1094,210.1875 53.4063,210.1875 Q50.9063,210.1875 49.5859,208.5391 Q48.2656,206.8906 48.2656,203.7656 Q48.2656,200.6406 49.5859,198.9844 Q50.9063,197.3281 53.4063,197.3281 Q54.1094,197.3281 54.7578,197.4844 Q55.4063,197.6406 55.9688,197.9375 L55.9688,200.6563 Q55.3438,200.0781 54.75,199.8047 Q54.1563,199.5313 53.5313,199.5313 Q52.1875,199.5313 51.5,200.6016 Q50.8125,201.6719 50.8125,203.7656 Q50.8125,205.8594 51.5,206.9297 Q52.1875,208 53.5313,208 Q54.1563,208 54.75,207.7266 Q55.3438,207.4531 55.9688,206.875 L55.9688,209.5938 Z "/><text fill="#000000" font-family="sans-serif" font-size="12" lengthAdjust="spacingAndGlyphs" textLength="46" x="67" y="208.1074">Header</text><line style="stroke: #A80036; stroke-width: 1.5;" x1="39" x2="115" y1="219.9531" y2="219.9531"/><line style="stroke: #A80036; stroke-width: 1.5;" x1="39" x2="115" y1="227.9531" y2="227.9531"/><!--class App--><rect fill="#FEFECE" filter="url(#ff5li3p)" height="48" style="stroke: #A80036; stroke-width: 1.5;" width="101" x="207.5" y="403.9531"/><ellipse cx="222.5" cy="419.9531" fill="#ADD1B2" rx="11" ry="11" style="stroke: #A80036; stroke-width: 1.0;"/><path d="M225.4688,425.5938 Q224.8906,425.8906 224.25,426.0391 Q223.6094,426.1875 222.9063,426.1875 Q220.4063,426.1875 219.0859,424.5391 Q217.7656,422.8906 217.7656,419.7656 Q217.7656,416.6406 219.0859,414.9844 Q220.4063,413.3281 222.9063,413.3281 Q223.6094,413.3281 224.2578,413.4844 Q224.9063,413.6406 225.4688,413.9375 L225.4688,416.6563 Q224.8438,416.0781 224.25,415.8047 Q223.6563,415.5313 223.0313,415.5313 Q221.6875,415.5313 221,416.6016 Q220.3125,417.6719 220.3125,419.7656 Q220.3125,421.8594 221,422.9297 Q221.6875,424 223.0313,424 Q223.6563,424 224.25,423.7266 Q224.8438,423.4531 225.4688,422.875 L225.4688,425.5938 Z "/><text fill="#000000" font-family="sans-serif" font-size="12" lengthAdjust="spacingAndGlyphs" textLength="69" x="236.5" y="424.1074">Application</text><line style="stroke: #A80036; stroke-width: 1.5;" x1="208.5" x2="307.5" y1="435.9531" y2="435.9531"/><line style="stroke: #A80036; stroke-width: 1.5;" x1="208.5" x2="307.5" y1="443.9531" y2="443.9531"/><path d="M328.4,138.4271 C339.338,152.6391 350.364,170.0481 356,187.9531 C362.405,208.3021 359.979,214.9941 356,235.9531 C344.238,297.9011 335.262,313.1941 304,367.9531 C299.042,376.6384 292.904,385.4367 286.746,393.4942 " fill="none" style="stroke: #A80036; stroke-width: 1.0;"/><polygon fill="#A80036" points="278.444,403.9424,285.3083,401.7332,285.9092,394.5472,279.0448,396.7564,278.444,403.9424" style="stroke: #A80036; stroke-width: 1.0;"/><polygon fill="#A80036" points="320.143,128.2281,322.697,137.7401,323.2891,132.1143,328.9149,132.7064,320.143,128.2281" style="stroke: #A80036; stroke-width: 1.0;"/><line style="stroke: #A80036; stroke-width: 1.0;" x1="323.2891" x2="328.3235" y1="132.1143" y2="138.3321"/><text fill="#000000" font-family="sans-serif" font-size="13" lengthAdjust="spacingAndGlyphs" textLength="23" x="299.7372" y="148.0564">0..*</text><path d="M288.374,249.5171 C284.989,281.0321 279.356,327.6781 272,367.9531 C270.624,375.4896 268.898,383.5091 267.134,391.128 " fill="none" style="stroke: #A80036; stroke-width: 1.0;"/><polygon fill="#A80036" points="264.083,403.8131,269.3751,398.9148,266.8889,392.1458,261.5969,397.0441,264.083,403.8131" style="stroke: #A80036; stroke-width: 1.0;"/><polygon fill="#A80036" points="289.769,236.1791,284.8542,244.714,289.2487,241.152,292.8107,245.5465,289.769,236.1791" style="stroke: #A80036; stroke-width: 1.0;"/><line style="stroke: #A80036; stroke-width: 1.0;" x1="289.2487" x2="288.4165" y1="241.152" y2="249.1086"/><text fill="#000000" font-family="sans-serif" font-size="13" lengthAdjust="spacingAndGlyphs" textLength="23" x="263.4221" y="255.9954">0..*</text><path d="M224.479,355.8884 C229.909,367.4005 235.949,380.2042 241.389,391.7371 " fill="none" style="stroke: #A80036; stroke-width: 1.0;"/><polygon fill="#A80036" points="246.999,403.6315,248.0569,396.4984,241.8794,392.7784,240.8215,399.9115,246.999,403.6315" style="stroke: #A80036; stroke-width: 1.0;"/><polygon fill="#A80036" points="218.849,343.9531,219.0706,353.7995,220.982,348.4753,226.3061,350.3867,218.849,343.9531" style="stroke: #A80036; stroke-width: 1.0;"/><line style="stroke: #A80036; stroke-width: 1.0;" x1="220.982" x2="224.3955" y1="348.4753" y2="355.7112"/><text fill="#000000" font-family="sans-serif" font-size="13" lengthAdjust="spacingAndGlyphs" textLength="23" x="195.6822" y="364.1089">0..*</text><path d="M124.253,352.8918 C130.61,358.1954 137.349,363.433 144,367.9531 C160.099,378.8937 178.483,389.2369 195.719,398.1166 " fill="none" style="stroke: #A80036; stroke-width: 1.0;"/><polygon fill="#A80036" points="207.426,404.0197,203.8694,397.7467,196.711,398.617,200.2676,404.89,207.426,404.0197" style="stroke: #A80036; stroke-width: 1.0;"/><polygon fill="#A80036" points="113.998,344.0191,118.1869,352.9328,117.7792,347.2906,123.4213,346.8829,113.998,344.0191" style="stroke: #A80036; stroke-width: 1.0;"/><line style="stroke: #A80036; stroke-width: 1.0;" x1="117.7792" x2="123.829" y1="347.2906" y2="352.5249"/><text fill="#000000" font-family="sans-serif" font-size="13" lengthAdjust="spacingAndGlyphs" textLength="23" x="94.2006" y="364.1918">0..*</text><path d="M295.943,141.2911 C295.339,151.9591 294.679,163.6301 294.074,174.3171 " fill="none" style="stroke: #A80036; stroke-width: 1.0;"/><polygon fill="#FFFFFF" points="293.32,187.6311,297.6525,181.8666,293.9978,175.6503,289.6653,181.4148,293.32,187.6311" style="stroke: #A80036; stroke-width: 1.0;"/><polygon fill="#A80036" points="296.698,127.9531,292.195,136.7123,296.415,132.9451,300.1822,137.1651,296.698,127.9531" style="stroke: #A80036; stroke-width: 1.0;"/><line style="stroke: #A80036; stroke-width: 1.0;" x1="296.415" x2="295.9635" y1="132.9451" y2="140.9326"/><path d="M265.417,246.4981 C255.617,258.8651 244.517,272.8721 234.706,285.2531 " fill="none" style="stroke: #A80036; stroke-width: 1.0;"/><polygon fill="#FFFFFF" points="226.481,295.6311,233.3425,293.4131,233.9342,286.2263,227.0726,288.4443,226.481,295.6311" style="stroke: #A80036; stroke-width: 1.0;"/><polygon fill="#A80036" points="273.773,235.9531,265.0482,240.5223,270.6675,239.8718,271.3181,245.4911,273.773,235.9531" style="stroke: #A80036; stroke-width: 1.0;"/><line style="stroke: #A80036; stroke-width: 1.0;" x1="270.6675" x2="265.699" y1="239.8718" y2="246.1421"/><path d="M190.137,248.8221 C192.935,259.8111 196.015,271.9001 198.817,282.9001 " fill="none" style="stroke: #A80036; stroke-width: 1.0;"/><polygon fill="#A80036" points="202.06,295.6311,204.4555,288.8295,199.0984,284.0023,196.7029,290.8039,202.06,295.6311" style="stroke: #A80036; stroke-width: 1.0;"/><polygon fill="#A80036" points="186.859,235.9531,185.2039,245.6619,188.093,240.7985,192.9565,243.6875,186.859,235.9531" style="stroke: #A80036; stroke-width: 1.0;"/><line style="stroke: #A80036; stroke-width: 1.0;" x1="188.093" x2="190.0675" y1="240.7985" y2="248.5511"/><path d="M152.597,246.0371 C141.806,258.6071 129.514,272.9261 118.696,285.5271 " fill="none" style="stroke: #A80036; stroke-width: 1.0;"/><polygon fill="#A80036" points="110.021,295.6311,116.9641,293.6836,117.8369,286.5255,110.8938,288.473,110.021,295.6311" style="stroke: #A80036; stroke-width: 1.0;"/><polygon fill="#A80036" points="161.254,235.9531,152.3565,240.1763,157.9971,239.7468,158.4265,245.3874,161.254,235.9531" style="stroke: #A80036; stroke-width: 1.0;"/><line style="stroke: #A80036; stroke-width: 1.0;" x1="157.9971" x2="152.7865" y1="239.7468" y2="245.8171"/><path d="M81.4566,249.2911 C82.7796,260.0791 84.2284,271.8931 85.551,282.6771 " fill="none" style="stroke: #A80036; stroke-width: 1.0;"/><polygon fill="#A80036" points="87.1398,295.6311,90.3795,289.1887,85.6787,283.7204,82.439,290.1628,87.1398,295.6311" style="stroke: #A80036; stroke-width: 1.0;"/><polygon fill="#A80036" points="79.8208,235.9531,76.9464,245.3732,80.4296,240.9159,84.8869,244.3991,79.8208,235.9531" style="stroke: #A80036; stroke-width: 1.0;"/><line style="stroke: #A80036; stroke-width: 1.0;" x1="80.4296" x2="81.4034" y1="240.9159" y2="248.8571"/></g></svg>