<?xml version="1.0" encoding="UTF-8" standalone="no"?><svg xmlns="http://www.w3.org/2000/svg" xmlns:xlink="http://www.w3.org/1999/xlink" contentScriptType="application/ecmascript" contentStyleType="text/css" height="458px" preserveAspectRatio="none" style="width:481px;height:458px;" version="1.1" viewBox="0 0 481 458" width="481px" zoomAndPan="magnify"><defs><filter height="300%" id="f4zc34g" width="300%" x="-1" y="-1"><feGaussianBlur result="blurOut" stdDeviation="2.0"/><feColorMatrix in="blurOut" result="blurOut2" type="matrix" values="0 0 0 0 0 0 0 0 0 0 0 0 0 0 0 0 0 0 .4 0"/><feOffset dx="4.0" dy="4.0" in="blurOut2" result="blurOut3"/><feBlend in="SourceGraphic" in2="blurOut3" mode="normal"/></filter></defs><g><text fill="#000000" font-family="sans-serif" font-size="18" lengthAdjust="spacingAndGlyphs" textLength="190" x="150.5" y="16.708">Classes in this project</text><!--cluster MongoDB--><polygon fill="#FFFFFF" filter="url(#f4zc34g)" points="22,44.9531,102,44.9531,109,67.25,378,67.25,378,451.9531,22,451.9531,22,44.9531" style="stroke: #000000; stroke-width: 2.0;"/><line style="stroke: #000000; stroke-width: 2.0;" x1="22" x2="109" y1="67.25" y2="67.25"/><text fill="#000000" font-family="sans-serif" font-size="14" font-weight="bold" lengthAdjust="spacingAndGlyphs" textLength="74" x="26" y="59.9482">MongoDB</text><!--class MongoDB::ClientIF--><rect fill="#FEFECE" filter="url(#f4zc34g)" height="48" style="stroke: #A80036; stroke-width: 1.5;" width="78" x="128" y="287.9531"/><ellipse cx="143" cy="303.9531" fill="#B4A7E5" rx="11" ry="11" style="stroke: #A80036; stroke-width: 1.0;"/><path d="M138.9219,299.7188 L138.9219,297.5625 L146.3125,297.5625 L146.3125,299.7188 L143.8438,299.7188 L143.8438,307.7969 L146.3125,307.7969 L146.3125,309.9531 L138.9219,309.9531 L138.9219,307.7969 L141.3906,307.7969 L141.3906,299.7188 L138.9219,299.7188 Z "/><text fill="#000000" font-family="sans-serif" font-size="12" font-style="italic" lengthAdjust="spacingAndGlyphs" textLength="46" x="157" y="308.1074">ClientIF</text><line style="stroke: #A80036; stroke-width: 1.5;" x1="129" x2="205" y1="319.9531" y2="319.9531"/><line style="stroke: #A80036; stroke-width: 1.5;" x1="129" x2="205" y1="327.9531" y2="327.9531"/><!--class MongoDB::DatabaseIF--><rect fill="#FEFECE" filter="url(#f4zc34g)" height="48" style="stroke: #A80036; stroke-width: 1.5;" width="103" x="119.5" y="79.9531"/><ellipse cx="134.5" cy="95.9531" fill="#B4A7E5" rx="11" ry="11" style="stroke: #A80036; stroke-width: 1.0;"/><path d="M130.4219,91.7188 L130.4219,89.5625 L137.8125,89.5625 L137.8125,91.7188 L135.3438,91.7188 L135.3438,99.7969 L137.8125,99.7969 L137.8125,101.9531 L130.4219,101.9531 L130.4219,99.7969 L132.8906,99.7969 L132.8906,91.7188 L130.4219,91.7188 Z "/><text fill="#000000" font-family="sans-serif" font-size="12" font-style="italic" lengthAdjust="spacingAndGlyphs" textLength="71" x="148.5" y="100.1074">DatabaseIF</text><line style="stroke: #A80036; stroke-width: 1.5;" x1="120.5" x2="221.5" y1="111.9531" y2="111.9531"/><line style="stroke: #A80036; stroke-width: 1.5;" x1="120.5" x2="221.5" y1="119.9531" y2="119.9531"/><!--class MongoDB::CollectionIF--><rect fill="#FEFECE" filter="url(#f4zc34g)" height="48" style="stroke: #A80036; stroke-width: 1.5;" width="104" x="258" y="79.9531"/><ellipse cx="273" cy="95.9531" fill="#B4A7E5" rx="11" ry="11" style="stroke: #A80036; stroke-width: 1.0;"/><path d="M268.9219,91.7188 L268.9219,89.5625 L276.3125,89.5625 L276.3125,91.7188 L273.8438,91.7188 L273.8438,99.7969 L276.3125,99.7969 L276.3125,101.9531 L268.9219,101.9531 L268.9219,99.7969 L271.3906,99.7969 L271.3906,91.7188 L268.9219,91.7188 Z "/><text fill="#000000" font-family="sans-serif" font-size="12" font-style="italic" lengthAdjust="spacingAndGlyphs" textLength="72" x="287" y="100.1074">CollectionIF</text><line style="stroke: #A80036; stroke-width: 1.5;" x1="259" x2="361" y1="111.9531" y2="111.9531"/><line style="stroke: #A80036; stroke-width: 1.5;" x1="259" x2="361" y1="119.9531" y2="119.9531"/><!--class MongoDB::Client--><rect fill="#FEFECE" filter="url(#f4zc34g)" height="39.9688" style="stroke: #A80036; stroke-width: 1.5;" width="41" x="146.5" y="395.9531"/><text fill="#000000" font-family="sans-serif" font-size="12" lengthAdjust="spacingAndGlyphs" textLength="35" x="149.5" y="412.0918">Client</text><line style="stroke: #A80036; stroke-width: 1.5;" x1="147.5" x2="186.5" y1="419.9219" y2="419.9219"/><line style="stroke: #A80036; stroke-width: 1.5;" x1="147.5" x2="186.5" y1="427.9219" y2="427.9219"/><!--class MongoDB::Server--><rect fill="#FEFECE" filter="url(#f4zc34g)" height="39.9688" style="stroke: #A80036; stroke-width: 1.5;" width="46" x="38" y="83.9531"/><text fill="#000000" font-family="sans-serif" font-size="12" lengthAdjust="spacingAndGlyphs" textLength="40" x="41" y="100.0918">Server</text><line style="stroke: #A80036; stroke-width: 1.5;" x1="39" x2="83" y1="107.9219" y2="107.9219"/><line style="stroke: #A80036; stroke-width: 1.5;" x1="39" x2="83" y1="115.9219" y2="115.9219"/><!--class MongoDB::Database--><rect fill="#FEFECE" filter="url(#f4zc34g)" height="39.9688" style="stroke: #A80036; stroke-width: 1.5;" width="67" x="160.5" y="187.9531"/><text fill="#000000" font-family="sans-serif" font-size="12" lengthAdjust="spacingAndGlyphs" textLength="61" x="163.5" y="204.0918">Database</text><line style="stroke: #A80036; stroke-width: 1.5;" x1="161.5" x2="226.5" y1="211.9219" y2="211.9219"/><line style="stroke: #A80036; stroke-width: 1.5;" x1="161.5" x2="226.5" y1="219.9219" y2="219.9219"/><!--class MongoDB::Collection--><rect fill="#FEFECE" filter="url(#f4zc34g)" height="39.9688" style="stroke: #A80036; stroke-width: 1.5;" width="67" x="262.5" y="187.9531"/><text fill="#000000" font-family="sans-serif" font-size="12" lengthAdjust="spacingAndGlyphs" textLength="61" x="265.5" y="204.0918">Collection</text><line style="stroke: #A80036; stroke-width: 1.5;" x1="263.5" x2="328.5" y1="211.9219" y2="211.9219"/><line style="stroke: #A80036; stroke-width: 1.5;" x1="263.5" x2="328.5" y1="219.9219" y2="219.9219"/><!--class MongoDB::Wire--><rect fill="#FEFECE" filter="url(#f4zc34g)" height="39.9688" style="stroke: #A80036; stroke-width: 1.5;" width="33" x="241.5" y="291.9531"/><text fill="#000000" font-family="sans-serif" font-size="12" lengthAdjust="spacingAndGlyphs" textLength="27" x="244.5" y="308.0918">Wire</text><line style="stroke: #A80036; stroke-width: 1.5;" x1="242.5" x2="273.5" y1="315.9219" y2="315.9219"/><line style="stroke: #A80036; stroke-width: 1.5;" x1="242.5" x2="273.5" y1="323.9219" y2="323.9219"/><!--class MongoDB::Header--><rect fill="#FEFECE" filter="url(#f4zc34g)" height="39.9688" style="stroke: #A80036; stroke-width: 1.5;" width="52" x="310" y="291.9531"/><text fill="#000000" font-family="sans-serif" font-size="12" lengthAdjust="spacingAndGlyphs" textLength="46" x="313" y="308.0918">Header</text><line style="stroke: #A80036; stroke-width: 1.5;" x1="311" x2="361" y1="315.9219" y2="315.9219"/><line style="stroke: #A80036; stroke-width: 1.5;" x1="311" x2="361" y1="323.9219" y2="323.9219"/><!--class MongoDB::Socket--><rect fill="#FEFECE" filter="url(#f4zc34g)" height="39.9688" style="stroke: #A80036; stroke-width: 1.5;" width="49" x="38.5" y="187.9531"/><text fill="#000000" font-family="sans-serif" font-size="12" lengthAdjust="spacingAndGlyphs" textLength="43" x="41.5" y="204.0918">Socket</text><line style="stroke: #A80036; stroke-width: 1.5;" x1="39.5" x2="86.5" y1="211.9219" y2="211.9219"/><line style="stroke: #A80036; stroke-width: 1.5;" x1="39.5" x2="86.5" y1="219.9219" y2="219.9219"/><!--class MongoDB::Uri--><rect fill="#FEFECE" filter="url(#f4zc34g)" height="39.9688" style="stroke: #A80036; stroke-width: 1.5;" width="23" x="222.5" y="395.9531"/><text fill="#000000" font-family="sans-serif" font-size="12" lengthAdjust="spacingAndGlyphs" textLength="17" x="225.5" y="412.0918">Uri</text><line style="stroke: #A80036; stroke-width: 1.5;" x1="223.5" x2="244.5" y1="419.9219" y2="419.9219"/><line style="stroke: #A80036; stroke-width: 1.5;" x1="223.5" x2="244.5" y1="427.9219" y2="427.9219"/><!--class application--><rect fill="#FEFECE" filter="url(#f4zc34g)" height="23.9688" style="stroke: #A80036; stroke-width: 1.5;" width="75" x="397.5" y="299.9531"/><text fill="#000000" font-family="sans-serif" font-size="12" lengthAdjust="spacingAndGlyphs" textLength="69" x="400.5" y="316.0918">application</text><path d="M396.276,328.8791 C390.18,331.2991 383.933,333.7291 378,335.9531 C301.797,364.5211 279.997,364.3561 205,395.9531 C203.216,396.7048 201.398,397.5022 199.572,398.3279 " fill="none" style="stroke: #A80036; stroke-width: 1.0;"/><polygon fill="#A80036" points="187.679,404.0053,197.5242,403.7372,192.1911,401.851,194.0773,396.5179,187.679,404.0053" style="stroke: #A80036; stroke-width: 1.0;"/><line style="stroke: #A80036; stroke-width: 1.0;" x1="192.1911" x2="199.4105" y1="401.851" y2="398.405"/><polygon fill="#A80036" points="408.429,323.9931,401.37,322.5197,397.2949,328.4689,404.3539,329.9424,408.429,323.9931" style="stroke: #A80036; stroke-width: 1.0;"/><text fill="#000000" font-family="sans-serif" font-size="13" lengthAdjust="spacingAndGlyphs" textLength="23" x="191.5603" y="392.8142">0..*</text><path d="M167,356.4251 C167,370.1207 167,384.5565 167,395.6646 " fill="none" style="stroke: #A80036; stroke-width: 1.0;"/><polygon fill="none" points="160,356.0981,167,336.0981,174,356.0981,160,356.0981" style="stroke: #A80036; stroke-width: 1.0;"/><path d="M139.585,385.8209 C128.212,371.8438 116.234,354.1891 110,335.9531 C88.7106,273.6761 121.959,251.5461 105,187.9531 C100.0592,169.4261 90.3762,150.4101 81.3489,135.2621 " fill="none" style="stroke: #A80036; stroke-width: 1.0;"/><polygon fill="#A80036" points="74.3528,124.0261,75.7143,133.7804,76.9956,128.2706,82.5055,129.5519,74.3528,124.0261" style="stroke: #A80036; stroke-width: 1.0;"/><line style="stroke: #A80036; stroke-width: 1.0;" x1="76.9956" x2="81.2242" y1="128.2706" y2="135.0621"/><polygon fill="#A80036" points="148.06,395.7413,147.2047,388.5811,140.2663,386.6167,141.1216,393.7769,148.06,395.7413" style="stroke: #A80036; stroke-width: 1.0;"/><text fill="#000000" font-family="sans-serif" font-size="13" lengthAdjust="spacingAndGlyphs" textLength="23" x="51.8739" y="143.871">0..*</text><path d="M180.692,147.9371 C183.813,161.7761 187.116,176.4241 189.651,187.6651 " fill="none" style="stroke: #A80036; stroke-width: 1.0;"/><polygon fill="none" points="173.79,149.1481,176.219,128.0981,187.447,146.0691,173.79,149.1481" style="stroke: #A80036; stroke-width: 1.0;"/><path d="M188.922,228.1381 C184.851,243.5141 179.081,265.3141 174.482,282.6871 " fill="none" style="stroke: #A80036; stroke-width: 1.0;"/><polygon fill="#A80036" points="173.096,287.9251,179.2642,280.247,174.3744,283.0913,171.5302,278.2015,173.096,287.9251" style="stroke: #A80036; stroke-width: 1.0;"/><path d="M272.362,187.6651 C252.834,171.7301 224.914,148.9471 203.32,131.3261 " fill="none" style="stroke: #A80036; stroke-width: 1.0;"/><polygon fill="#A80036" points="199.364,128.0981,203.8066,136.8881,203.2373,131.26,208.8655,130.6907,199.364,128.0981" style="stroke: #A80036; stroke-width: 1.0;"/><path d="M304.1,147.9371 C302.201,161.7761 300.19,176.4241 298.647,187.6651 " fill="none" style="stroke: #A80036; stroke-width: 1.0;"/><polygon fill="none" points="297.169,146.9611,306.823,128.0981,311.038,148.8651,297.169,146.9611" style="stroke: #A80036; stroke-width: 1.0;"/><path d="M84.2031,103.9531 C94.2122,103.9531 104.2212,103.9531 114.23,103.9531 " fill="none" style="stroke: #A80036; stroke-width: 1.0;"/><polygon fill="#A80036" points="119.464,103.9531,110.464,99.9531,114.464,103.9531,110.464,107.9531,119.464,103.9531" style="stroke: #A80036; stroke-width: 1.0;"/><path d="M241.112,207.9531 C243.892,207.9531 246.673,207.9531 249.453,207.9531 " fill="none" style="stroke: #A80036; stroke-width: 1.0;"/><polygon fill="#A80036" points="262.466,207.9531,253.466,203.9531,257.466,207.9531,253.466,211.9531,262.466,207.9531" style="stroke: #A80036; stroke-width: 1.0;"/><line style="stroke: #A80036; stroke-width: 1.0;" x1="257.466" x2="249.466" y1="207.9531" y2="207.9531"/><polygon fill="#A80036" points="227.867,207.9531,233.867,211.9531,239.867,207.9531,233.867,203.9531,227.867,207.9531" style="stroke: #A80036; stroke-width: 1.0;"/><path d="M288.852,228.1381 C282.643,244.8071 273.62,269.0261 266.935,286.9701 " fill="none" style="stroke: #A80036; stroke-width: 1.0;"/><polygon fill="#A80036" points="265.115,291.8541,272.0054,284.8169,266.8606,287.1687,264.5088,282.0239,265.115,291.8541" style="stroke: #A80036; stroke-width: 1.0;"/><path d="M274.758,311.9531 C284.672,311.9531 294.586,311.9531 304.5,311.9531 " fill="none" style="stroke: #A80036; stroke-width: 1.0;"/><polygon fill="#A80036" points="309.685,311.9531,300.685,307.9531,304.685,311.9531,300.685,315.9531,309.685,311.9531" style="stroke: #A80036; stroke-width: 1.0;"/><path d="M61.6326,137.2131 C61.8673,149.1871 62.1335,162.7611 62.3682,174.7311 " fill="none" style="stroke: #A80036; stroke-width: 1.0;"/><polygon fill="#A80036" points="62.6255,187.8541,66.4487,178.7776,62.5277,182.8551,58.4502,178.9341,62.6255,187.8541" style="stroke: #A80036; stroke-width: 1.0;"/><line style="stroke: #A80036; stroke-width: 1.0;" x1="62.5277" x2="62.3705" y1="182.8551" y2="174.8561"/><polygon fill="#A80036" points="61.3762,124.1381,57.4943,130.2152,61.6109,136.1358,65.4928,130.0587,61.3762,124.1381" style="stroke: #A80036; stroke-width: 1.0;"/><text fill="#000000" font-family="sans-serif" font-size="13" lengthAdjust="spacingAndGlyphs" textLength="23" x="36.1374" y="176.8379">0..*</text><path d="M200.704,415.9531 C203.532,415.9531 206.359,415.9531 209.187,415.9531 " fill="none" style="stroke: #A80036; stroke-width: 1.0;"/><polygon fill="#A80036" points="222.419,415.9531,213.419,411.9531,217.419,415.9531,213.419,419.9531,222.419,415.9531" style="stroke: #A80036; stroke-width: 1.0;"/><line style="stroke: #A80036; stroke-width: 1.0;" x1="217.419" x2="209.419" y1="415.9531" y2="415.953"/><polygon fill="#A80036" points="187.676,415.9531,193.676,419.9531,199.676,415.9531,193.676,411.9531,187.676,415.9531" style="stroke: #A80036; stroke-width: 1.0;"/><text fill="#000000" font-family="sans-serif" font-size="13" lengthAdjust="spacingAndGlyphs" textLength="8" x="206.4337" y="409.2183">1</text></g></svg>