<?xml version="1.0" encoding="UTF-8" standalone="no"?><svg xmlns="http://www.w3.org/2000/svg" xmlns:xlink="http://www.w3.org/1999/xlink" contentScriptType="application/ecmascript" contentStyleType="text/css" height="366px" preserveAspectRatio="none" style="width:344px;height:366px;" version="1.1" viewBox="0 0 344 366" width="344px" zoomAndPan="magnify"><defs><filter height="300%" id="f607fgb" width="300%" x="-1" y="-1"><feGaussianBlur result="blurOut" stdDeviation="2.0"/><feColorMatrix in="blurOut" result="blurOut2" type="matrix" values="0 0 0 0 0 0 0 0 0 0 0 0 0 0 0 0 0 0 .4 0"/><feOffset dx="4.0" dy="4.0" in="blurOut2" result="blurOut3"/><feBlend in="SourceGraphic" in2="blurOut3" mode="normal"/></filter></defs><g><text fill="#000000" font-family="sans-serif" font-size="18" lengthAdjust="spacingAndGlyphs" textLength="283" x="35" y="16.708">Client, Server and Monitor class</text><!--cluster MongoDB--><polygon fill="#FFFFFF" filter="url(#f607fgb)" points="123.5,44.9531,203.5,44.9531,210.5,67.25,235.5,67.25,235.5,359.9531,123.5,359.9531,123.5,44.9531" style="stroke: #000000; stroke-width: 2.0;"/><line style="stroke: #000000; stroke-width: 2.0;" x1="123.5" x2="210.5" y1="67.25" y2="67.25"/><text fill="#000000" font-family="sans-serif" font-size="14" font-weight="bold" lengthAdjust="spacingAndGlyphs" textLength="74" x="127.5" y="59.9482">MongoDB</text><!--class MC--><rect fill="#FEFECE" filter="url(#f607fgb)" height="48" style="stroke: #A80036; stroke-width: 1.5;" width="67" x="146" y="295.9531"/><ellipse cx="161" cy="311.9531" fill="#ADD1B2" rx="11" ry="11" style="stroke: #A80036; stroke-width: 1.0;"/><path d="M163.9688,317.5938 Q163.3906,317.8906 162.75,318.0391 Q162.1094,318.1875 161.4063,318.1875 Q158.9063,318.1875 157.5859,316.5391 Q156.2656,314.8906 156.2656,311.7656 Q156.2656,308.6406 157.5859,306.9844 Q158.9063,305.3281 161.4063,305.3281 Q162.1094,305.3281 162.7578,305.4844 Q163.4063,305.6406 163.9688,305.9375 L163.9688,308.6563 Q163.3438,308.0781 162.75,307.8047 Q162.1563,307.5313 161.5313,307.5313 Q160.1875,307.5313 159.5,308.6016 Q158.8125,309.6719 158.8125,311.7656 Q158.8125,313.8594 159.5,314.9297 Q160.1875,316 161.5313,316 Q162.1563,316 162.75,315.7266 Q163.3438,315.4531 163.9688,314.875 L163.9688,317.5938 Z "/><text fill="#000000" font-family="sans-serif" font-size="12" lengthAdjust="spacingAndGlyphs" textLength="35" x="175" y="316.1074">Client</text><line style="stroke: #A80036; stroke-width: 1.5;" x1="147" x2="212" y1="327.9531" y2="327.9531"/><line style="stroke: #A80036; stroke-width: 1.5;" x1="147" x2="212" y1="335.9531" y2="335.9531"/><!--class MS--><rect fill="#FEFECE" filter="url(#f607fgb)" height="48" style="stroke: #A80036; stroke-width: 1.5;" width="72" x="143.5" y="187.9531"/><ellipse cx="158.5" cy="203.9531" fill="#ADD1B2" rx="11" ry="11" style="stroke: #A80036; stroke-width: 1.0;"/><path d="M161.4688,209.5938 Q160.8906,209.8906 160.25,210.0391 Q159.6094,210.1875 158.9063,210.1875 Q156.4063,210.1875 155.0859,208.5391 Q153.7656,206.8906 153.7656,203.7656 Q153.7656,200.6406 155.0859,198.9844 Q156.4063,197.3281 158.9063,197.3281 Q159.6094,197.3281 160.2578,197.4844 Q160.9063,197.6406 161.4688,197.9375 L161.4688,200.6563 Q160.8438,200.0781 160.25,199.8047 Q159.6563,199.5313 159.0313,199.5313 Q157.6875,199.5313 157,200.6016 Q156.3125,201.6719 156.3125,203.7656 Q156.3125,205.8594 157,206.9297 Q157.6875,208 159.0313,208 Q159.6563,208 160.25,207.7266 Q160.8438,207.4531 161.4688,206.875 L161.4688,209.5938 Z "/><text fill="#000000" font-family="sans-serif" font-size="12" lengthAdjust="spacingAndGlyphs" textLength="40" x="172.5" y="208.1074">Server</text><line style="stroke: #A80036; stroke-width: 1.5;" x1="144.5" x2="214.5" y1="219.9531" y2="219.9531"/><line style="stroke: #A80036; stroke-width: 1.5;" x1="144.5" x2="214.5" y1="227.9531" y2="227.9531"/><!--class MM--><rect fill="#FEFECE" filter="url(#f607fgb)" height="48" style="stroke: #A80036; stroke-width: 1.5;" width="79" x="140" y="79.9531"/><ellipse cx="155" cy="95.9531" fill="#ADD1B2" rx="11" ry="11" style="stroke: #A80036; stroke-width: 1.0;"/><path d="M157.9688,101.5938 Q157.3906,101.8906 156.75,102.0391 Q156.1094,102.1875 155.4063,102.1875 Q152.9063,102.1875 151.5859,100.5391 Q150.2656,98.8906 150.2656,95.7656 Q150.2656,92.6406 151.5859,90.9844 Q152.9063,89.3281 155.4063,89.3281 Q156.1094,89.3281 156.7578,89.4844 Q157.4063,89.6406 157.9688,89.9375 L157.9688,92.6563 Q157.3438,92.0781 156.75,91.8047 Q156.1563,91.5313 155.5313,91.5313 Q154.1875,91.5313 153.5,92.6016 Q152.8125,93.6719 152.8125,95.7656 Q152.8125,97.8594 153.5,98.9297 Q154.1875,100 155.5313,100 Q156.1563,100 156.75,99.7266 Q157.3438,99.4531 157.9688,98.875 L157.9688,101.5938 Z "/><text fill="#000000" font-family="sans-serif" font-size="12" lengthAdjust="spacingAndGlyphs" textLength="47" x="169" y="100.1074">Monitor</text><line style="stroke: #A80036; stroke-width: 1.5;" x1="141" x2="218" y1="111.9531" y2="111.9531"/><line style="stroke: #A80036; stroke-width: 1.5;" x1="141" x2="218" y1="119.9531" y2="119.9531"/><!--class Application--><rect fill="#FEFECE" filter="url(#f607fgb)" height="48" style="stroke: #A80036; stroke-width: 1.5;" width="101" x="6" y="187.9531"/><ellipse cx="21" cy="203.9531" fill="#ADD1B2" rx="11" ry="11" style="stroke: #A80036; stroke-width: 1.0;"/><path d="M23.9688,209.5938 Q23.3906,209.8906 22.75,210.0391 Q22.1094,210.1875 21.4063,210.1875 Q18.9063,210.1875 17.5859,208.5391 Q16.2656,206.8906 16.2656,203.7656 Q16.2656,200.6406 17.5859,198.9844 Q18.9063,197.3281 21.4063,197.3281 Q22.1094,197.3281 22.7578,197.4844 Q23.4063,197.6406 23.9688,197.9375 L23.9688,200.6563 Q23.3438,200.0781 22.75,199.8047 Q22.1563,199.5313 21.5313,199.5313 Q20.1875,199.5313 19.5,200.6016 Q18.8125,201.6719 18.8125,203.7656 Q18.8125,205.8594 19.5,206.9297 Q20.1875,208 21.5313,208 Q22.1563,208 22.75,207.7266 Q23.3438,207.4531 23.9688,206.875 L23.9688,209.5938 Z "/><text fill="#000000" font-family="sans-serif" font-size="12" lengthAdjust="spacingAndGlyphs" textLength="69" x="35" y="208.1074">Application</text><line style="stroke: #A80036; stroke-width: 1.5;" x1="7" x2="106" y1="219.9531" y2="219.9531"/><line style="stroke: #A80036; stroke-width: 1.5;" x1="7" x2="106" y1="227.9531" y2="227.9531"/><!--class Supplier--><rect fill="#FEFECE" filter="url(#f607fgb)" height="48" style="stroke: #A80036; stroke-width: 1.5;" width="83" x="252" y="187.9531"/><ellipse cx="267" cy="203.9531" fill="#ADD1B2" rx="11" ry="11" style="stroke: #A80036; stroke-width: 1.0;"/><path d="M269.9688,209.5938 Q269.3906,209.8906 268.75,210.0391 Q268.1094,210.1875 267.4063,210.1875 Q264.9063,210.1875 263.5859,208.5391 Q262.2656,206.8906 262.2656,203.7656 Q262.2656,200.6406 263.5859,198.9844 Q264.9063,197.3281 267.4063,197.3281 Q268.1094,197.3281 268.7578,197.4844 Q269.4063,197.6406 269.9688,197.9375 L269.9688,200.6563 Q269.3438,200.0781 268.75,199.8047 Q268.1563,199.5313 267.5313,199.5313 Q266.1875,199.5313 265.5,200.6016 Q264.8125,201.6719 264.8125,203.7656 Q264.8125,205.8594 265.5,206.9297 Q266.1875,208 267.5313,208 Q268.1563,208 268.75,207.7266 Q269.3438,207.4531 269.9688,206.875 L269.9688,209.5938 Z "/><text fill="#000000" font-family="sans-serif" font-size="12" lengthAdjust="spacingAndGlyphs" textLength="51" x="281" y="208.1074">Supplier</text><line style="stroke: #A80036; stroke-width: 1.5;" x1="253" x2="334" y1="219.9531" y2="219.9531"/><line style="stroke: #A80036; stroke-width: 1.5;" x1="253" x2="334" y1="227.9531" y2="227.9531"/><!--class Tap--><rect fill="#FEFECE" filter="url(#f607fgb)" height="48" style="stroke: #A80036; stroke-width: 1.5;" width="55" x="252" y="295.9531"/><ellipse cx="267" cy="311.9531" fill="#ADD1B2" rx="11" ry="11" style="stroke: #A80036; stroke-width: 1.0;"/><path d="M269.9688,317.5938 Q269.3906,317.8906 268.75,318.0391 Q268.1094,318.1875 267.4063,318.1875 Q264.9063,318.1875 263.5859,316.5391 Q262.2656,314.8906 262.2656,311.7656 Q262.2656,308.6406 263.5859,306.9844 Q264.9063,305.3281 267.4063,305.3281 Q268.1094,305.3281 268.7578,305.4844 Q269.4063,305.6406 269.9688,305.9375 L269.9688,308.6563 Q269.3438,308.0781 268.75,307.8047 Q268.1563,307.5313 267.5313,307.5313 Q266.1875,307.5313 265.5,308.6016 Q264.8125,309.6719 264.8125,311.7656 Q264.8125,313.8594 265.5,314.9297 Q266.1875,316 267.5313,316 Q268.1563,316 268.75,315.7266 Q269.3438,315.4531 269.9688,314.875 L269.9688,317.5938 Z "/><text fill="#000000" font-family="sans-serif" font-size="12" lengthAdjust="spacingAndGlyphs" textLength="23" x="281" y="316.1074">Tap</text><line style="stroke: #A80036; stroke-width: 1.5;" x1="253" x2="306" y1="327.9531" y2="327.9531"/><line style="stroke: #A80036; stroke-width: 1.5;" x1="253" x2="306" y1="335.9531" y2="335.9531"/><path d="M179.5,141.2911 C179.5,151.9591 179.5,163.6301 179.5,174.3171 " fill="none" style="stroke: #A80036; stroke-width: 1.0;"/><polygon fill="#A80036" points="179.5,187.6311,183.5,181.6311,179.5,175.6311,175.5,181.6311,179.5,187.6311" style="stroke: #A80036; stroke-width: 1.0;"/><polygon fill="#A80036" points="179.5,127.9531,175.5,136.9531,179.5,132.9531,183.5,136.9531,179.5,127.9531" style="stroke: #A80036; stroke-width: 1.0;"/><line style="stroke: #A80036; stroke-width: 1.0;" x1="179.5" x2="179.5" y1="132.9531" y2="140.9531"/><path d="M179.5,249.2911 C179.5,259.9591 179.5,271.6301 179.5,282.3169 " fill="none" style="stroke: #A80036; stroke-width: 1.0;"/><polygon fill="#A80036" points="179.5,295.6315,183.5,289.6315,179.5,283.6315,175.5,289.6315,179.5,295.6315" style="stroke: #A80036; stroke-width: 1.0;"/><polygon fill="#A80036" points="179.5,235.9531,175.5,244.9531,179.5,240.9531,183.5,244.9531,179.5,235.9531" style="stroke: #A80036; stroke-width: 1.0;"/><line style="stroke: #A80036; stroke-width: 1.0;" x1="179.5" x2="179.5" y1="240.9531" y2="248.9531"/><text fill="#000000" font-family="sans-serif" font-size="13" lengthAdjust="spacingAndGlyphs" textLength="23" x="153.5531" y="256.1089">0..*</text><path d="M93.2985,244.6661 C108.736,257.9701 126.665,273.4201 142.16,286.7738 " fill="none" style="stroke: #A80036; stroke-width: 1.0;"/><polygon fill="#A80036" points="152.438,295.6315,148.2319,286.726,148.6505,292.3673,143.0092,292.786,152.438,295.6315" style="stroke: #A80036; stroke-width: 1.0;"/><line style="stroke: #A80036; stroke-width: 1.0;" x1="148.6505" x2="142.5905" y1="292.3673" y2="287.1449"/><polygon fill="#A80036" points="83.1892,235.9531,85.1233,242.9,92.2798,243.7865,90.3456,236.8396,83.1892,235.9531" style="stroke: #A80036; stroke-width: 1.0;"/><text fill="#000000" font-family="sans-serif" font-size="13" lengthAdjust="spacingAndGlyphs" textLength="23" x="120.0385" y="284.9581">0..*</text><path d="M214.096,137.1211 C228.186,150.2231 244.449,165.3441 258.573,178.4771 " fill="none" style="stroke: #A80036; stroke-width: 1.0;"/><polygon fill="#A80036" points="268.418,187.6311,264.5505,178.5734,264.7562,184.2265,259.1031,184.4322,268.418,187.6311" style="stroke: #A80036; stroke-width: 1.0;"/><line style="stroke: #A80036; stroke-width: 1.0;" x1="264.7562" x2="258.898" y1="184.2265" y2="178.7791"/><polygon fill="#A80036" points="204.236,127.9531,205.9059,134.9682,213.0236,136.1249,211.3537,129.1098,204.236,127.9531" style="stroke: #A80036; stroke-width: 1.0;"/><path d="M210.279,245.5791 C222.328,258.3511 236.134,272.9851 248.23,285.8072 " fill="none" style="stroke: #A80036; stroke-width: 1.0;"/><polygon fill="#A80036" points="257.499,295.6315,254.2324,286.3402,254.0678,291.9946,248.4134,291.8301,257.499,295.6315" style="stroke: #A80036; stroke-width: 1.0;"/><line style="stroke: #A80036; stroke-width: 1.0;" x1="254.0678" x2="248.5775" y1="291.9946" y2="286.1754"/><polygon fill="#A80036" points="201.199,235.9531,202.4071,243.0623,209.4341,244.6814,208.226,237.5722,201.199,235.9531" style="stroke: #A80036; stroke-width: 1.0;"/><path d="M238.666,319.9531 C234.57,319.9531 230.475,319.9531 226.38,319.9531 " fill="none" style="stroke: #A80036; stroke-width: 1.0;"/><polygon fill="#A80036" points="213.094,319.9531,219.094,323.9531,225.094,319.9531,219.094,315.9531,213.094,319.9531" style="stroke: #A80036; stroke-width: 1.0;"/><polygon fill="#A80036" points="251.744,319.9531,242.744,315.9531,246.744,319.9531,242.744,323.9531,251.744,319.9531" style="stroke: #A80036; stroke-width: 1.0;"/><line style="stroke: #A80036; stroke-width: 1.0;" x1="246.744" x2="238.744" y1="319.9531" y2="319.953"/></g></svg>