<?xml version="1.0" encoding="UTF-8" standalone="no"?><svg xmlns="http://www.w3.org/2000/svg" xmlns:xlink="http://www.w3.org/1999/xlink" contentScriptType="application/ecmascript" contentStyleType="text/css" height="649px" preserveAspectRatio="none" style="width:1364px;height:649px;" version="1.1" viewBox="0 0 1364 649" width="1364px" zoomAndPan="magnify"><defs><filter height="300%" id="fa9j25w" width="300%" x="-1" y="-1"><feGaussianBlur result="blurOut" stdDeviation="2.0"/><feColorMatrix in="blurOut" result="blurOut2" type="matrix" values="0 0 0 0 0 0 0 0 0 0 0 0 0 0 0 0 0 0 .4 0"/><feOffset dx="4.0" dy="4.0" in="blurOut2" result="blurOut3"/><feBlend in="SourceGraphic" in2="blurOut3" mode="normal"/></filter></defs><g><text fill="#000000" font-family="sans-serif" font-size="18" lengthAdjust="spacingAndGlyphs" textLength="131" x="621" y="16.708">performing I/O</text><!--cluster Server--><rect fill="#FEFECE" filter="url(#fa9j25w)" height="131" rx="12.5" ry="12.5" style="stroke: #A80036; stroke-width: 1.5;" width="340" x="30" y="230.9531"/><rect fill="#FFFFFF" height="98.7031" rx="12.5" ry="12.5" style="stroke: #FFFFFF; stroke-width: 1.0;" width="334" x="33" y="260.25"/><line style="stroke: #A80036; stroke-width: 1.5;" x1="30" x2="370" y1="257.25" y2="257.25"/><text fill="#000000" font-family="sans-serif" font-size="14" lengthAdjust="spacingAndGlyphs" textLength="44" x="178" y="247.9482">Server</text><!--cluster runcommand--><rect fill="#FEFECE" filter="url(#fa9j25w)" height="267" rx="12.5" ry="12.5" style="stroke: #A80036; stroke-width: 1.5;" width="549" x="402" y="245.9531"/><rect fill="#FFFFFF" height="234.7031" rx="12.5" ry="12.5" style="stroke: #FFFFFF; stroke-width: 1.0;" width="543" x="405" y="275.25"/><line style="stroke: #A80036; stroke-width: 1.5;" x1="402" x2="951" y1="272.25" y2="272.25"/><text fill="#000000" font-family="sans-serif" font-size="14" lengthAdjust="spacingAndGlyphs" textLength="92" x="630.5" y="262.9482">runcommand</text><ellipse cx="83" cy="305.9531" fill="#000000" filter="url(#fa9j25w)" rx="10" ry="10" style="stroke: none; stroke-width: 1.0;"/><rect fill="#FEFECE" filter="url(#fa9j25w)" height="64.2344" rx="12.5" ry="12.5" style="stroke: #A80036; stroke-width: 1.5;" width="183" x="162.5" y="273.9531"/><line style="stroke: #A80036; stroke-width: 1.5;" x1="162.5" x2="345.5" y1="300.25" y2="300.25"/><text fill="#000000" font-family="sans-serif" font-size="14" lengthAdjust="spacingAndGlyphs" textLength="53" x="227.5" y="291.9482">monitor</text><text fill="#000000" font-family="sans-serif" font-size="12" lengthAdjust="spacingAndGlyphs" textLength="152" x="167.5" y="316.3887">Server starts monitoring</text><text fill="#000000" font-family="sans-serif" font-size="12" lengthAdjust="spacingAndGlyphs" textLength="163" x="167.5" y="330.3574">Stops at end of Server life</text><rect fill="#FEFECE" filter="url(#fa9j25w)" height="50.2656" rx="12.5" ry="12.5" style="stroke: #A80036; stroke-width: 1.5;" width="176" x="439" y="280.9531"/><line style="stroke: #A80036; stroke-width: 1.5;" x1="439" x2="615" y1="307.25" y2="307.25"/><text fill="#000000" font-family="sans-serif" font-size="14" lengthAdjust="spacingAndGlyphs" textLength="69" x="492.5" y="298.9482">command</text><text fill="#000000" font-family="sans-serif" font-size="12" lengthAdjust="spacingAndGlyphs" textLength="156" x="444" y="323.3887">send command to server</text><rect fill="#FEFECE" filter="url(#fa9j25w)" height="50" rx="12.5" ry="12.5" style="stroke: #A80036; stroke-width: 1.5;" width="50" x="699" y="280.9531"/><line style="stroke: #A80036; stroke-width: 1.5;" x1="699" x2="749" y1="307.25" y2="307.25"/><text fill="#000000" font-family="sans-serif" font-size="14" lengthAdjust="spacingAndGlyphs" textLength="25" x="711.5" y="298.9482">find</text><rect fill="#FEFECE" filter="url(#fa9j25w)" height="50.2656" rx="12.5" ry="12.5" style="stroke: #A80036; stroke-width: 1.5;" width="245" x="418.5" y="439.9531"/><line style="stroke: #A80036; stroke-width: 1.5;" x1="418.5" x2="663.5" y1="466.25" y2="466.25"/><text fill="#000000" font-family="sans-serif" font-size="14" lengthAdjust="spacingAndGlyphs" textLength="42" x="520" y="457.9482">select</text><text fill="#000000" font-family="sans-serif" font-size="12" lengthAdjust="spacingAndGlyphs" textLength="225" x="423.5" y="482.3887">select process to find proper server</text><rect fill="#FEFECE" filter="url(#fa9j25w)" height="64.2344" rx="12.5" ry="12.5" style="stroke: #A80036; stroke-width: 1.5;" width="236" x="699" y="432.9531"/><line style="stroke: #A80036; stroke-width: 1.5;" x1="699" x2="935" y1="459.25" y2="459.25"/><text fill="#000000" font-family="sans-serif" font-size="14" lengthAdjust="spacingAndGlyphs" textLength="39" x="797.5" y="450.9482">query</text><text fill="#000000" font-family="sans-serif" font-size="12" lengthAdjust="spacingAndGlyphs" textLength="216" x="704" y="475.3887">encodes query and send to server</text><text fill="#000000" font-family="sans-serif" font-size="12" lengthAdjust="spacingAndGlyphs" textLength="94" x="704" y="489.3574">decodes result</text><ellipse cx="205" cy="38.9531" fill="#000000" filter="url(#fa9j25w)" rx="10" ry="10" style="stroke: none; stroke-width: 1.0;"/><rect fill="#FEFECE" filter="url(#fa9j25w)" height="50.2656" rx="12.5" ry="12.5" style="stroke: #A80036; stroke-width: 1.5;" width="144" x="133" y="109.9531"/><line style="stroke: #A80036; stroke-width: 1.5;" x1="133" x2="277" y1="136.25" y2="136.25"/><text fill="#000000" font-family="sans-serif" font-size="14" lengthAdjust="spacingAndGlyphs" textLength="39" x="185.5" y="127.9482">Client</text><text fill="#000000" font-family="sans-serif" font-size="12" lengthAdjust="spacingAndGlyphs" textLength="124" x="138" y="152.3887">Process uri in Client</text><rect fill="#FEFECE" filter="url(#fa9j25w)" height="50.2656" rx="12.5" ry="12.5" style="stroke: #A80036; stroke-width: 1.5;" width="152" x="367" y="109.9531"/><line style="stroke: #A80036; stroke-width: 1.5;" x1="367" x2="519" y1="136.25" y2="136.25"/><text fill="#000000" font-family="sans-serif" font-size="14" lengthAdjust="spacingAndGlyphs" textLength="66" x="410" y="127.9482">Database</text><text fill="#000000" font-family="sans-serif" font-size="12" lengthAdjust="spacingAndGlyphs" textLength="132" x="372" y="152.3887">database operations</text><rect fill="#FEFECE" filter="url(#fa9j25w)" height="64.2344" rx="12.5" ry="12.5" style="stroke: #A80036; stroke-width: 1.5;" width="138" x="970" y="432.9531"/><line style="stroke: #A80036; stroke-width: 1.5;" x1="970" x2="1108" y1="459.25" y2="459.25"/><text fill="#000000" font-family="sans-serif" font-size="14" lengthAdjust="spacingAndGlyphs" textLength="46" x="1016" y="450.9482">Cursor</text><text fill="#000000" font-family="sans-serif" font-size="12" lengthAdjust="spacingAndGlyphs" textLength="74" x="975" y="475.3887">stores docs</text><text fill="#000000" font-family="sans-serif" font-size="12" lengthAdjust="spacingAndGlyphs" textLength="118" x="975" y="489.3574">retrieves new docs</text><rect fill="#FEFECE" filter="url(#fa9j25w)" height="50" rx="12.5" ry="12.5" style="stroke: #A80036; stroke-width: 1.5;" width="55" x="1209.5" y="439.9531"/><line style="stroke: #A80036; stroke-width: 1.5;" x1="1209.5" x2="1264.5" y1="466.25" y2="466.25"/><text fill="#000000" font-family="sans-serif" font-size="14" lengthAdjust="spacingAndGlyphs" textLength="35" x="1219.5" y="457.9482">fetch</text><rect fill="#FEFECE" filter="url(#fa9j25w)" height="64.2344" rx="12.5" ry="12.5" style="stroke: #A80036; stroke-width: 1.5;" width="236" x="1119" y="575.9531"/><line style="stroke: #A80036; stroke-width: 1.5;" x1="1119" x2="1355" y1="602.25" y2="602.25"/><text fill="#000000" font-family="sans-serif" font-size="14" lengthAdjust="spacingAndGlyphs" textLength="59" x="1207.5" y="593.9482">getmore</text><text fill="#000000" font-family="sans-serif" font-size="12" lengthAdjust="spacingAndGlyphs" textLength="216" x="1124" y="618.3887">encodes query and send to server</text><text fill="#000000" font-family="sans-serif" font-size="12" lengthAdjust="spacingAndGlyphs" textLength="94" x="1124" y="632.3574">decodes result</text><ellipse cx="1344" cy="464.9531" fill="none" filter="url(#fa9j25w)" rx="10" ry="10" style="stroke: #000000; stroke-width: 1.0;"/><ellipse cx="1344.5" cy="465.4531" fill="#000000" rx="6" ry="6" style="stroke: none; stroke-width: 1.0;"/><path d="M205,48.9661 C205,61.6511 205,85.3621 205,104.5231 " fill="none" style="stroke: #A80036; stroke-width: 1.0;"/><polygon fill="#A80036" points="205,109.7931,209,100.7931,205,104.7931,201,100.7931,205,109.7931" style="stroke: #A80036; stroke-width: 1.0;"/><path d="M132.741,159.4181 C105.1858,171.8131 75.8929,189.8031 57,214.9531 C54.0266,218.9113 51.4948,223.2305 49.3411,227.7654 C49.0719,228.3322 48.8086,228.9025 48.5511,229.4758 C48.4223,229.7624 48.295,230.0499 48.1691,230.338 C48.1062,230.4821 48.0436,230.6264 47.9814,230.7708 " fill="none" style="stroke: #A80036; stroke-width: 1.0;"/><polygon fill="#A80036" points="47.9814,230.7708,55.2158,224.0878,49.9596,226.1788,47.8686,220.9226,47.9814,230.7708" style="stroke: #A80036; stroke-width: 1.0;"/><text fill="#000000" font-family="sans-serif" font-size="13" lengthAdjust="spacingAndGlyphs" textLength="50" x="80" y="203.02">uri-data</text><path d="M93.0195,305.9531 C114.365,305.9531 135.711,305.9531 157.057,305.9531 " fill="none" style="stroke: #A80036; stroke-width: 1.0;"/><polygon fill="#A80036" points="162.191,305.9531,153.191,301.9531,157.191,305.9531,153.191,309.9531,162.191,305.9531" style="stroke: #A80036; stroke-width: 1.0;"/><path d="M277.054,134.9531 C303.715,134.9531 334.121,134.9531 361.558,134.9531 " fill="none" style="stroke: #A80036; stroke-width: 1.0;"/><polygon fill="#A80036" points="366.645,134.9531,357.645,130.9531,361.645,134.9531,357.645,138.9531,366.645,134.9531" style="stroke: #A80036; stroke-width: 1.0;"/><text fill="#000000" font-family="sans-serif" font-size="13" lengthAdjust="spacingAndGlyphs" textLength="36" x="304" y="128.02">Client</text><path d="M455.035,160.1671 C470.255,190.7881 496.429,243.4471 512.666,276.1151 " fill="none" style="stroke: #A80036; stroke-width: 1.0;"/><polygon fill="#A80036" points="514.987,280.7841,514.5624,270.9444,512.7612,276.3069,507.3988,274.5057,514.987,280.7841" style="stroke: #A80036; stroke-width: 1.0;"/><text fill="#000000" font-family="sans-serif" font-size="13" lengthAdjust="spacingAndGlyphs" textLength="62" x="479" y="203.02">Database</text><path d="M615.128,305.9531 C643.272,305.9531 672.558,305.9531 693.658,305.9531 " fill="none" style="stroke: #A80036; stroke-width: 1.0;"/><polygon fill="#A80036" points="698.84,305.9531,689.84,301.9531,693.84,305.9531,689.84,309.9531,698.84,305.9531" style="stroke: #A80036; stroke-width: 1.0;"/><text fill="#000000" font-family="sans-serif" font-size="13" lengthAdjust="spacingAndGlyphs" textLength="36" x="639" y="299.02">query</text><path d="M310.702,337.9711 C363.824,367.0311 442.367,409.9971 492.611,437.4821 " fill="none" style="stroke: #A80036; stroke-width: 1.0;"/><polygon fill="#A80036" points="497.081,439.9281,491.1061,432.0987,492.6948,437.5279,487.2656,439.1166,497.081,439.9281" style="stroke: #A80036; stroke-width: 1.0;"/><text fill="#000000" font-family="sans-serif" font-size="13" lengthAdjust="spacingAndGlyphs" textLength="74" x="425" y="399.02">server-data</text><path d="M700.143,331.1451 C682.794,347.1851 657.897,367.1921 632,377.9531 C606.75,388.4461 592.483,369.0371 571,385.9531 C556.124,397.6661 548.619,417.7071 544.835,434.5411 " fill="none" style="stroke: #A80036; stroke-width: 1.0;"/><polygon fill="#A80036" points="543.776,439.6491,549.5187,431.6478,544.7904,434.7531,541.685,430.0248,543.776,439.6491" style="stroke: #A80036; stroke-width: 1.0;"/><path d="M569.053,439.8861 C603.116,410.6621 660.285,361.6161 694.84,331.9701 " fill="none" style="stroke: #A80036; stroke-width: 1.0;"/><polygon fill="#A80036" points="698.938,328.4541,689.5025,331.2774,695.1428,331.7094,694.7109,337.3497,698.938,328.4541" style="stroke: #A80036; stroke-width: 1.0;"/><text fill="#000000" font-family="sans-serif" font-size="13" lengthAdjust="spacingAndGlyphs" textLength="42" x="629" y="399.02">Server</text><path d="M719.643,331.0451 C717.198,351.4951 716.734,380.9391 729,402.9531 C734.7,413.1831 742.924,422.0731 752.085,429.6621 " fill="none" style="stroke: #A80036; stroke-width: 1.0;"/><polygon fill="#A80036" points="756.064,432.8351,751.5236,424.0953,752.1556,429.7167,746.5342,430.3487,756.064,432.8351" style="stroke: #A80036; stroke-width: 1.0;"/><text fill="#000000" font-family="sans-serif" font-size="13" lengthAdjust="spacingAndGlyphs" textLength="40" x="730" y="399.02">server</text><path d="M800.999,432.8911 C793.385,418.4681 783.996,401.1811 775,385.9531 C764.992,369.0121 753.102,350.5111 743.322,335.6741 " fill="none" style="stroke: #A80036; stroke-width: 1.0;"/><polygon fill="#A80036" points="740.358,331.1931,741.9852,340.9066,743.1157,335.3639,748.6584,336.4944,740.358,331.1931" style="stroke: #A80036; stroke-width: 1.0;"/><text fill="#000000" font-family="sans-serif" font-size="13" lengthAdjust="spacingAndGlyphs" textLength="36" x="786" y="399.02">result</text><path d="M749.245,319.5361 C797.102,343.3881 902.452,395.8961 972.059,430.5891 " fill="none" style="stroke: #A80036; stroke-width: 1.0;"/><polygon fill="#A80036" points="976.591,432.8481,970.3203,425.2535,972.116,430.6178,966.7517,432.4135,976.591,432.8481" style="stroke: #A80036; stroke-width: 1.0;"/><text fill="#000000" font-family="sans-serif" font-size="13" lengthAdjust="spacingAndGlyphs" textLength="74" x="911" y="399.02">cursor-data</text><path d="M1108.25,464.9531 C1140.87,464.9531 1178.24,464.9531 1204.29,464.9531 " fill="none" style="stroke: #A80036; stroke-width: 1.0;"/><polygon fill="#A80036" points="1209.34,464.9531,1200.34,460.9531,1204.34,464.9531,1200.34,468.9531,1209.34,464.9531" style="stroke: #A80036; stroke-width: 1.0;"/><text fill="#000000" font-family="sans-serif" font-size="13" lengthAdjust="spacingAndGlyphs" textLength="65" x="1126.25" y="458.02">document</text><path d="M1233.07,490.0811 C1230.93,505.9421 1228.93,527.1621 1230,545.9531 C1230.46,553.9731 1231.25,562.5574 1232.15,570.6787 " fill="none" style="stroke: #A80036; stroke-width: 1.0;"/><polygon fill="#A80036" points="1232.71,575.6663,1235.6681,566.2722,1232.1454,570.6983,1227.7193,567.1756,1232.71,575.6663" style="stroke: #A80036; stroke-width: 1.0;"/><path d="M1237,575.8826 C1237,551.8947 1237,518.9301 1237,495.3681 " fill="none" style="stroke: #A80036; stroke-width: 1.0;"/><polygon fill="#A80036" points="1237,490.1921,1233,499.1921,1237,495.1921,1241,499.1921,1237,490.1921" style="stroke: #A80036; stroke-width: 1.0;"/><text fill="#000000" font-family="sans-serif" font-size="13" lengthAdjust="spacingAndGlyphs" textLength="102" x="1238" y="542.02">new-documents</text><path d="M1264.59,464.9531 C1285.93,464.9531 1307.28,464.9531 1328.63,464.9531 " fill="none" style="stroke: #A80036; stroke-width: 1.0;"/><polygon fill="#A80036" points="1333.76,464.9531,1324.76,460.9531,1328.76,464.9531,1324.76,468.9531,1333.76,464.9531" style="stroke: #A80036; stroke-width: 1.0;"/></g></svg>