<?xml version="1.0" encoding="UTF-8" standalone="no"?><svg xmlns="http://www.w3.org/2000/svg" xmlns:xlink="http://www.w3.org/1999/xlink" contentScriptType="application/ecmascript" contentStyleType="text/css" height="961px" preserveAspectRatio="none" style="width:697px;height:961px;" version="1.1" viewBox="0 0 697 961" width="697px" zoomAndPan="magnify"><defs><filter height="300%" id="f4z3jrwvfu19p" width="300%" x="-1" y="-1"><feGaussianBlur result="blurOut" stdDeviation="2.0"/><feColorMatrix in="blurOut" result="blurOut2" type="matrix" values="0 0 0 0 0 0 0 0 0 0 0 0 0 0 0 0 0 0 .4 0"/><feOffset dx="4.0" dy="4.0" in="blurOut2" result="blurOut3"/><feBlend in="SourceGraphic" in2="blurOut3" mode="normal"/></filter></defs><g><rect fill="#EFFFFF" height="949.1309" rx="5" ry="5" style="stroke: #A80036; stroke-width: 1.0;" width="67" x="622" y="6"/><text fill="#000000" font-family="sans-serif" font-size="13" font-weight="bold" lengthAdjust="spacingAndGlyphs" textLength="50" x="630.5" y="18.0669">Will be</text><text fill="#000000" font-family="sans-serif" font-size="13" font-weight="bold" lengthAdjust="spacingAndGlyphs" textLength="61" x="625" y="33.1997">detailed</text><text fill="#000000" font-family="sans-serif" font-size="13" font-weight="bold" lengthAdjust="spacingAndGlyphs" textLength="34" x="638.5" y="48.3325">later</text><rect fill="#FFFFFF" filter="url(#f4z3jrwvfu19p)" height="29.2407" style="stroke: #A80036; stroke-width: 1.0;" width="10" x="144" y="122.0522"/><rect fill="#FFFFFF" filter="url(#f4z3jrwvfu19p)" height="103.8945" style="stroke: #A80036; stroke-width: 1.0;" width="10" x="144" y="180.5337"/><rect fill="#FFFFFF" filter="url(#f4z3jrwvfu19p)" height="35.4131" style="stroke: #A80036; stroke-width: 1.0;" width="10" x="295" y="219.7744"/><rect fill="#FFFFFF" filter="url(#f4z3jrwvfu19p)" height="103.8945" style="stroke: #A80036; stroke-width: 1.0;" width="10" x="295" y="313.6689"/><rect fill="#FFFFFF" filter="url(#f4z3jrwvfu19p)" height="35.4131" style="stroke: #A80036; stroke-width: 1.0;" width="10" x="406" y="352.9097"/><rect fill="#FFFFFF" filter="url(#f4z3jrwvfu19p)" height="178.5483" style="stroke: #A80036; stroke-width: 1.0;" width="10" x="406" y="446.8042"/><rect fill="#FFFFFF" filter="url(#f4z3jrwvfu19p)" height="35.4131" style="stroke: #A80036; stroke-width: 1.0;" width="10" x="542" y="560.6987"/><rect fill="#FFFFFF" filter="url(#f4z3jrwvfu19p)" height="95.7222" style="stroke: #FFFFFF; stroke-width: 1.0;" width="10" x="542" y="697.7261"/><line style="stroke: #A80036; stroke-width: 1.0;" x1="542" x2="542" y1="697.7261" y2="793.4482"/><line style="stroke: #A80036; stroke-width: 1.0;" x1="552" x2="552" y1="697.7261" y2="793.4482"/><line style="stroke: #A80036; stroke-width: 1.0;" x1="542" x2="552" y1="697.7261" y2="697.7261"/><rect fill="#FFFFFF" filter="url(#f4z3jrwvfu19p)" height="21.2407" style="stroke: #FFFFFF; stroke-width: 1.0;" width="10" x="542" y="834.3442"/><line style="stroke: #A80036; stroke-width: 1.0;" x1="542" x2="542" y1="834.3442" y2="855.585"/><line style="stroke: #A80036; stroke-width: 1.0;" x1="552" x2="552" y1="834.3442" y2="855.585"/><line style="stroke: #A80036; stroke-width: 1.0;" x1="542" x2="552" y1="855.585" y2="855.585"/><rect fill="#FFFFFF" filter="url(#f4z3jrwvfu19p)" height="35.4131" style="stroke: #A80036; stroke-width: 1.0;" width="10" x="650.5" y="486.0449"/><rect fill="#FFFFFF" filter="url(#f4z3jrwvfu19p)" height="29.2407" style="stroke: #A80036; stroke-width: 1.0;" width="10" x="650.5" y="726.9668"/><line style="stroke: #A80036; stroke-width: 1.0;" x1="148.5" x2="148.5" y1="90.8115" y2="793.4482"/><line style="stroke: #A80036; stroke-width: 1.0; stroke-dasharray: 1.0,4.0;" x1="148.5" x2="148.5" y1="793.4482" y2="834.3442"/><line style="stroke: #A80036; stroke-width: 1.0;" x1="148.5" x2="148.5" y1="834.3442" y2="916.7178"/><line style="stroke: #A80036; stroke-width: 1.0;" x1="300" x2="300" y1="221.2402" y2="793.4482"/><line style="stroke: #A80036; stroke-width: 1.0; stroke-dasharray: 1.0,4.0;" x1="300" x2="300" y1="793.4482" y2="834.3442"/><line style="stroke: #A80036; stroke-width: 1.0;" x1="300" x2="300" y1="834.3442" y2="916.7178"/><line style="stroke: #A80036; stroke-width: 1.0;" x1="411" x2="411" y1="354.3755" y2="793.4482"/><line style="stroke: #A80036; stroke-width: 1.0; stroke-dasharray: 1.0,4.0;" x1="411" x2="411" y1="793.4482" y2="834.3442"/><line style="stroke: #A80036; stroke-width: 1.0;" x1="411" x2="411" y1="834.3442" y2="916.7178"/><line style="stroke: #A80036; stroke-width: 1.0;" x1="547" x2="547" y1="562.1646" y2="793.4482"/><line style="stroke: #A80036; stroke-width: 1.0; stroke-dasharray: 1.0,4.0;" x1="547" x2="547" y1="793.4482" y2="834.3442"/><line style="stroke: #A80036; stroke-width: 1.0;" x1="547" x2="547" y1="834.3442" y2="916.7178"/><line style="stroke: #A80036; stroke-width: 1.0;" x1="655.5" x2="655.5" y1="487.5107" y2="793.4482"/><line style="stroke: #A80036; stroke-width: 1.0; stroke-dasharray: 1.0,4.0;" x1="655.5" x2="655.5" y1="793.4482" y2="834.3442"/><line style="stroke: #A80036; stroke-width: 1.0;" x1="655.5" x2="655.5" y1="834.3442" y2="916.7178"/><rect fill="#FEFECE" filter="url(#f4z3jrwvfu19p)" height="30.4131" rx="5" ry="5" style="stroke: #A80036; stroke-width: 1.5;" width="53" x="120.5" y="55.3984"/><text fill="#000000" font-family="sans-serif" font-size="14" lengthAdjust="spacingAndGlyphs" textLength="39" x="127.5" y="75.4824">Client</text><rect fill="#FEFECE" filter="url(#f4z3jrwvfu19p)" height="30.4131" rx="5" ry="5" style="stroke: #A80036; stroke-width: 1.5;" width="53" x="120.5" y="915.7178"/><text fill="#000000" font-family="sans-serif" font-size="14" lengthAdjust="spacingAndGlyphs" textLength="39" x="127.5" y="935.8018">Client</text><rect fill="#FEFECE" filter="url(#f4z3jrwvfu19p)" height="30.4131" rx="5" ry="5" style="stroke: #A80036; stroke-width: 1.5;" width="80" x="258" y="915.7178"/><text fill="#000000" font-family="sans-serif" font-size="14" lengthAdjust="spacingAndGlyphs" textLength="66" x="265" y="935.8018">Database</text><rect fill="#FEFECE" filter="url(#f4z3jrwvfu19p)" height="30.4131" rx="5" ry="5" style="stroke: #A80036; stroke-width: 1.5;" width="82" x="368" y="915.7178"/><text fill="#000000" font-family="sans-serif" font-size="14" lengthAdjust="spacingAndGlyphs" textLength="68" x="375" y="935.8018">Collection</text><rect fill="#FEFECE" filter="url(#f4z3jrwvfu19p)" height="30.4131" rx="5" ry="5" style="stroke: #A80036; stroke-width: 1.5;" width="60" x="515" y="915.7178"/><text fill="#000000" font-family="sans-serif" font-size="14" lengthAdjust="spacingAndGlyphs" textLength="46" x="522" y="935.8018">Cursor</text><rect fill="#FEFECE" filter="url(#f4z3jrwvfu19p)" height="30.4131" rx="5" ry="5" style="stroke: #A80036; stroke-width: 1.5;" width="44" x="631.5" y="915.7178"/><text fill="#000000" font-family="sans-serif" font-size="14" lengthAdjust="spacingAndGlyphs" textLength="30" x="638.5" y="935.8018">Wire</text><rect fill="#FFFFFF" filter="url(#f4z3jrwvfu19p)" height="29.2407" style="stroke: #A80036; stroke-width: 1.0;" width="10" x="144" y="122.0522"/><rect fill="#FFFFFF" filter="url(#f4z3jrwvfu19p)" height="103.8945" style="stroke: #A80036; stroke-width: 1.0;" width="10" x="144" y="180.5337"/><rect fill="#FFFFFF" filter="url(#f4z3jrwvfu19p)" height="35.4131" style="stroke: #A80036; stroke-width: 1.0;" width="10" x="295" y="219.7744"/><rect fill="#FFFFFF" filter="url(#f4z3jrwvfu19p)" height="103.8945" style="stroke: #A80036; stroke-width: 1.0;" width="10" x="295" y="313.6689"/><rect fill="#FFFFFF" filter="url(#f4z3jrwvfu19p)" height="35.4131" style="stroke: #A80036; stroke-width: 1.0;" width="10" x="406" y="352.9097"/><rect fill="#FFFFFF" filter="url(#f4z3jrwvfu19p)" height="178.5483" style="stroke: #A80036; stroke-width: 1.0;" width="10" x="406" y="446.8042"/><rect fill="#FFFFFF" filter="url(#f4z3jrwvfu19p)" height="35.4131" style="stroke: #A80036; stroke-width: 1.0;" width="10" x="542" y="560.6987"/><rect fill="#FFFFFF" filter="url(#f4z3jrwvfu19p)" height="95.7222" style="stroke: #FFFFFF; stroke-width: 1.0;" width="10" x="542" y="697.7261"/><line style="stroke: #A80036; stroke-width: 1.0;" x1="542" x2="542" y1="697.7261" y2="793.4482"/><line style="stroke: #A80036; stroke-width: 1.0;" x1="552" x2="552" y1="697.7261" y2="793.4482"/><line style="stroke: #A80036; stroke-width: 1.0;" x1="542" x2="552" y1="697.7261" y2="697.7261"/><rect fill="#FFFFFF" filter="url(#f4z3jrwvfu19p)" height="21.2407" style="stroke: #FFFFFF; stroke-width: 1.0;" width="10" x="542" y="834.3442"/><line style="stroke: #A80036; stroke-width: 1.0;" x1="542" x2="542" y1="834.3442" y2="855.585"/><line style="stroke: #A80036; stroke-width: 1.0;" x1="552" x2="552" y1="834.3442" y2="855.585"/><line style="stroke: #A80036; stroke-width: 1.0;" x1="542" x2="552" y1="855.585" y2="855.585"/><rect fill="#FFFFFF" filter="url(#f4z3jrwvfu19p)" height="35.4131" style="stroke: #A80036; stroke-width: 1.0;" width="10" x="650.5" y="486.0449"/><rect fill="#FFFFFF" filter="url(#f4z3jrwvfu19p)" height="29.2407" style="stroke: #A80036; stroke-width: 1.0;" width="10" x="650.5" y="726.9668"/><polygon fill="#A80036" points="132,118.0522,142,122.0522,132,126.0522,136,122.0522" style="stroke: #A80036; stroke-width: 1.0;"/><line style="stroke: #A80036; stroke-width: 1.0;" x1="0" x2="138" y1="122.0522" y2="122.0522"/><text fill="#000000" font-family="sans-serif" font-size="13" lengthAdjust="spacingAndGlyphs" textLength="59" x="7" y="116.9609">.new(:uri)</text><polygon fill="#A80036" points="11,147.293,1,151.293,11,155.293,7,151.293" style="stroke: #A80036; stroke-width: 1.0;"/><line style="stroke: #A80036; stroke-width: 1.0; stroke-dasharray: 2.0,2.0;" x1="5" x2="148" y1="151.293" y2="151.293"/><text fill="#000000" font-family="sans-serif" font-size="13" lengthAdjust="spacingAndGlyphs" textLength="10" x="17" y="146.2017">cl</text><polygon fill="#A80036" points="132,176.5337,142,180.5337,132,184.5337,136,180.5337" style="stroke: #A80036; stroke-width: 1.0;"/><line style="stroke: #A80036; stroke-width: 1.0;" x1="0" x2="138" y1="180.5337" y2="180.5337"/><text fill="#000000" font-family="sans-serif" font-size="13" lengthAdjust="spacingAndGlyphs" textLength="125" x="7" y="175.4424">cl.database(:name)</text><polygon fill="#A80036" points="246,205.7744,256,209.7744,246,213.7744,250,209.7744" style="stroke: #A80036; stroke-width: 1.0;"/><line style="stroke: #A80036; stroke-width: 1.0;" x1="154" x2="252" y1="209.7744" y2="209.7744"/><text fill="#000000" font-family="sans-serif" font-size="13" lengthAdjust="spacingAndGlyphs" textLength="80" x="161" y="204.6831">.new(:name)</text><rect fill="#FEFECE" filter="url(#f4z3jrwvfu19p)" height="30.4131" rx="5" ry="5" style="stroke: #A80036; stroke-width: 1.5;" width="80" x="258" y="188.5337"/><text fill="#000000" font-family="sans-serif" font-size="14" lengthAdjust="spacingAndGlyphs" textLength="66" x="265" y="208.6177">Database</text><polygon fill="#A80036" points="165,251.1875,155,255.1875,165,259.1875,161,255.1875" style="stroke: #A80036; stroke-width: 1.0;"/><line style="stroke: #A80036; stroke-width: 1.0; stroke-dasharray: 2.0,2.0;" x1="159" x2="299" y1="255.1875" y2="255.1875"/><text fill="#000000" font-family="sans-serif" font-size="13" lengthAdjust="spacingAndGlyphs" textLength="16" x="171" y="250.0962">db</text><polygon fill="#A80036" points="11,280.4282,1,284.4282,11,288.4282,7,284.4282" style="stroke: #A80036; stroke-width: 1.0;"/><line style="stroke: #A80036; stroke-width: 1.0; stroke-dasharray: 2.0,2.0;" x1="5" x2="148" y1="284.4282" y2="284.4282"/><text fill="#000000" font-family="sans-serif" font-size="13" lengthAdjust="spacingAndGlyphs" textLength="16" x="17" y="279.3369">db</text><polygon fill="#A80036" points="283,309.6689,293,313.6689,283,317.6689,287,313.6689" style="stroke: #A80036; stroke-width: 1.0;"/><line style="stroke: #A80036; stroke-width: 1.0;" x1="0" x2="289" y1="313.6689" y2="313.6689"/><text fill="#000000" font-family="sans-serif" font-size="13" lengthAdjust="spacingAndGlyphs" textLength="90" x="7" y="308.5776">db.collection()</text><polygon fill="#A80036" points="356,338.9097,366,342.9097,356,346.9097,360,342.9097" style="stroke: #A80036; stroke-width: 1.0;"/><line style="stroke: #A80036; stroke-width: 1.0;" x1="305" x2="362" y1="342.9097" y2="342.9097"/><text fill="#000000" font-family="sans-serif" font-size="13" lengthAdjust="spacingAndGlyphs" textLength="39" x="312" y="337.8184">.new()</text><rect fill="#FEFECE" filter="url(#f4z3jrwvfu19p)" height="30.4131" rx="5" ry="5" style="stroke: #A80036; stroke-width: 1.5;" width="82" x="368" y="321.6689"/><text fill="#000000" font-family="sans-serif" font-size="14" lengthAdjust="spacingAndGlyphs" textLength="68" x="375" y="341.7529">Collection</text><polygon fill="#A80036" points="316,384.3228,306,388.3228,316,392.3228,312,388.3228" style="stroke: #A80036; stroke-width: 1.0;"/><line style="stroke: #A80036; stroke-width: 1.0; stroke-dasharray: 2.0,2.0;" x1="310" x2="410" y1="388.3228" y2="388.3228"/><text fill="#000000" font-family="sans-serif" font-size="13" lengthAdjust="spacingAndGlyphs" textLength="18" x="322" y="383.2314">col</text><polygon fill="#A80036" points="11,413.5635,1,417.5635,11,421.5635,7,417.5635" style="stroke: #A80036; stroke-width: 1.0;"/><line style="stroke: #A80036; stroke-width: 1.0; stroke-dasharray: 2.0,2.0;" x1="5" x2="299" y1="417.5635" y2="417.5635"/><text fill="#000000" font-family="sans-serif" font-size="13" lengthAdjust="spacingAndGlyphs" textLength="18" x="17" y="412.4722">col</text><polygon fill="#A80036" points="394,442.8042,404,446.8042,394,450.8042,398,446.8042" style="stroke: #A80036; stroke-width: 1.0;"/><line style="stroke: #A80036; stroke-width: 1.0;" x1="0" x2="400" y1="446.8042" y2="446.8042"/><text fill="#000000" font-family="sans-serif" font-size="13" lengthAdjust="spacingAndGlyphs" textLength="104" x="7" y="441.7129">col.find(request)</text><polygon fill="#A80036" points="619.5,472.0449,629.5,476.0449,619.5,480.0449,623.5,476.0449" style="stroke: #A80036; stroke-width: 1.0;"/><line style="stroke: #A80036; stroke-width: 1.0;" x1="416" x2="625.5" y1="476.0449" y2="476.0449"/><text fill="#000000" font-family="sans-serif" font-size="13" lengthAdjust="spacingAndGlyphs" textLength="99" x="423" y="470.9536">.query(request)</text><rect fill="#FEFECE" filter="url(#f4z3jrwvfu19p)" height="30.4131" rx="5" ry="5" style="stroke: #A80036; stroke-width: 1.5;" width="44" x="631.5" y="454.8042"/><text fill="#000000" font-family="sans-serif" font-size="14" lengthAdjust="spacingAndGlyphs" textLength="30" x="638.5" y="474.8882">Wire</text><polygon fill="#A80036" points="427,517.458,417,521.458,427,525.458,423,521.458" style="stroke: #A80036; stroke-width: 1.0;"/><line style="stroke: #A80036; stroke-width: 1.0; stroke-dasharray: 2.0,2.0;" x1="421" x2="654.5" y1="521.458" y2="521.458"/><text fill="#000000" font-family="sans-serif" font-size="13" lengthAdjust="spacingAndGlyphs" textLength="36" x="433" y="516.3667">result</text><line style="stroke: #A80036; stroke-width: 2.0;" x1="646.5" x2="664.5" y1="512.458" y2="530.458"/><line style="stroke: #A80036; stroke-width: 2.0;" x1="646.5" x2="664.5" y1="530.458" y2="512.458"/><polygon fill="#A80036" points="503,546.6987,513,550.6987,503,554.6987,507,550.6987" style="stroke: #A80036; stroke-width: 1.0;"/><line style="stroke: #A80036; stroke-width: 1.0;" x1="416" x2="509" y1="550.6987" y2="550.6987"/><text fill="#000000" font-family="sans-serif" font-size="13" lengthAdjust="spacingAndGlyphs" textLength="75" x="423" y="545.6074">.new(result)</text><rect fill="#FEFECE" filter="url(#f4z3jrwvfu19p)" height="30.4131" rx="5" ry="5" style="stroke: #A80036; stroke-width: 1.5;" width="60" x="515" y="529.458"/><text fill="#000000" font-family="sans-serif" font-size="14" lengthAdjust="spacingAndGlyphs" textLength="46" x="522" y="549.542">Cursor</text><polygon fill="#A80036" points="427,592.1118,417,596.1118,427,600.1118,423,596.1118" style="stroke: #A80036; stroke-width: 1.0;"/><line style="stroke: #A80036; stroke-width: 1.0; stroke-dasharray: 2.0,2.0;" x1="421" x2="546" y1="596.1118" y2="596.1118"/><text fill="#000000" font-family="sans-serif" font-size="13" lengthAdjust="spacingAndGlyphs" textLength="40" x="433" y="591.0205">cursor</text><polygon fill="#A80036" points="11,621.3525,1,625.3525,11,629.3525,7,625.3525" style="stroke: #A80036; stroke-width: 1.0;"/><line style="stroke: #A80036; stroke-width: 1.0; stroke-dasharray: 2.0,2.0;" x1="5" x2="410" y1="625.3525" y2="625.3525"/><text fill="#000000" font-family="sans-serif" font-size="13" lengthAdjust="spacingAndGlyphs" textLength="40" x="17" y="620.2612">cursor</text><rect fill="#EEEEEE" filter="url(#f4z3jrwvfu19p)" height="3" style="stroke: #EEEEEE; stroke-width: 1.0;" width="690" x="0" y="653.9189"/><line style="stroke: #000000; stroke-width: 1.0;" x1="0" x2="690" y1="653.9189" y2="653.9189"/><line style="stroke: #000000; stroke-width: 1.0;" x1="0" x2="690" y1="656.9189" y2="656.9189"/><rect fill="#EEEEEE" filter="url(#f4z3jrwvfu19p)" height="23.1328" style="stroke: #000000; stroke-width: 2.0;" width="317" x="186.5" y="643.3525"/><text fill="#000000" font-family="sans-serif" font-size="13" font-weight="bold" lengthAdjust="spacingAndGlyphs" textLength="298" x="192.5" y="659.4194">repeat fetch until no documents are left</text><polygon fill="#A80036" points="530,693.7261,540,697.7261,530,701.7261,534,697.7261" style="stroke: #A80036; stroke-width: 1.0;"/><line style="stroke: #A80036; stroke-width: 1.0;" x1="0" x2="536" y1="697.7261" y2="697.7261"/><text fill="#000000" font-family="sans-serif" font-size="13" lengthAdjust="spacingAndGlyphs" textLength="111" x="7" y="692.6348">while cursor.fetch</text><polygon fill="#A80036" points="638.5,722.9668,648.5,726.9668,638.5,730.9668,642.5,726.9668" style="stroke: #A80036; stroke-width: 1.0;"/><line style="stroke: #A80036; stroke-width: 1.0;" x1="552" x2="644.5" y1="726.9668" y2="726.9668"/><text fill="#000000" font-family="sans-serif" font-size="13" lengthAdjust="spacingAndGlyphs" textLength="74" x="559" y="721.8755">.get-more()</text><polygon fill="#A80036" points="563,752.2075,553,756.2075,563,760.2075,559,756.2075" style="stroke: #A80036; stroke-width: 1.0;"/><line style="stroke: #A80036; stroke-width: 1.0; stroke-dasharray: 2.0,2.0;" x1="557" x2="654.5" y1="756.2075" y2="756.2075"/><text fill="#000000" font-family="sans-serif" font-size="13" lengthAdjust="spacingAndGlyphs" textLength="65" x="569" y="751.1162">document</text><polygon fill="#A80036" points="11,781.4482,1,785.4482,11,789.4482,7,785.4482" style="stroke: #A80036; stroke-width: 1.0;"/><line style="stroke: #A80036; stroke-width: 1.0; stroke-dasharray: 2.0,2.0;" x1="5" x2="541" y1="785.4482" y2="785.4482"/><text fill="#000000" font-family="sans-serif" font-size="13" lengthAdjust="spacingAndGlyphs" textLength="65" x="17" y="780.3569">document</text><text fill="#000000" font-family="sans-serif" font-size="11" lengthAdjust="spacingAndGlyphs" textLength="121" x="341.75" y="817.7285">after some iterations</text><polygon fill="#A80036" points="11,851.585,1,855.585,11,859.585,7,855.585" style="stroke: #A80036; stroke-width: 1.0;"/><line style="stroke: #A80036; stroke-width: 1.0; stroke-dasharray: 2.0,2.0;" x1="5" x2="546" y1="855.585" y2="855.585"/><text fill="#000000" font-family="sans-serif" font-size="13" lengthAdjust="spacingAndGlyphs" textLength="132" x="17" y="850.4937">undefined document</text><line style="stroke: #A80036; stroke-width: 2.0;" x1="538" x2="556" y1="846.585" y2="864.585"/><line style="stroke: #A80036; stroke-width: 2.0;" x1="538" x2="556" y1="864.585" y2="846.585"/><rect fill="#EEEEEE" filter="url(#f4z3jrwvfu19p)" height="3" style="stroke: #EEEEEE; stroke-width: 1.0;" width="690" x="0" y="884.1514"/><line style="stroke: #000000; stroke-width: 1.0;" x1="0" x2="690" y1="884.1514" y2="884.1514"/><line style="stroke: #000000; stroke-width: 1.0;" x1="0" x2="690" y1="887.1514" y2="887.1514"/><rect fill="#EEEEEE" filter="url(#f4z3jrwvfu19p)" height="23.1328" style="stroke: #000000; stroke-width: 2.0;" width="57" x="316.5" y="873.585"/><text fill="#000000" font-family="sans-serif" font-size="13" font-weight="bold" lengthAdjust="spacingAndGlyphs" textLength="38" x="322.5" y="889.6519">Done</text><line style="stroke: #A80036; stroke-width: 2.0;" x1="646.5" x2="664.5" y1="846.585" y2="864.585"/><line style="stroke: #A80036; stroke-width: 2.0;" x1="646.5" x2="664.5" y1="864.585" y2="846.585"/><!--MD5=[8fcd2cae17972a58547eee110048982d]
@startuml
'scale 0.8

skinparam roundcorner 10
skinparam sequence {
'  LifeLineBorderColor blue
  LifeLineBackgroundColor #fff
}

'participant "User Application" as Application
'activate Application

participant Client
participant Database
participant Collection
'participant Wire
participant Cursor
box "Will be\ndetailed\nlater" #efffff
  participant Wire
end box

-> Client ++: .new(:uri)
create Client
return cl

-> Client ++: cl.database(:name)
create Database
Client -> Database ++: .new(:name)
return db
return db

-> Database ++: db.collection()

create Collection
Database -> Collection ++: .new()
return col
return col

-> Collection ++: col.find(request)

create Wire
Collection -> Wire ++: .query(request)
return result
destroy Wire

create Cursor
Collection -> Cursor ++: .new(result)
return cursor
return cursor

== repeat fetch until no documents are left ==
-> Cursor ++: while cursor.fetch
Cursor -> Wire ++: .get-more()
return document
'return document
<- - Cursor: document

... after some iterations ...
<- - Cursor: undefined document

destroy Cursor

== Done ==

destroy Wire

@enduml

@startuml

skinparam roundcorner 10
skinparam sequence {
  LifeLineBackgroundColor #fff
}


participant Client
participant Database
participant Collection
participant Cursor
box "Will be\ndetailed\nlater" #efffff
  participant Wire
end box

-> Client ++: .new(:uri)
create Client
return cl

-> Client ++: cl.database(:name)
create Database
Client -> Database ++: .new(:name)
return db
return db

-> Database ++: db.collection()

create Collection
Database -> Collection ++: .new()
return col
return col

-> Collection ++: col.find(request)

create Wire
Collection -> Wire ++: .query(request)
return result
destroy Wire

create Cursor
Collection -> Cursor ++: .new(result)
return cursor
return cursor

== repeat fetch until no documents are left ==
-> Cursor ++: while cursor.fetch
Cursor -> Wire ++: .get-more()
return document
<- - Cursor: document

... after some iterations ...
<- - Cursor: undefined document

destroy Cursor

== Done ==

destroy Wire

@enduml

PlantUML version 1.2020.19(Mon Oct 12 17:10:01 CEST 2020)
(GPL source distribution)
Java Runtime: OpenJDK Runtime Environment
JVM: OpenJDK 64-Bit Server VM
Default Encoding: UTF-8
Language: en
Country: null
--></g></svg>