<?xml version="1.0" encoding="UTF-8" standalone="no"?><svg xmlns="http://www.w3.org/2000/svg" xmlns:xlink="http://www.w3.org/1999/xlink" contentScriptType="application/ecmascript" contentStyleType="text/css" height="538px" preserveAspectRatio="none" style="width:759px;height:538px;" version="1.1" viewBox="0 0 759 538" width="759px" zoomAndPan="magnify"><defs><filter height="300%" id="fdzf4rcvdp7ln" width="300%" x="-1" y="-1"><feGaussianBlur result="blurOut" stdDeviation="2.0"/><feColorMatrix in="blurOut" result="blurOut2" type="matrix" values="0 0 0 0 0 0 0 0 0 0 0 0 0 0 0 0 0 0 .4 0"/><feOffset dx="4.0" dy="4.0" in="blurOut2" result="blurOut3"/><feBlend in="SourceGraphic" in2="blurOut3" mode="normal"/></filter></defs><g><rect fill="#FFFFFF" filter="url(#fdzf4rcvdp7ln)" height="440.3701" style="stroke: #A80036; stroke-width: 1.0;" width="10" x="67.5" y="48.4131"/><rect fill="#FFFFFF" filter="url(#fdzf4rcvdp7ln)" height="419.1294" style="stroke: #A80036; stroke-width: 1.0;" width="10" x="242.5" y="69.6538"/><rect fill="#FFFFFF" filter="url(#fdzf4rcvdp7ln)" height="331.4072" style="stroke: #A80036; stroke-width: 1.0;" width="10" x="359.5" y="157.376"/><rect fill="#FFFFFF" filter="url(#fdzf4rcvdp7ln)" height="176.2036" style="stroke: #A80036; stroke-width: 1.0;" width="10" x="513.5" y="245.0981"/><rect fill="#FFFFFF" filter="url(#fdzf4rcvdp7ln)" height="29.2407" style="stroke: #A80036; stroke-width: 1.0;" width="10" x="649.5" y="332.8203"/><rect fill="#FFFFFF" filter="url(#fdzf4rcvdp7ln)" height="59.2407" style="stroke: #A80036; stroke-width: 1.0;" width="10" x="715.5" y="391.3018"/><line style="stroke: #A80036; stroke-width: 1.0; stroke-dasharray: 5.0,5.0;" x1="72" x2="72" y1="38.4131" y2="497.7832"/><line style="stroke: #A80036; stroke-width: 1.0; stroke-dasharray: 5.0,5.0;" x1="247" x2="247" y1="38.4131" y2="497.7832"/><line style="stroke: #A80036; stroke-width: 1.0; stroke-dasharray: 5.0,5.0;" x1="364.5" x2="364.5" y1="38.4131" y2="497.7832"/><line style="stroke: #A80036; stroke-width: 1.0; stroke-dasharray: 5.0,5.0;" x1="518.5" x2="518.5" y1="38.4131" y2="497.7832"/><line style="stroke: #A80036; stroke-width: 1.0; stroke-dasharray: 5.0,5.0;" x1="654.5" x2="654.5" y1="38.4131" y2="497.7832"/><line style="stroke: #A80036; stroke-width: 1.0; stroke-dasharray: 5.0,5.0;" x1="720.5" x2="720.5" y1="38.4131" y2="497.7832"/><rect fill="#FEFECE" filter="url(#fdzf4rcvdp7ln)" height="30.4131" style="stroke: #A80036; stroke-width: 1.5;" width="125" x="8" y="3"/><text fill="#000000" font-family="sans-serif" font-size="14" lengthAdjust="spacingAndGlyphs" textLength="111" x="15" y="23.084">User Application</text><rect fill="#FEFECE" filter="url(#fdzf4rcvdp7ln)" height="30.4131" style="stroke: #A80036; stroke-width: 1.5;" width="125" x="8" y="496.7832"/><text fill="#000000" font-family="sans-serif" font-size="14" lengthAdjust="spacingAndGlyphs" textLength="111" x="15" y="516.8672">User Application</text><rect fill="#FEFECE" filter="url(#fdzf4rcvdp7ln)" height="30.4131" style="stroke: #A80036; stroke-width: 1.5;" width="53" x="219" y="3"/><text fill="#000000" font-family="sans-serif" font-size="14" lengthAdjust="spacingAndGlyphs" textLength="39" x="226" y="23.084">Client</text><rect fill="#FEFECE" filter="url(#fdzf4rcvdp7ln)" height="30.4131" style="stroke: #A80036; stroke-width: 1.5;" width="53" x="219" y="496.7832"/><text fill="#000000" font-family="sans-serif" font-size="14" lengthAdjust="spacingAndGlyphs" textLength="39" x="226" y="516.8672">Client</text><rect fill="#FEFECE" filter="url(#fdzf4rcvdp7ln)" height="30.4131" style="stroke: #A80036; stroke-width: 1.5;" width="80" x="322.5" y="3"/><text fill="#000000" font-family="sans-serif" font-size="14" lengthAdjust="spacingAndGlyphs" textLength="66" x="329.5" y="23.084">Database</text><rect fill="#FEFECE" filter="url(#fdzf4rcvdp7ln)" height="30.4131" style="stroke: #A80036; stroke-width: 1.5;" width="80" x="322.5" y="496.7832"/><text fill="#000000" font-family="sans-serif" font-size="14" lengthAdjust="spacingAndGlyphs" textLength="66" x="329.5" y="516.8672">Database</text><rect fill="#FEFECE" filter="url(#fdzf4rcvdp7ln)" height="30.4131" style="stroke: #A80036; stroke-width: 1.5;" width="82" x="475.5" y="3"/><text fill="#000000" font-family="sans-serif" font-size="14" lengthAdjust="spacingAndGlyphs" textLength="68" x="482.5" y="23.084">Collection</text><rect fill="#FEFECE" filter="url(#fdzf4rcvdp7ln)" height="30.4131" style="stroke: #A80036; stroke-width: 1.5;" width="82" x="475.5" y="496.7832"/><text fill="#000000" font-family="sans-serif" font-size="14" lengthAdjust="spacingAndGlyphs" textLength="68" x="482.5" y="516.8672">Collection</text><rect fill="#FEFECE" filter="url(#fdzf4rcvdp7ln)" height="30.4131" style="stroke: #A80036; stroke-width: 1.5;" width="44" x="630.5" y="3"/><text fill="#000000" font-family="sans-serif" font-size="14" lengthAdjust="spacingAndGlyphs" textLength="30" x="637.5" y="23.084">Wire</text><rect fill="#FEFECE" filter="url(#fdzf4rcvdp7ln)" height="30.4131" style="stroke: #A80036; stroke-width: 1.5;" width="44" x="630.5" y="496.7832"/><text fill="#000000" font-family="sans-serif" font-size="14" lengthAdjust="spacingAndGlyphs" textLength="30" x="637.5" y="516.8672">Wire</text><rect fill="#FEFECE" filter="url(#fdzf4rcvdp7ln)" height="30.4131" style="stroke: #A80036; stroke-width: 1.5;" width="60" x="688.5" y="3"/><text fill="#000000" font-family="sans-serif" font-size="14" lengthAdjust="spacingAndGlyphs" textLength="46" x="695.5" y="23.084">Cursor</text><rect fill="#FEFECE" filter="url(#fdzf4rcvdp7ln)" height="30.4131" style="stroke: #A80036; stroke-width: 1.5;" width="60" x="688.5" y="496.7832"/><text fill="#000000" font-family="sans-serif" font-size="14" lengthAdjust="spacingAndGlyphs" textLength="46" x="695.5" y="516.8672">Cursor</text><rect fill="#FFFFFF" filter="url(#fdzf4rcvdp7ln)" height="440.3701" style="stroke: #A80036; stroke-width: 1.0;" width="10" x="67.5" y="48.4131"/><rect fill="#FFFFFF" filter="url(#fdzf4rcvdp7ln)" height="419.1294" style="stroke: #A80036; stroke-width: 1.0;" width="10" x="242.5" y="69.6538"/><rect fill="#FFFFFF" filter="url(#fdzf4rcvdp7ln)" height="331.4072" style="stroke: #A80036; stroke-width: 1.0;" width="10" x="359.5" y="157.376"/><rect fill="#FFFFFF" filter="url(#fdzf4rcvdp7ln)" height="176.2036" style="stroke: #A80036; stroke-width: 1.0;" width="10" x="513.5" y="245.0981"/><rect fill="#FFFFFF" filter="url(#fdzf4rcvdp7ln)" height="29.2407" style="stroke: #A80036; stroke-width: 1.0;" width="10" x="649.5" y="332.8203"/><rect fill="#FFFFFF" filter="url(#fdzf4rcvdp7ln)" height="59.2407" style="stroke: #A80036; stroke-width: 1.0;" width="10" x="715.5" y="391.3018"/><polygon fill="#A80036" points="230.5,65.6538,240.5,69.6538,230.5,73.6538,234.5,69.6538" style="stroke: #A80036; stroke-width: 1.0;"/><line style="stroke: #A80036; stroke-width: 1.0;" x1="77.5" x2="236.5" y1="69.6538" y2="69.6538"/><text fill="#000000" font-family="sans-serif" font-size="13" lengthAdjust="spacingAndGlyphs" textLength="67" x="84.5" y="64.5625">.new(:$uri)</text><polygon fill="#A80036" points="88.5,94.8945,78.5,98.8945,88.5,102.8945,84.5,98.8945" style="stroke: #A80036; stroke-width: 1.0;"/><line style="stroke: #A80036; stroke-width: 1.0;" x1="82.5" x2="241.5" y1="98.8945" y2="98.8945"/><text fill="#000000" font-family="sans-serif" font-size="13" lengthAdjust="spacingAndGlyphs" textLength="18" x="94.5" y="93.8032">$cl</text><polygon fill="#A80036" points="230.5,124.1353,240.5,128.1353,230.5,132.1353,234.5,128.1353" style="stroke: #A80036; stroke-width: 1.0;"/><line style="stroke: #A80036; stroke-width: 1.0;" x1="77.5" x2="236.5" y1="128.1353" y2="128.1353"/><text fill="#000000" font-family="sans-serif" font-size="13" lengthAdjust="spacingAndGlyphs" textLength="141" x="84.5" y="123.0439">$cl.database(:$name)</text><polygon fill="#A80036" points="347.5,153.376,357.5,157.376,347.5,161.376,351.5,157.376" style="stroke: #A80036; stroke-width: 1.0;"/><line style="stroke: #A80036; stroke-width: 1.0;" x1="252.5" x2="353.5" y1="157.376" y2="157.376"/><text fill="#000000" font-family="sans-serif" font-size="13" lengthAdjust="spacingAndGlyphs" textLength="88" x="259.5" y="152.2847">.new(:$name)</text><polygon fill="#A80036" points="88.5,182.6167,78.5,186.6167,88.5,190.6167,84.5,186.6167" style="stroke: #A80036; stroke-width: 1.0;"/><line style="stroke: #A80036; stroke-width: 1.0;" x1="82.5" x2="358.5" y1="186.6167" y2="186.6167"/><text fill="#000000" font-family="sans-serif" font-size="13" lengthAdjust="spacingAndGlyphs" textLength="24" x="94.5" y="181.5254">$db</text><polygon fill="#A80036" points="347.5,211.8574,357.5,215.8574,347.5,219.8574,351.5,215.8574" style="stroke: #A80036; stroke-width: 1.0;"/><line style="stroke: #A80036; stroke-width: 1.0;" x1="77.5" x2="353.5" y1="215.8574" y2="215.8574"/><text fill="#000000" font-family="sans-serif" font-size="13" lengthAdjust="spacingAndGlyphs" textLength="186" x="84.5" y="210.7661">$db.run-command($request)</text><polygon fill="#A80036" points="501.5,241.0981,511.5,245.0981,501.5,249.0981,505.5,245.0981" style="stroke: #A80036; stroke-width: 1.0;"/><line style="stroke: #A80036; stroke-width: 1.0;" x1="369.5" x2="507.5" y1="245.0981" y2="245.0981"/><text fill="#000000" font-family="sans-serif" font-size="13" lengthAdjust="spacingAndGlyphs" textLength="88" x="376.5" y="240.0068">.new(:$name)</text><polygon fill="#A80036" points="380.5,270.3389,370.5,274.3389,380.5,278.3389,376.5,274.3389" style="stroke: #A80036; stroke-width: 1.0;"/><line style="stroke: #A80036; stroke-width: 1.0;" x1="374.5" x2="512.5" y1="274.3389" y2="274.3389"/><text fill="#000000" font-family="sans-serif" font-size="13" lengthAdjust="spacingAndGlyphs" textLength="26" x="386.5" y="269.2476">$col</text><polygon fill="#A80036" points="501.5,299.5796,511.5,303.5796,501.5,307.5796,505.5,303.5796" style="stroke: #A80036; stroke-width: 1.0;"/><line style="stroke: #A80036; stroke-width: 1.0;" x1="369.5" x2="507.5" y1="303.5796" y2="303.5796"/><text fill="#000000" font-family="sans-serif" font-size="13" lengthAdjust="spacingAndGlyphs" textLength="120" x="376.5" y="298.4883">$col.find($request)</text><polygon fill="#A80036" points="637.5,328.8203,647.5,332.8203,637.5,336.8203,641.5,332.8203" style="stroke: #A80036; stroke-width: 1.0;"/><line style="stroke: #A80036; stroke-width: 1.0;" x1="523.5" x2="643.5" y1="332.8203" y2="332.8203"/><text fill="#000000" font-family="sans-serif" font-size="13" lengthAdjust="spacingAndGlyphs" textLength="107" x="530.5" y="327.729">.query($request)</text><polygon fill="#A80036" points="534.5,358.061,524.5,362.061,534.5,366.061,530.5,362.061" style="stroke: #A80036; stroke-width: 1.0;"/><line style="stroke: #A80036; stroke-width: 1.0;" x1="528.5" x2="653.5" y1="362.061" y2="362.061"/><text fill="#000000" font-family="sans-serif" font-size="13" lengthAdjust="spacingAndGlyphs" textLength="44" x="540.5" y="356.9697">$result</text><polygon fill="#A80036" points="703.5,387.3018,713.5,391.3018,703.5,395.3018,707.5,391.3018" style="stroke: #A80036; stroke-width: 1.0;"/><line style="stroke: #A80036; stroke-width: 1.0;" x1="523.5" x2="709.5" y1="391.3018" y2="391.3018"/><text fill="#000000" font-family="sans-serif" font-size="13" lengthAdjust="spacingAndGlyphs" textLength="83" x="530.5" y="386.2104">.new($result)</text><polygon fill="#A80036" points="380.5,446.5425,370.5,450.5425,380.5,454.5425,376.5,450.5425" style="stroke: #A80036; stroke-width: 1.0;"/><line style="stroke: #A80036; stroke-width: 1.0;" x1="374.5" x2="719.5" y1="450.5425" y2="450.5425"/><text fill="#000000" font-family="sans-serif" font-size="13" lengthAdjust="spacingAndGlyphs" textLength="73" x="386.5" y="445.4512">$document</text><polygon fill="#A80036" points="88.5,475.7832,78.5,479.7832,88.5,483.7832,84.5,479.7832" style="stroke: #A80036; stroke-width: 1.0;"/><line style="stroke: #A80036; stroke-width: 1.0;" x1="82.5" x2="358.5" y1="479.7832" y2="479.7832"/><text fill="#000000" font-family="sans-serif" font-size="13" lengthAdjust="spacingAndGlyphs" textLength="73" x="94.5" y="474.6919">$document</text><!--
@startuml

skinparam sequence {
  LifeLineBackgroundColor #fff
}

participant "User Application" as Application
activate Application

participant Client
participant Database
participant Collection
participant Wire
participant Cursor

Application -> Client : .new(:$uri)
activate Client
Client -> Application : $cl
Application -> Client : $cl.database(:$name)
Client -> Database : .new(:$name)
activate Database
Database -> Application : $db
Application -> Database : $db.run-command($request)

Database -> Collection: .new(:$name)
activate Collection
Collection -> Database: $col
Database -> Collection: $col.find($request)

Collection -> Wire: .query($request)
activate Wire
Wire -> Collection: $result
deactivate Wire

Collection -> Cursor: .new($result)
activate Cursor
deactivate Collection

Cursor -> Database: $document
deactivate Cursor

Database -> Application: $document


@enduml

PlantUML version 1.2019.01(Sat Feb 09 16:32:04 CET 2019)
(LGPL source distribution)
Java Runtime: OpenJDK Runtime Environment
JVM: OpenJDK 64-Bit Server VM
Java Version: 1.8.0_265-b01
Operating System: Linux
OS Version: 5.8.15-101.fc31.x86_64
Default Encoding: UTF-8
Language: en
Country: null
--></g></svg>