<?xml version="1.0" encoding="UTF-8" standalone="no"?><svg xmlns="http://www.w3.org/2000/svg" xmlns:xlink="http://www.w3.org/1999/xlink" contentScriptType="application/ecmascript" contentStyleType="text/css" height="596.8px" preserveAspectRatio="none" style="width:559px;height:596px;" version="1.1" viewBox="0 0 559 596" width="559.2px" zoomAndPan="magnify"><defs><filter height="300%" id="f1c8ffc41sdok8" width="300%" x="-1" y="-1"><feGaussianBlur result="blurOut" stdDeviation="1.6"/><feColorMatrix in="blurOut" result="blurOut2" type="matrix" values="0 0 0 0 0 0 0 0 0 0 0 0 0 0 0 0 0 0 .4 0"/><feOffset dx="3.2" dy="3.2" in="blurOut2" result="blurOut3"/><feBlend in="SourceGraphic" in2="blurOut3" mode="normal"/></filter></defs><g><rect fill="#EFFFFF" height="587.3977" style="stroke: #A80036; stroke-width: 0.8;" width="53.6" x="500.8" y="4.8"/><text fill="#000000" font-family="sans-serif" font-size="10.4" font-weight="bold" lengthAdjust="spacingAndGlyphs" textLength="40" x="507.6" y="14.4535">Will be</text><text fill="#000000" font-family="sans-serif" font-size="10.4" font-weight="bold" lengthAdjust="spacingAndGlyphs" textLength="48.8" x="503.2" y="26.5598">detailed</text><text fill="#000000" font-family="sans-serif" font-size="10.4" font-weight="bold" lengthAdjust="spacingAndGlyphs" textLength="27.2" x="514" y="38.666">later</text><rect fill="#FFFFFF" filter="url(#f1c8ffc41sdok8)" height="23.3926" style="stroke: #A80036; stroke-width: 0.8;" width="8" x="115.2" y="97.6418"/><rect fill="#FFFFFF" filter="url(#f1c8ffc41sdok8)" height="83.1156" style="stroke: #A80036; stroke-width: 0.8;" width="8" x="115.2" y="144.427"/><rect fill="#FFFFFF" filter="url(#f1c8ffc41sdok8)" height="28.3305" style="stroke: #A80036; stroke-width: 0.8;" width="8" x="236" y="175.8195"/><rect fill="#FFFFFF" filter="url(#f1c8ffc41sdok8)" height="296.132" style="stroke: #A80036; stroke-width: 0.8;" width="8" x="236" y="250.9352"/><rect fill="#FFFFFF" filter="url(#f1c8ffc41sdok8)" height="28.3305" style="stroke: #A80036; stroke-width: 0.8;" width="8" x="357.6" y="282.3277"/><rect fill="#FFFFFF" filter="url(#f1c8ffc41sdok8)" height="142.8387" style="stroke: #A80036; stroke-width: 0.8;" width="8" x="357.6" y="334.0508"/><rect fill="#FFFFFF" filter="url(#f1c8ffc41sdok8)" height="28.3305" style="stroke: #A80036; stroke-width: 0.8;" width="8" x="466.4" y="425.1664"/><rect fill="#FFFFFF" filter="url(#f1c8ffc41sdok8)" height="23.3926" style="stroke: #A80036; stroke-width: 0.8;" width="8" x="466.4" y="500.282"/><rect fill="#FFFFFF" filter="url(#f1c8ffc41sdok8)" height="28.3305" style="stroke: #A80036; stroke-width: 0.8;" width="8" x="523.6" y="365.4434"/><line style="stroke: #A80036; stroke-width: 0.8; stroke-dasharray: 5.0,5.0;" x1="118.8" x2="118.8" y1="72.6492" y2="561.4672"/><line style="stroke: #A80036; stroke-width: 0.8; stroke-dasharray: 5.0,5.0;" x1="240" x2="240" y1="176.9922" y2="561.4672"/><line style="stroke: #A80036; stroke-width: 0.8; stroke-dasharray: 5.0,5.0;" x1="361.6" x2="361.6" y1="283.5004" y2="561.4672"/><line style="stroke: #A80036; stroke-width: 0.8; stroke-dasharray: 5.0,5.0;" x1="470.4" x2="470.4" y1="426.3391" y2="561.4672"/><line style="stroke: #A80036; stroke-width: 0.8; stroke-dasharray: 5.0,5.0;" x1="527.6" x2="527.6" y1="366.616" y2="561.4672"/><rect fill="#FEFECE" filter="url(#f1c8ffc41sdok8)" height="24.3305" style="stroke: #A80036; stroke-width: 1.2000000000000002;" width="42.4" x="96.4" y="44.3188"/><text fill="#000000" font-family="sans-serif" font-size="11.2" lengthAdjust="spacingAndGlyphs" textLength="31.2" x="102" y="60.3859">Client</text><rect fill="#FEFECE" filter="url(#f1c8ffc41sdok8)" height="24.3305" style="stroke: #A80036; stroke-width: 1.2000000000000002;" width="42.4" x="96.4" y="560.6672"/><text fill="#000000" font-family="sans-serif" font-size="11.2" lengthAdjust="spacingAndGlyphs" textLength="31.2" x="102" y="576.7344">Client</text><rect fill="#FEFECE" filter="url(#f1c8ffc41sdok8)" height="24.3305" style="stroke: #A80036; stroke-width: 1.2000000000000002;" width="64" x="206.4" y="560.6672"/><text fill="#000000" font-family="sans-serif" font-size="11.2" lengthAdjust="spacingAndGlyphs" textLength="52.8" x="212" y="576.7344">Database</text><rect fill="#FEFECE" filter="url(#f1c8ffc41sdok8)" height="24.3305" style="stroke: #A80036; stroke-width: 1.2000000000000002;" width="65.6" x="327.2" y="560.6672"/><text fill="#000000" font-family="sans-serif" font-size="11.2" lengthAdjust="spacingAndGlyphs" textLength="54.4" x="332.8" y="576.7344">Collection</text><rect fill="#FEFECE" filter="url(#f1c8ffc41sdok8)" height="24.3305" style="stroke: #A80036; stroke-width: 1.2000000000000002;" width="48" x="444.8" y="560.6672"/><text fill="#000000" font-family="sans-serif" font-size="11.2" lengthAdjust="spacingAndGlyphs" textLength="36.8" x="450.4" y="576.7344">Cursor</text><rect fill="#FEFECE" filter="url(#f1c8ffc41sdok8)" height="24.3305" style="stroke: #A80036; stroke-width: 1.2000000000000002;" width="35.2" x="508.4" y="560.6672"/><text fill="#000000" font-family="sans-serif" font-size="11.2" lengthAdjust="spacingAndGlyphs" textLength="24" x="514" y="576.7344">Wire</text><rect fill="#FFFFFF" filter="url(#f1c8ffc41sdok8)" height="23.3926" style="stroke: #A80036; stroke-width: 0.8;" width="8" x="115.2" y="97.6418"/><rect fill="#FFFFFF" filter="url(#f1c8ffc41sdok8)" height="83.1156" style="stroke: #A80036; stroke-width: 0.8;" width="8" x="115.2" y="144.427"/><rect fill="#FFFFFF" filter="url(#f1c8ffc41sdok8)" height="28.3305" style="stroke: #A80036; stroke-width: 0.8;" width="8" x="236" y="175.8195"/><rect fill="#FFFFFF" filter="url(#f1c8ffc41sdok8)" height="296.132" style="stroke: #A80036; stroke-width: 0.8;" width="8" x="236" y="250.9352"/><rect fill="#FFFFFF" filter="url(#f1c8ffc41sdok8)" height="28.3305" style="stroke: #A80036; stroke-width: 0.8;" width="8" x="357.6" y="282.3277"/><rect fill="#FFFFFF" filter="url(#f1c8ffc41sdok8)" height="142.8387" style="stroke: #A80036; stroke-width: 0.8;" width="8" x="357.6" y="334.0508"/><rect fill="#FFFFFF" filter="url(#f1c8ffc41sdok8)" height="28.3305" style="stroke: #A80036; stroke-width: 0.8;" width="8" x="466.4" y="425.1664"/><rect fill="#FFFFFF" filter="url(#f1c8ffc41sdok8)" height="23.3926" style="stroke: #A80036; stroke-width: 0.8;" width="8" x="466.4" y="500.282"/><rect fill="#FFFFFF" filter="url(#f1c8ffc41sdok8)" height="28.3305" style="stroke: #A80036; stroke-width: 0.8;" width="8" x="523.6" y="365.4434"/><polygon fill="#A80036" points="105.6,94.4418,113.6,97.6418,105.6,100.8418,108.8,97.6418" style="stroke: #A80036; stroke-width: 0.8;"/><line style="stroke: #A80036; stroke-width: 0.8;" x1="0" x2="110.4" y1="97.6418" y2="97.6418"/><text fill="#000000" font-family="sans-serif" font-size="10.4" lengthAdjust="spacingAndGlyphs" textLength="47.2" x="5.6" y="93.5688">.new(:uri)</text><polygon fill="#A80036" points="8.8,117.8344,0.8,121.0344,8.8,124.2344,5.6,121.0344" style="stroke: #A80036; stroke-width: 0.8;"/><line style="stroke: #A80036; stroke-width: 0.8; stroke-dasharray: 2.0,2.0;" x1="4" x2="118.4" y1="121.0344" y2="121.0344"/><text fill="#000000" font-family="sans-serif" font-size="10.4" lengthAdjust="spacingAndGlyphs" textLength="8" x="13.6" y="116.9613">cl</text><polygon fill="#A80036" points="105.6,141.227,113.6,144.427,105.6,147.627,108.8,144.427" style="stroke: #A80036; stroke-width: 0.8;"/><line style="stroke: #A80036; stroke-width: 0.8;" x1="0" x2="110.4" y1="144.427" y2="144.427"/><text fill="#000000" font-family="sans-serif" font-size="10.4" lengthAdjust="spacingAndGlyphs" textLength="100" x="5.6" y="140.3539">cl.database(:name)</text><polygon fill="#A80036" points="196.8,164.6195,204.8,167.8195,196.8,171.0195,200,167.8195" style="stroke: #A80036; stroke-width: 0.8;"/><line style="stroke: #A80036; stroke-width: 0.8;" x1="123.2" x2="201.6" y1="167.8195" y2="167.8195"/><text fill="#000000" font-family="sans-serif" font-size="10.4" lengthAdjust="spacingAndGlyphs" textLength="64" x="128.8" y="163.7465">.new(:name)</text><rect fill="#FEFECE" filter="url(#f1c8ffc41sdok8)" height="24.3305" style="stroke: #A80036; stroke-width: 1.2000000000000002;" width="64" x="206.4" y="150.827"/><text fill="#000000" font-family="sans-serif" font-size="11.2" lengthAdjust="spacingAndGlyphs" textLength="52.8" x="212" y="166.8941">Database</text><polygon fill="#A80036" points="132,200.95,124,204.15,132,207.35,128.8,204.15" style="stroke: #A80036; stroke-width: 0.8;"/><line style="stroke: #A80036; stroke-width: 0.8; stroke-dasharray: 2.0,2.0;" x1="127.2" x2="239.2" y1="204.15" y2="204.15"/><text fill="#000000" font-family="sans-serif" font-size="10.4" lengthAdjust="spacingAndGlyphs" textLength="12.8" x="136.8" y="200.077">db</text><polygon fill="#A80036" points="8.8,224.3426,0.8,227.5426,8.8,230.7426,5.6,227.5426" style="stroke: #A80036; stroke-width: 0.8;"/><line style="stroke: #A80036; stroke-width: 0.8; stroke-dasharray: 2.0,2.0;" x1="4" x2="118.4" y1="227.5426" y2="227.5426"/><text fill="#000000" font-family="sans-serif" font-size="10.4" lengthAdjust="spacingAndGlyphs" textLength="12.8" x="13.6" y="223.4695">db</text><polygon fill="#A80036" points="226.4,247.7352,234.4,250.9352,226.4,254.1352,229.6,250.9352" style="stroke: #A80036; stroke-width: 0.8;"/><line style="stroke: #A80036; stroke-width: 0.8;" x1="0" x2="231.2" y1="250.9352" y2="250.9352"/><text fill="#000000" font-family="sans-serif" font-size="10.4" lengthAdjust="spacingAndGlyphs" textLength="136" x="5.6" y="246.8621">db.run-command(request)</text><polygon fill="#A80036" points="317.6,271.1277,325.6,274.3277,317.6,277.5277,320.8,274.3277" style="stroke: #A80036; stroke-width: 0.8;"/><line style="stroke: #A80036; stroke-width: 0.8;" x1="244" x2="322.4" y1="274.3277" y2="274.3277"/><text fill="#000000" font-family="sans-serif" font-size="10.4" lengthAdjust="spacingAndGlyphs" textLength="64" x="249.6" y="270.2547">.new(:name)</text><rect fill="#FEFECE" filter="url(#f1c8ffc41sdok8)" height="24.3305" style="stroke: #A80036; stroke-width: 1.2000000000000002;" width="65.6" x="327.2" y="257.3352"/><text fill="#000000" font-family="sans-serif" font-size="11.2" lengthAdjust="spacingAndGlyphs" textLength="54.4" x="332.8" y="273.4023">Collection</text><polygon fill="#A80036" points="252.8,307.4582,244.8,310.6582,252.8,313.8582,249.6,310.6582" style="stroke: #A80036; stroke-width: 0.8;"/><line style="stroke: #A80036; stroke-width: 0.8; stroke-dasharray: 2.0,2.0;" x1="248" x2="360.8" y1="310.6582" y2="310.6582"/><text fill="#000000" font-family="sans-serif" font-size="10.4" lengthAdjust="spacingAndGlyphs" textLength="14.4" x="257.6" y="306.5852">col</text><polygon fill="#A80036" points="348,330.8508,356,334.0508,348,337.2508,351.2,334.0508" style="stroke: #A80036; stroke-width: 0.8;"/><line style="stroke: #A80036; stroke-width: 0.8;" x1="244" x2="352.8" y1="334.0508" y2="334.0508"/><text fill="#000000" font-family="sans-serif" font-size="10.4" lengthAdjust="spacingAndGlyphs" textLength="83.2" x="249.6" y="329.9777">col.find(request)</text><polygon fill="#A80036" points="498.8,354.2434,506.8,357.4434,498.8,360.6434,502,357.4434" style="stroke: #A80036; stroke-width: 0.8;"/><line style="stroke: #A80036; stroke-width: 0.8;" x1="365.6" x2="503.6" y1="357.4434" y2="357.4434"/><text fill="#000000" font-family="sans-serif" font-size="10.4" lengthAdjust="spacingAndGlyphs" textLength="79.2" x="371.2" y="353.3703">.query(request)</text><rect fill="#FEFECE" filter="url(#f1c8ffc41sdok8)" height="24.3305" style="stroke: #A80036; stroke-width: 1.2000000000000002;" width="35.2" x="508.4" y="340.4508"/><text fill="#000000" font-family="sans-serif" font-size="11.2" lengthAdjust="spacingAndGlyphs" textLength="24" x="514" y="356.518">Wire</text><polygon fill="#A80036" points="374.4,390.5738,366.4,393.7738,374.4,396.9738,371.2,393.7738" style="stroke: #A80036; stroke-width: 0.8;"/><line style="stroke: #A80036; stroke-width: 0.8; stroke-dasharray: 2.0,2.0;" x1="369.6" x2="526.8" y1="393.7738" y2="393.7738"/><text fill="#000000" font-family="sans-serif" font-size="10.4" lengthAdjust="spacingAndGlyphs" textLength="28.8" x="379.2" y="389.7008">result</text><line style="stroke: #A80036; stroke-width: 1.6;" x1="520.4" x2="534.8" y1="386.5738" y2="400.9738"/><line style="stroke: #A80036; stroke-width: 1.6;" x1="520.4" x2="534.8" y1="400.9738" y2="386.5738"/><polygon fill="#A80036" points="435.2,413.9664,443.2,417.1664,435.2,420.3664,438.4,417.1664" style="stroke: #A80036; stroke-width: 0.8;"/><line style="stroke: #A80036; stroke-width: 0.8;" x1="365.6" x2="440" y1="417.1664" y2="417.1664"/><text fill="#000000" font-family="sans-serif" font-size="10.4" lengthAdjust="spacingAndGlyphs" textLength="60" x="371.2" y="413.0934">.new(result)</text><rect fill="#FEFECE" filter="url(#f1c8ffc41sdok8)" height="24.3305" style="stroke: #A80036; stroke-width: 1.2000000000000002;" width="48" x="444.8" y="400.1738"/><text fill="#000000" font-family="sans-serif" font-size="11.2" lengthAdjust="spacingAndGlyphs" textLength="36.8" x="450.4" y="416.241">Cursor</text><polygon fill="#A80036" points="374.4,450.2969,366.4,453.4969,374.4,456.6969,371.2,453.4969" style="stroke: #A80036; stroke-width: 0.8;"/><line style="stroke: #A80036; stroke-width: 0.8; stroke-dasharray: 2.0,2.0;" x1="369.6" x2="469.6" y1="453.4969" y2="453.4969"/><text fill="#000000" font-family="sans-serif" font-size="10.4" lengthAdjust="spacingAndGlyphs" textLength="32" x="379.2" y="449.4238">cursor</text><polygon fill="#A80036" points="252.8,473.6895,244.8,476.8895,252.8,480.0895,249.6,476.8895" style="stroke: #A80036; stroke-width: 0.8;"/><line style="stroke: #A80036; stroke-width: 0.8; stroke-dasharray: 2.0,2.0;" x1="248" x2="360.8" y1="476.8895" y2="476.8895"/><text fill="#000000" font-family="sans-serif" font-size="10.4" lengthAdjust="spacingAndGlyphs" textLength="32" x="257.6" y="472.8164">cursor</text><polygon fill="#A80036" points="456.8,497.082,464.8,500.282,456.8,503.482,460,500.282" style="stroke: #A80036; stroke-width: 0.8;"/><line style="stroke: #A80036; stroke-width: 0.8;" x1="244" x2="461.6" y1="500.282" y2="500.282"/><text fill="#000000" font-family="sans-serif" font-size="10.4" lengthAdjust="spacingAndGlyphs" textLength="60.8" x="249.6" y="496.209">cursor.fetch</text><polygon fill="#A80036" points="252.8,520.4746,244.8,523.6746,252.8,526.8746,249.6,523.6746" style="stroke: #A80036; stroke-width: 0.8;"/><line style="stroke: #A80036; stroke-width: 0.8; stroke-dasharray: 2.0,2.0;" x1="248" x2="469.6" y1="523.6746" y2="523.6746"/><text fill="#000000" font-family="sans-serif" font-size="10.4" lengthAdjust="spacingAndGlyphs" textLength="52" x="257.6" y="519.6016">document</text><line style="stroke: #A80036; stroke-width: 1.6;" x1="463.2" x2="477.6" y1="516.4746" y2="530.8746"/><line style="stroke: #A80036; stroke-width: 1.6;" x1="463.2" x2="477.6" y1="530.8746" y2="516.4746"/><polygon fill="#A80036" points="8.8,543.8672,0.8,547.0672,8.8,550.2672,5.6,547.0672" style="stroke: #A80036; stroke-width: 0.8;"/><line style="stroke: #A80036; stroke-width: 0.8; stroke-dasharray: 2.0,2.0;" x1="4" x2="239.2" y1="547.0672" y2="547.0672"/><text fill="#000000" font-family="sans-serif" font-size="10.4" lengthAdjust="spacingAndGlyphs" textLength="52" x="13.6" y="542.9941">document</text><!--MD5=[6a3d9a8e80e2330ff35d3f84a6eb7edf]
@startuml
scale 0.8

skinparam sequence {
'  LifeLineBorderColor blue
  LifeLineBackgroundColor #fff
}

'box "never\nending" #efffff
'  participant Wire
'end box

'participant "User Application" as Application
'activate Application

participant Client
participant Database
participant Collection
participant Cursor
box "Will be\ndetailed\nlater" #efffff
  participant Wire
end box

-> Client ++: .new(:uri)
create Client
return cl


-> Client ++: cl.database(:name)
create Database
Client -> Database ++: .new(:name)
return db
return db

-> Database ++: db.run-command(request)
create Collection
Database -> Collection ++: .new(:name)
return col
Database -> Collection ++: col.find(request)

create Wire
Collection -> Wire ++: .query(request)
return result
destroy Wire

create Cursor
Collection -> Cursor ++: .new(result)
return cursor

return cursor

Database -> Cursor ++: cursor.fetch
return document

destroy Cursor
return document

@enduml

@startuml
scale 0.8

skinparam sequence {
  LifeLineBackgroundColor #fff
}



participant Client
participant Database
participant Collection
participant Cursor
box "Will be\ndetailed\nlater" #efffff
  participant Wire
end box

-> Client ++: .new(:uri)
create Client
return cl


-> Client ++: cl.database(:name)
create Database
Client -> Database ++: .new(:name)
return db
return db

-> Database ++: db.run-command(request)
create Collection
Database -> Collection ++: .new(:name)
return col
Database -> Collection ++: col.find(request)

create Wire
Collection -> Wire ++: .query(request)
return result
destroy Wire

create Cursor
Collection -> Cursor ++: .new(result)
return cursor

return cursor

Database -> Cursor ++: cursor.fetch
return document

destroy Cursor
return document

@enduml

PlantUML version 1.2020.19(Mon Oct 12 17:10:01 CEST 2020)
(GPL source distribution)
Java Runtime: OpenJDK Runtime Environment
JVM: OpenJDK 64-Bit Server VM
Default Encoding: UTF-8
Language: en
Country: null
--></g></svg>