<?xml version="1.0" encoding="UTF-8" standalone="no"?><svg xmlns="http://www.w3.org/2000/svg" xmlns:xlink="http://www.w3.org/1999/xlink" contentScriptType="application/ecmascript" contentStyleType="text/css" height="327px" preserveAspectRatio="none" style="width:647px;height:327px;" version="1.1" viewBox="0 0 647 327" width="647px" zoomAndPan="magnify"><defs><filter height="300%" id="f1ctac66on49qg" width="300%" x="-1" y="-1"><feGaussianBlur result="blurOut" stdDeviation="2.0"/><feColorMatrix in="blurOut" result="blurOut2" type="matrix" values="0 0 0 0 0 0 0 0 0 0 0 0 0 0 0 0 0 0 .4 0"/><feOffset dx="4.0" dy="4.0" in="blurOut2" result="blurOut3"/><feBlend in="SourceGraphic" in2="blurOut3" mode="normal"/></filter></defs><g><!--class Application--><rect fill="#FEFECE" filter="url(#f1ctac66on49qg)" height="32" id="Application" style="stroke: #A80036; stroke-width: 1.5;" width="134" x="139.5" y="8"/><ellipse cx="154.5" cy="24" fill="#80FFFF" rx="11" ry="11" style="stroke: #A80036; stroke-width: 1.0;"/><path d="M157.4688,29.6406 Q156.8906,29.9375 156.25,30.0781 Q155.6094,30.2344 154.9063,30.2344 Q152.4063,30.2344 151.0781,28.5938 Q149.7656,26.9375 149.7656,23.8125 Q149.7656,20.6875 151.0781,19.0313 Q152.4063,17.375 154.9063,17.375 Q155.6094,17.375 156.25,17.5313 Q156.9063,17.6875 157.4688,17.9844 L157.4688,20.7031 Q156.8438,20.125 156.25,19.8594 Q155.6563,19.5781 155.0313,19.5781 Q153.6875,19.5781 153,20.6563 Q152.3125,21.7188 152.3125,23.8125 Q152.3125,25.9063 153,26.9844 Q153.6875,28.0469 155.0313,28.0469 Q155.6563,28.0469 156.25,27.7813 Q156.8438,27.5 157.4688,26.9219 L157.4688,29.6406 Z "/><text fill="#000000" font-family="sans-serif" font-size="12" lengthAdjust="spacingAndGlyphs" textLength="102" x="168.5" y="28.1807">User Application</text><!--class Monitor--><rect fill="#FEFECE" filter="url(#f1ctac66on49qg)" height="32" id="Monitor" style="stroke: #A80036; stroke-width: 1.5;" width="142" x="405.5" y="192"/><ellipse cx="420.5" cy="208" fill="#80FFFF" rx="11" ry="11" style="stroke: #A80036; stroke-width: 1.0;"/><path d="M423.4688,213.6406 Q422.8906,213.9375 422.25,214.0781 Q421.6094,214.2344 420.9063,214.2344 Q418.4063,214.2344 417.0781,212.5938 Q415.7656,210.9375 415.7656,207.8125 Q415.7656,204.6875 417.0781,203.0313 Q418.4063,201.375 420.9063,201.375 Q421.6094,201.375 422.25,201.5313 Q422.9063,201.6875 423.4688,201.9844 L423.4688,204.7031 Q422.8438,204.125 422.25,203.8594 Q421.6563,203.5781 421.0313,203.5781 Q419.6875,203.5781 419,204.6563 Q418.3125,205.7188 418.3125,207.8125 Q418.3125,209.9063 419,210.9844 Q419.6875,212.0469 421.0313,212.0469 Q421.6563,212.0469 422.25,211.7813 Q422.8438,211.5 423.4688,210.9219 L423.4688,213.6406 Z "/><text fill="#000000" font-family="sans-serif" font-size="12" lengthAdjust="spacingAndGlyphs" textLength="47" x="434.5" y="212.1807">Monitor</text><rect fill="#FFFFFF" height="15.9688" style="stroke: #000000; stroke-width: 1.0; stroke-dasharray: 2.0,2.0;" width="61" x="489.5" y="189"/><text fill="#000000" font-family="sans-serif" font-size="12" font-style="italic" lengthAdjust="spacingAndGlyphs" textLength="59" x="490.5" y="201.1387">Singleton</text><!--class ServerPool--><rect fill="#FEFECE" filter="url(#f1ctac66on49qg)" height="32" id="ServerPool" style="stroke: #A80036; stroke-width: 1.5;" width="162" x="208.5" y="192"/><ellipse cx="223.5" cy="208" fill="#80FFFF" rx="11" ry="11" style="stroke: #A80036; stroke-width: 1.0;"/><path d="M226.4688,213.6406 Q225.8906,213.9375 225.25,214.0781 Q224.6094,214.2344 223.9063,214.2344 Q221.4063,214.2344 220.0781,212.5938 Q218.7656,210.9375 218.7656,207.8125 Q218.7656,204.6875 220.0781,203.0313 Q221.4063,201.375 223.9063,201.375 Q224.6094,201.375 225.25,201.5313 Q225.9063,201.6875 226.4688,201.9844 L226.4688,204.7031 Q225.8438,204.125 225.25,203.8594 Q224.6563,203.5781 224.0313,203.5781 Q222.6875,203.5781 222,204.6563 Q221.3125,205.7188 221.3125,207.8125 Q221.3125,209.9063 222,210.9844 Q222.6875,212.0469 224.0313,212.0469 Q224.6563,212.0469 225.25,211.7813 Q225.8438,211.5 226.4688,210.9219 L226.4688,213.6406 Z "/><text fill="#000000" font-family="sans-serif" font-size="12" lengthAdjust="spacingAndGlyphs" textLength="67" x="237.5" y="212.1807">ServerPool</text><rect fill="#FFFFFF" height="15.9688" style="stroke: #000000; stroke-width: 1.0; stroke-dasharray: 2.0,2.0;" width="61" x="312.5" y="189"/><text fill="#000000" font-family="sans-serif" font-size="12" font-style="italic" lengthAdjust="spacingAndGlyphs" textLength="59" x="313.5" y="201.1387">Singleton</text><!--class SocketPool--><rect fill="#FEFECE" filter="url(#f1ctac66on49qg)" height="32" id="SocketPool" style="stroke: #A80036; stroke-width: 1.5;" width="165" x="361" y="284"/><ellipse cx="376" cy="300" fill="#80FFFF" rx="11" ry="11" style="stroke: #A80036; stroke-width: 1.0;"/><path d="M378.9688,305.6406 Q378.3906,305.9375 377.75,306.0781 Q377.1094,306.2344 376.4063,306.2344 Q373.9063,306.2344 372.5781,304.5938 Q371.2656,302.9375 371.2656,299.8125 Q371.2656,296.6875 372.5781,295.0313 Q373.9063,293.375 376.4063,293.375 Q377.1094,293.375 377.75,293.5313 Q378.4063,293.6875 378.9688,293.9844 L378.9688,296.7031 Q378.3438,296.125 377.75,295.8594 Q377.1563,295.5781 376.5313,295.5781 Q375.1875,295.5781 374.5,296.6563 Q373.8125,297.7188 373.8125,299.8125 Q373.8125,301.9063 374.5,302.9844 Q375.1875,304.0469 376.5313,304.0469 Q377.1563,304.0469 377.75,303.7813 Q378.3438,303.5 378.9688,302.9219 L378.9688,305.6406 Z "/><text fill="#000000" font-family="sans-serif" font-size="12" lengthAdjust="spacingAndGlyphs" textLength="70" x="390" y="304.1807">SocketPool</text><rect fill="#FFFFFF" height="15.9688" style="stroke: #000000; stroke-width: 1.0; stroke-dasharray: 2.0,2.0;" width="61" x="468" y="281"/><text fill="#000000" font-family="sans-serif" font-size="12" font-style="italic" lengthAdjust="spacingAndGlyphs" textLength="59" x="469" y="293.1387">Singleton</text><!--class Client--><rect fill="#FEFECE" filter="url(#f1ctac66on49qg)" height="32" id="Client" style="stroke: #A80036; stroke-width: 1.5;" width="67" x="352" y="100"/><ellipse cx="367" cy="116" fill="#80FFFF" rx="11" ry="11" style="stroke: #A80036; stroke-width: 1.0;"/><path d="M369.9688,121.6406 Q369.3906,121.9375 368.75,122.0781 Q368.1094,122.2344 367.4063,122.2344 Q364.9063,122.2344 363.5781,120.5938 Q362.2656,118.9375 362.2656,115.8125 Q362.2656,112.6875 363.5781,111.0313 Q364.9063,109.375 367.4063,109.375 Q368.1094,109.375 368.75,109.5313 Q369.4063,109.6875 369.9688,109.9844 L369.9688,112.7031 Q369.3438,112.125 368.75,111.8594 Q368.1563,111.5781 367.5313,111.5781 Q366.1875,111.5781 365.5,112.6563 Q364.8125,113.7188 364.8125,115.8125 Q364.8125,117.9063 365.5,118.9844 Q366.1875,120.0469 367.5313,120.0469 Q368.1563,120.0469 368.75,119.7813 Q369.3438,119.5 369.9688,118.9219 L369.9688,121.6406 Z "/><text fill="#000000" font-family="sans-serif" font-size="12" lengthAdjust="spacingAndGlyphs" textLength="35" x="381" y="120.1807">Client</text><!--class Database--><rect fill="#FEFECE" filter="url(#f1ctac66on49qg)" height="32" id="Database" style="stroke: #A80036; stroke-width: 1.5;" width="93" x="224" y="100"/><ellipse cx="239" cy="116" fill="#80FFFF" rx="11" ry="11" style="stroke: #A80036; stroke-width: 1.0;"/><path d="M241.9688,121.6406 Q241.3906,121.9375 240.75,122.0781 Q240.1094,122.2344 239.4063,122.2344 Q236.9063,122.2344 235.5781,120.5938 Q234.2656,118.9375 234.2656,115.8125 Q234.2656,112.6875 235.5781,111.0313 Q236.9063,109.375 239.4063,109.375 Q240.1094,109.375 240.75,109.5313 Q241.4063,109.6875 241.9688,109.9844 L241.9688,112.7031 Q241.3438,112.125 240.75,111.8594 Q240.1563,111.5781 239.5313,111.5781 Q238.1875,111.5781 237.5,112.6563 Q236.8125,113.7188 236.8125,115.8125 Q236.8125,117.9063 237.5,118.9844 Q238.1875,120.0469 239.5313,120.0469 Q240.1563,120.0469 240.75,119.7813 Q241.3438,119.5 241.9688,118.9219 L241.9688,121.6406 Z "/><text fill="#000000" font-family="sans-serif" font-size="12" lengthAdjust="spacingAndGlyphs" textLength="61" x="253" y="120.1807">Database</text><!--class Collection--><rect fill="#FEFECE" filter="url(#f1ctac66on49qg)" height="32" id="Collection" style="stroke: #A80036; stroke-width: 1.5;" width="93" x="96" y="100"/><ellipse cx="111" cy="116" fill="#80FFFF" rx="11" ry="11" style="stroke: #A80036; stroke-width: 1.0;"/><path d="M113.9688,121.6406 Q113.3906,121.9375 112.75,122.0781 Q112.1094,122.2344 111.4063,122.2344 Q108.9063,122.2344 107.5781,120.5938 Q106.2656,118.9375 106.2656,115.8125 Q106.2656,112.6875 107.5781,111.0313 Q108.9063,109.375 111.4063,109.375 Q112.1094,109.375 112.75,109.5313 Q113.4063,109.6875 113.9688,109.9844 L113.9688,112.7031 Q113.3438,112.125 112.75,111.8594 Q112.1563,111.5781 111.5313,111.5781 Q110.1875,111.5781 109.5,112.6563 Q108.8125,113.7188 108.8125,115.8125 Q108.8125,117.9063 109.5,118.9844 Q110.1875,120.0469 111.5313,120.0469 Q112.1563,120.0469 112.75,119.7813 Q113.3438,119.5 113.9688,118.9219 L113.9688,121.6406 Z "/><text fill="#000000" font-family="sans-serif" font-size="12" lengthAdjust="spacingAndGlyphs" textLength="61" x="125" y="120.1807">Collection</text><!--class Server--><rect fill="#FEFECE" filter="url(#f1ctac66on49qg)" height="32" id="Server" style="stroke: #A80036; stroke-width: 1.5;" width="72" x="253.5" y="284"/><ellipse cx="268.5" cy="300" fill="#80FFFF" rx="11" ry="11" style="stroke: #A80036; stroke-width: 1.0;"/><path d="M271.4688,305.6406 Q270.8906,305.9375 270.25,306.0781 Q269.6094,306.2344 268.9063,306.2344 Q266.4063,306.2344 265.0781,304.5938 Q263.7656,302.9375 263.7656,299.8125 Q263.7656,296.6875 265.0781,295.0313 Q266.4063,293.375 268.9063,293.375 Q269.6094,293.375 270.25,293.5313 Q270.9063,293.6875 271.4688,293.9844 L271.4688,296.7031 Q270.8438,296.125 270.25,295.8594 Q269.6563,295.5781 269.0313,295.5781 Q267.6875,295.5781 267,296.6563 Q266.3125,297.7188 266.3125,299.8125 Q266.3125,301.9063 267,302.9844 Q267.6875,304.0469 269.0313,304.0469 Q269.6563,304.0469 270.25,303.7813 Q270.8438,303.5 271.4688,302.9219 L271.4688,305.6406 Z "/><text fill="#000000" font-family="sans-serif" font-size="12" lengthAdjust="spacingAndGlyphs" textLength="40" x="282.5" y="304.1807">Server</text><!--class Socket--><rect fill="#FEFECE" filter="url(#f1ctac66on49qg)" height="32" id="Socket" style="stroke: #A80036; stroke-width: 1.5;" width="75" x="561" y="284"/><ellipse cx="576" cy="300" fill="#80FFFF" rx="11" ry="11" style="stroke: #A80036; stroke-width: 1.0;"/><path d="M578.9688,305.6406 Q578.3906,305.9375 577.75,306.0781 Q577.1094,306.2344 576.4063,306.2344 Q573.9063,306.2344 572.5781,304.5938 Q571.2656,302.9375 571.2656,299.8125 Q571.2656,296.6875 572.5781,295.0313 Q573.9063,293.375 576.4063,293.375 Q577.1094,293.375 577.75,293.5313 Q578.4063,293.6875 578.9688,293.9844 L578.9688,296.7031 Q578.3438,296.125 577.75,295.8594 Q577.1563,295.5781 576.5313,295.5781 Q575.1875,295.5781 574.5,296.6563 Q573.8125,297.7188 573.8125,299.8125 Q573.8125,301.9063 574.5,302.9844 Q575.1875,304.0469 576.5313,304.0469 Q577.1563,304.0469 577.75,303.7813 Q578.3438,303.5 578.9688,302.9219 L578.9688,305.6406 Z "/><text fill="#000000" font-family="sans-serif" font-size="12" lengthAdjust="spacingAndGlyphs" textLength="43" x="590" y="304.1807">Socket</text><!--class Wire--><rect fill="#FEFECE" filter="url(#f1ctac66on49qg)" height="32" id="Wire" style="stroke: #A80036; stroke-width: 1.5;" width="59" x="114" y="192"/><ellipse cx="129" cy="208" fill="#80FFFF" rx="11" ry="11" style="stroke: #A80036; stroke-width: 1.0;"/><path d="M131.9688,213.6406 Q131.3906,213.9375 130.75,214.0781 Q130.1094,214.2344 129.4063,214.2344 Q126.9063,214.2344 125.5781,212.5938 Q124.2656,210.9375 124.2656,207.8125 Q124.2656,204.6875 125.5781,203.0313 Q126.9063,201.375 129.4063,201.375 Q130.1094,201.375 130.75,201.5313 Q131.4063,201.6875 131.9688,201.9844 L131.9688,204.7031 Q131.3438,204.125 130.75,203.8594 Q130.1563,203.5781 129.5313,203.5781 Q128.1875,203.5781 127.5,204.6563 Q126.8125,205.7188 126.8125,207.8125 Q126.8125,209.9063 127.5,210.9844 Q128.1875,212.0469 129.5313,212.0469 Q130.1563,212.0469 130.75,211.7813 Q131.3438,211.5 131.9688,210.9219 L131.9688,213.6406 Z "/><text fill="#000000" font-family="sans-serif" font-size="12" lengthAdjust="spacingAndGlyphs" textLength="27" x="143" y="212.1807">Wire</text><!--class Cursor--><rect fill="#FEFECE" filter="url(#f1ctac66on49qg)" height="32" id="Cursor" style="stroke: #A80036; stroke-width: 1.5;" width="73" x="6" y="192"/><ellipse cx="21" cy="208" fill="#80FFFF" rx="11" ry="11" style="stroke: #A80036; stroke-width: 1.0;"/><path d="M23.9688,213.6406 Q23.3906,213.9375 22.75,214.0781 Q22.1094,214.2344 21.4063,214.2344 Q18.9063,214.2344 17.5781,212.5938 Q16.2656,210.9375 16.2656,207.8125 Q16.2656,204.6875 17.5781,203.0313 Q18.9063,201.375 21.4063,201.375 Q22.1094,201.375 22.75,201.5313 Q23.4063,201.6875 23.9688,201.9844 L23.9688,204.7031 Q23.3438,204.125 22.75,203.8594 Q22.1563,203.5781 21.5313,203.5781 Q20.1875,203.5781 19.5,204.6563 Q18.8125,205.7188 18.8125,207.8125 Q18.8125,209.9063 19.5,210.9844 Q20.1875,212.0469 21.5313,212.0469 Q22.1563,212.0469 22.75,211.7813 Q23.3438,211.5 23.9688,210.9219 L23.9688,213.6406 Z "/><text fill="#000000" font-family="sans-serif" font-size="12" lengthAdjust="spacingAndGlyphs" textLength="41" x="35" y="212.1807">Cursor</text><!--link Application to Client--><path d="M249.4297,46.0644 C277.4997,60.4915 314.0414,79.2727 342.1879,93.739 " fill="none" id="Application-Client" style="stroke: #A80036; stroke-width: 1.0;"/><polygon fill="#A80036" points="354.0773,99.8498,347.9012,92.178,349.6303,97.5642,344.2442,99.2932,354.0773,99.8498" style="stroke: #A80036; stroke-width: 1.0;"/><line style="stroke: #A80036; stroke-width: 1.0;" x1="349.6303" x2="342.5151" y1="97.5642" y2="93.9071"/><polygon fill="#A80036" points="237.6794,40.0252,241.1873,46.3256,248.3522,45.5107,244.8443,39.2104,237.6794,40.0252" style="stroke: #A80036; stroke-width: 1.0;"/><!--link Application to Database--><path d="M225.142,50.7979 C233.5196,62.8406 243.3858,77.0233 251.7733,89.0804 " fill="none" id="Application-Database" style="stroke: #A80036; stroke-width: 1.0;"/><polygon fill="#A80036" points="259.2651,99.8498,257.409,90.1774,256.4097,95.7453,250.8418,94.746,259.2651,99.8498" style="stroke: #A80036; stroke-width: 1.0;"/><line style="stroke: #A80036; stroke-width: 1.0;" x1="256.4097" x2="251.8412" y1="95.7453" y2="89.178"/><polygon fill="#A80036" points="217.6479,40.0252,217.7906,47.2349,224.5006,49.8761,224.3579,42.6664,217.6479,40.0252" style="stroke: #A80036; stroke-width: 1.0;"/><!--link Application to Collection--><path d="M187.858,50.7979 C179.4804,62.8406 169.6142,77.0233 161.2267,89.0804 " fill="none" id="Application-Collection" style="stroke: #A80036; stroke-width: 1.0;"/><polygon fill="#A80036" points="153.7349,99.8498,162.1582,94.746,156.5903,95.7453,155.591,90.1774,153.7349,99.8498" style="stroke: #A80036; stroke-width: 1.0;"/><line style="stroke: #A80036; stroke-width: 1.0;" x1="156.5903" x2="161.1588" y1="95.7453" y2="89.178"/><polygon fill="#A80036" points="195.3521,40.0252,188.6421,42.6664,188.4994,49.8761,195.2094,47.2349,195.3521,40.0252" style="stroke: #A80036; stroke-width: 1.0;"/><!--link Client to Monitor--><path d="M401.351,132.0252 C416.7844,147.6281 440.2787,171.3807 456.8827,188.1672 " fill="none" id="Client-Monitor" style="stroke: #A80036; stroke-width: 1.0;"/><polygon fill="#A80036" points="460.5253,191.8498,457.0401,182.6382,457.0092,188.295,451.3524,188.264,460.5253,191.8498" style="stroke: #A80036; stroke-width: 1.0;"/><!--link Client to ServerPool--><path d="M368.7781,132.0252 C352.4967,147.6281 327.7115,171.3807 310.1951,188.1672 " fill="none" id="Client-ServerPool" style="stroke: #A80036; stroke-width: 1.0;"/><polygon fill="#A80036" points="306.3524,191.8498,315.6179,188.5106,309.9623,188.3903,310.0827,182.7347,306.3524,191.8498" style="stroke: #A80036; stroke-width: 1.0;"/><!--link ServerPool to Server--><path d="M289.5,237.1374 C289.5,247.8746 289.5,260.0344 289.5,270.779 " fill="none" id="ServerPool-Server" style="stroke: #A80036; stroke-width: 1.0;"/><polygon fill="#A80036" points="289.5,283.8498,293.5,274.8498,289.5,278.8498,285.5,274.8498,289.5,283.8498" style="stroke: #A80036; stroke-width: 1.0;"/><line style="stroke: #A80036; stroke-width: 1.0;" x1="289.5" x2="289.5001" y1="278.8498" y2="270.8498"/><polygon fill="#A80036" points="289.5,224.0252,285.5,230.0252,289.5,236.0252,293.5,230.0252,289.5,224.0252" style="stroke: #A80036; stroke-width: 1.0;"/><text fill="#000000" font-family="sans-serif" font-size="13" lengthAdjust="spacingAndGlyphs" textLength="7" x="281.2969" y="272.9108">*</text><!--link Server to SocketPool--><path d="M325.5938,300 C335.5296,300 345.4655,300 355.4013,300 " fill="none" id="Server-SocketPool" style="stroke: #A80036; stroke-width: 1.0;"/><polygon fill="#A80036" points="360.5972,300,351.5972,296,355.5972,300,351.5972,304,360.5972,300" style="stroke: #A80036; stroke-width: 1.0;"/><!--link SocketPool to Socket--><path d="M539.1828,300 C542.0119,300 544.841,300 547.67,300 " fill="none" id="SocketPool-Socket" style="stroke: #A80036; stroke-width: 1.0;"/><polygon fill="#A80036" points="560.9101,300,551.9101,296,555.9101,300,551.9101,304,560.9101,300" style="stroke: #A80036; stroke-width: 1.0;"/><line style="stroke: #A80036; stroke-width: 1.0;" x1="555.9101" x2="547.9101" y1="300" y2="299.9999"/><polygon fill="#A80036" points="526.1465,300,532.1465,304,538.1465,300,532.1465,296,526.1465,300" style="stroke: #A80036; stroke-width: 1.0;"/><text fill="#000000" font-family="sans-serif" font-size="13" lengthAdjust="spacingAndGlyphs" textLength="7" x="546.0773" y="295.7427">*</text><!--link Collection to Database--><path d="M189.5,116 C196.5952,116 203.6905,116 210.7857,116 " fill="none" id="Collection-Database" style="stroke: #A80036; stroke-width: 1.0;"/><polygon fill="#A80036" points="223.9883,116,217.9883,112,211.9883,116,217.9883,120,223.9883,116" style="stroke: #A80036; stroke-width: 1.0;"/><!--link Collection to Wire--><path d="M142.6742,132.0252 C142.8381,147.1037 143.0847,169.7931 143.2658,186.4514 " fill="none" id="Collection-Wire" style="stroke: #A80036; stroke-width: 1.0;"/><polygon fill="#A80036" points="143.3245,191.8498,147.2263,182.8068,143.2701,186.8501,139.2268,182.8939,143.3245,191.8498" style="stroke: #A80036; stroke-width: 1.0;"/><!--link Collection to Cursor--><path d="M115.3653,140.9639 C97.7647,157.1564 75.3465,177.7812 60.0546,191.8498 " fill="none" id="Collection-Cursor" style="stroke: #A80036; stroke-width: 1.0;"/><polygon fill="#A80036" points="125.0813,132.0252,117.9575,133.1438,116.2501,140.1498,123.3739,139.0313,125.0813,132.0252" style="stroke: #A80036; stroke-width: 1.0;"/><!--link Application to Cursor--><path d="M163.6417,40.1285 C135.8144,52.6051 100.7184,72.4326 78.5,100 C57.9758,125.4654 48.9432,163.1372 45.1216,186.5933 " fill="none" id="Application-Cursor" style="stroke: #A80036; stroke-width: 1.0;"/><polygon fill="#A80036" points="44.3412,191.6599,49.6649,183.3739,45.1025,186.7182,41.7581,182.1558,44.3412,191.6599" style="stroke: #A80036; stroke-width: 1.0;"/><!--link Cursor to Wire--><path d="M79.1914,208 C89.0316,208 98.8718,208 108.712,208 " fill="none" id="Cursor-Wire" style="stroke: #A80036; stroke-width: 1.0;"/><polygon fill="#A80036" points="113.8578,208,104.8578,204,108.8578,208,104.8578,212,113.8578,208" style="stroke: #A80036; stroke-width: 1.0;"/><!--link Wire to ServerPool--><path d="M173.1563,208 C183.0894,208 193.0226,208 202.9558,208 " fill="none" id="Wire-ServerPool" style="stroke: #A80036; stroke-width: 1.0;"/><polygon fill="#A80036" points="208.1503,208,199.1503,204,203.1503,208,199.1503,212,208.1503,208" style="stroke: #A80036; stroke-width: 1.0;"/><!--link ServerPool to Monitor--><path d="M375.7409,208 C385.606,208 395.4712,208 405.3364,208 " fill="none" id="ServerPool-Monitor" style="stroke: #A80036; stroke-width: 1.0;"/><polygon fill="#A80036" points="370.582,208,379.582,212,375.582,208,379.582,204,370.582,208" style="stroke: #A80036; stroke-width: 1.0;"/><!--
@startuml

skinparam packageStyle rectangle
skinparam stereotypeCBackgroundColor #80ffff
hide members

class "User Application" as Application
class Monitor<Singleton>
class ServerPool<Singleton>
class SocketPool<Singleton>

Application *- -> Client
Application *- -> Database
Application *- -> Collection

Client - -> Monitor
Client - -> ServerPool
ServerPool *- -> "*" Server
Server -> SocketPool
SocketPool *-> "*" Socket
Collection -* Database
Collection -> Wire
Collection *- - Cursor
Application - -> Cursor

Cursor -> Wire
Wire -> ServerPool
ServerPool <- Monitor

@enduml

PlantUML version 1.2019.01(Sat Feb 09 16:32:04 CET 2019)
(LGPL source distribution)
Java Runtime: OpenJDK Runtime Environment
JVM: OpenJDK 64-Bit Server VM
Java Version: 1.8.0_265-b01
Operating System: Linux
OS Version: 5.8.15-101.fc31.x86_64
Default Encoding: UTF-8
Language: en
Country: null
--></g></svg>