<?xml version="1.0" encoding="UTF-8" standalone="no"?><svg xmlns="http://www.w3.org/2000/svg" xmlns:xlink="http://www.w3.org/1999/xlink" contentScriptType="application/ecmascript" contentStyleType="text/css" height="419px" preserveAspectRatio="none" style="width:713px;height:419px;" version="1.1" viewBox="0 0 713 419" width="713px" zoomAndPan="magnify"><defs><filter height="300%" id="ftih2naa66udu" width="300%" x="-1" y="-1"><feGaussianBlur result="blurOut" stdDeviation="2.0"/><feColorMatrix in="blurOut" result="blurOut2" type="matrix" values="0 0 0 0 0 0 0 0 0 0 0 0 0 0 0 0 0 0 .4 0"/><feOffset dx="4.0" dy="4.0" in="blurOut2" result="blurOut3"/><feBlend in="SourceGraphic" in2="blurOut3" mode="normal"/></filter></defs><g><!--class Application--><rect fill="#FEFECE" filter="url(#ftih2naa66udu)" height="32" id="Application" style="stroke: #A80036; stroke-width: 1.5;" width="134" x="80.8334" y="8"/><ellipse cx="95.8334" cy="24" fill="#80FFFF" rx="11" ry="11" style="stroke: #A80036; stroke-width: 1.0;"/><path d="M98.8022,29.6406 Q98.224,29.9375 97.5834,30.0781 Q96.9428,30.2344 96.2397,30.2344 Q93.7397,30.2344 92.4115,28.5938 Q91.099,26.9375 91.099,23.8125 Q91.099,20.6875 92.4115,19.0313 Q93.7397,17.375 96.2397,17.375 Q96.9428,17.375 97.5834,17.5313 Q98.2397,17.6875 98.8022,17.9844 L98.8022,20.7031 Q98.1772,20.125 97.5834,19.8594 Q96.9897,19.5781 96.3647,19.5781 Q95.0209,19.5781 94.3334,20.6563 Q93.6459,21.7188 93.6459,23.8125 Q93.6459,25.9063 94.3334,26.9844 Q95.0209,28.0469 96.3647,28.0469 Q96.9897,28.0469 97.5834,27.7813 Q98.1772,27.5 98.8022,26.9219 L98.8022,29.6406 Z "/><text fill="#000000" font-family="sans-serif" font-size="12" lengthAdjust="spacingAndGlyphs" textLength="102" x="109.8334" y="28.1807">User Application</text><!--class Monitor--><rect fill="#FEFECE" filter="url(#ftih2naa66udu)" height="32" id="Monitor" style="stroke: #A80036; stroke-width: 1.5;" width="142" x="178.8334" y="192"/><ellipse cx="193.8334" cy="208" fill="#80FFFF" rx="11" ry="11" style="stroke: #A80036; stroke-width: 1.0;"/><path d="M196.8022,213.6406 Q196.224,213.9375 195.5834,214.0781 Q194.9428,214.2344 194.2397,214.2344 Q191.7397,214.2344 190.4115,212.5938 Q189.099,210.9375 189.099,207.8125 Q189.099,204.6875 190.4115,203.0313 Q191.7397,201.375 194.2397,201.375 Q194.9428,201.375 195.5834,201.5313 Q196.2397,201.6875 196.8022,201.9844 L196.8022,204.7031 Q196.1772,204.125 195.5834,203.8594 Q194.9897,203.5781 194.3647,203.5781 Q193.0209,203.5781 192.3334,204.6563 Q191.6459,205.7188 191.6459,207.8125 Q191.6459,209.9063 192.3334,210.9844 Q193.0209,212.0469 194.3647,212.0469 Q194.9897,212.0469 195.5834,211.7813 Q196.1772,211.5 196.8022,210.9219 L196.8022,213.6406 Z "/><text fill="#000000" font-family="sans-serif" font-size="12" lengthAdjust="spacingAndGlyphs" textLength="47" x="207.8334" y="212.1807">Monitor</text><rect fill="#FFFFFF" height="15.9688" style="stroke: #000000; stroke-width: 1.0; stroke-dasharray: 2.0,2.0;" width="61" x="262.8334" y="189"/><text fill="#000000" font-family="sans-serif" font-size="12" font-style="italic" lengthAdjust="spacingAndGlyphs" textLength="59" x="263.8334" y="201.1387">Singleton</text><!--class ServerPool--><rect fill="#FEFECE" filter="url(#ftih2naa66udu)" height="32" id="ServerPool" style="stroke: #A80036; stroke-width: 1.5;" width="162" x="274.8334" y="284"/><ellipse cx="289.8334" cy="300" fill="#80FFFF" rx="11" ry="11" style="stroke: #A80036; stroke-width: 1.0;"/><path d="M292.8022,305.6406 Q292.224,305.9375 291.5834,306.0781 Q290.9428,306.2344 290.2397,306.2344 Q287.7397,306.2344 286.4115,304.5938 Q285.099,302.9375 285.099,299.8125 Q285.099,296.6875 286.4115,295.0313 Q287.7397,293.375 290.2397,293.375 Q290.9428,293.375 291.5834,293.5313 Q292.2397,293.6875 292.8022,293.9844 L292.8022,296.7031 Q292.1772,296.125 291.5834,295.8594 Q290.9897,295.5781 290.3647,295.5781 Q289.0209,295.5781 288.3334,296.6563 Q287.6459,297.7188 287.6459,299.8125 Q287.6459,301.9063 288.3334,302.9844 Q289.0209,304.0469 290.3647,304.0469 Q290.9897,304.0469 291.5834,303.7813 Q292.1772,303.5 292.8022,302.9219 L292.8022,305.6406 Z "/><text fill="#000000" font-family="sans-serif" font-size="12" lengthAdjust="spacingAndGlyphs" textLength="67" x="303.8334" y="304.1807">ServerPool</text><rect fill="#FFFFFF" height="15.9688" style="stroke: #000000; stroke-width: 1.0; stroke-dasharray: 2.0,2.0;" width="61" x="378.8334" y="281"/><text fill="#000000" font-family="sans-serif" font-size="12" font-style="italic" lengthAdjust="spacingAndGlyphs" textLength="59" x="379.8334" y="293.1387">Singleton</text><!--class SocketPool--><rect fill="#FEFECE" filter="url(#ftih2naa66udu)" height="32" id="SocketPool" style="stroke: #A80036; stroke-width: 1.5;" width="165" x="427.3334" y="376"/><ellipse cx="442.3334" cy="392" fill="#80FFFF" rx="11" ry="11" style="stroke: #A80036; stroke-width: 1.0;"/><path d="M445.3022,397.6406 Q444.724,397.9375 444.0834,398.0781 Q443.4428,398.2344 442.7397,398.2344 Q440.2397,398.2344 438.9115,396.5938 Q437.599,394.9375 437.599,391.8125 Q437.599,388.6875 438.9115,387.0313 Q440.2397,385.375 442.7397,385.375 Q443.4428,385.375 444.0834,385.5313 Q444.7397,385.6875 445.3022,385.9844 L445.3022,388.7031 Q444.6772,388.125 444.0834,387.8594 Q443.4897,387.5781 442.8647,387.5781 Q441.5209,387.5781 440.8334,388.6563 Q440.1459,389.7188 440.1459,391.8125 Q440.1459,393.9063 440.8334,394.9844 Q441.5209,396.0469 442.8647,396.0469 Q443.4897,396.0469 444.0834,395.7813 Q444.6772,395.5 445.3022,394.9219 L445.3022,397.6406 Z "/><text fill="#000000" font-family="sans-serif" font-size="12" lengthAdjust="spacingAndGlyphs" textLength="70" x="456.3334" y="396.1807">SocketPool</text><rect fill="#FFFFFF" height="15.9688" style="stroke: #000000; stroke-width: 1.0; stroke-dasharray: 2.0,2.0;" width="61" x="534.3334" y="373"/><text fill="#000000" font-family="sans-serif" font-size="12" font-style="italic" lengthAdjust="spacingAndGlyphs" textLength="59" x="535.3334" y="385.1387">Singleton</text><!--class Client--><rect fill="#FEFECE" filter="url(#ftih2naa66udu)" height="32" id="Client" style="stroke: #A80036; stroke-width: 1.5;" width="67" x="293.3334" y="100"/><ellipse cx="308.3334" cy="116" fill="#80FFFF" rx="11" ry="11" style="stroke: #A80036; stroke-width: 1.0;"/><path d="M311.3022,121.6406 Q310.724,121.9375 310.0834,122.0781 Q309.4428,122.2344 308.7397,122.2344 Q306.2397,122.2344 304.9115,120.5938 Q303.599,118.9375 303.599,115.8125 Q303.599,112.6875 304.9115,111.0313 Q306.2397,109.375 308.7397,109.375 Q309.4428,109.375 310.0834,109.5313 Q310.7397,109.6875 311.3022,109.9844 L311.3022,112.7031 Q310.6772,112.125 310.0834,111.8594 Q309.4897,111.5781 308.8647,111.5781 Q307.5209,111.5781 306.8334,112.6563 Q306.1459,113.7188 306.1459,115.8125 Q306.1459,117.9063 306.8334,118.9844 Q307.5209,120.0469 308.8647,120.0469 Q309.4897,120.0469 310.0834,119.7813 Q310.6772,119.5 311.3022,118.9219 L311.3022,121.6406 Z "/><text fill="#000000" font-family="sans-serif" font-size="12" lengthAdjust="spacingAndGlyphs" textLength="35" x="322.3334" y="120.1807">Client</text><!--class Database--><rect fill="#FEFECE" filter="url(#ftih2naa66udu)" height="32" id="Database" style="stroke: #A80036; stroke-width: 1.5;" width="93" x="165.3334" y="100"/><ellipse cx="180.3334" cy="116" fill="#80FFFF" rx="11" ry="11" style="stroke: #A80036; stroke-width: 1.0;"/><path d="M183.3022,121.6406 Q182.724,121.9375 182.0834,122.0781 Q181.4428,122.2344 180.7397,122.2344 Q178.2397,122.2344 176.9115,120.5938 Q175.599,118.9375 175.599,115.8125 Q175.599,112.6875 176.9115,111.0313 Q178.2397,109.375 180.7397,109.375 Q181.4428,109.375 182.0834,109.5313 Q182.7397,109.6875 183.3022,109.9844 L183.3022,112.7031 Q182.6772,112.125 182.0834,111.8594 Q181.4897,111.5781 180.8647,111.5781 Q179.5209,111.5781 178.8334,112.6563 Q178.1459,113.7188 178.1459,115.8125 Q178.1459,117.9063 178.8334,118.9844 Q179.5209,120.0469 180.8647,120.0469 Q181.4897,120.0469 182.0834,119.7813 Q182.6772,119.5 183.3022,118.9219 L183.3022,121.6406 Z "/><text fill="#000000" font-family="sans-serif" font-size="12" lengthAdjust="spacingAndGlyphs" textLength="61" x="194.3334" y="120.1807">Database</text><!--class Collection--><rect fill="#FEFECE" filter="url(#ftih2naa66udu)" height="32" id="Collection" style="stroke: #A80036; stroke-width: 1.5;" width="93" x="37.3334" y="100"/><ellipse cx="52.3334" cy="116" fill="#80FFFF" rx="11" ry="11" style="stroke: #A80036; stroke-width: 1.0;"/><path d="M55.3022,121.6406 Q54.724,121.9375 54.0834,122.0781 Q53.4428,122.2344 52.7397,122.2344 Q50.2397,122.2344 48.9115,120.5938 Q47.599,118.9375 47.599,115.8125 Q47.599,112.6875 48.9115,111.0313 Q50.2397,109.375 52.7397,109.375 Q53.4428,109.375 54.0834,109.5313 Q54.7397,109.6875 55.3022,109.9844 L55.3022,112.7031 Q54.6772,112.125 54.0834,111.8594 Q53.4897,111.5781 52.8647,111.5781 Q51.5209,111.5781 50.8334,112.6563 Q50.1459,113.7188 50.1459,115.8125 Q50.1459,117.9063 50.8334,118.9844 Q51.5209,120.0469 52.8647,120.0469 Q53.4897,120.0469 54.0834,119.7813 Q54.6772,119.5 55.3022,118.9219 L55.3022,121.6406 Z "/><text fill="#000000" font-family="sans-serif" font-size="12" lengthAdjust="spacingAndGlyphs" textLength="61" x="66.3334" y="120.1807">Collection</text><!--class Server--><rect fill="#FEFECE" filter="url(#ftih2naa66udu)" height="32" id="Server" style="stroke: #A80036; stroke-width: 1.5;" width="72" x="319.8334" y="376"/><ellipse cx="334.8334" cy="392" fill="#80FFFF" rx="11" ry="11" style="stroke: #A80036; stroke-width: 1.0;"/><path d="M337.8022,397.6406 Q337.224,397.9375 336.5834,398.0781 Q335.9428,398.2344 335.2397,398.2344 Q332.7397,398.2344 331.4115,396.5938 Q330.099,394.9375 330.099,391.8125 Q330.099,388.6875 331.4115,387.0313 Q332.7397,385.375 335.2397,385.375 Q335.9428,385.375 336.5834,385.5313 Q337.2397,385.6875 337.8022,385.9844 L337.8022,388.7031 Q337.1772,388.125 336.5834,387.8594 Q335.9897,387.5781 335.3647,387.5781 Q334.0209,387.5781 333.3334,388.6563 Q332.6459,389.7188 332.6459,391.8125 Q332.6459,393.9063 333.3334,394.9844 Q334.0209,396.0469 335.3647,396.0469 Q335.9897,396.0469 336.5834,395.7813 Q337.1772,395.5 337.8022,394.9219 L337.8022,397.6406 Z "/><text fill="#000000" font-family="sans-serif" font-size="12" lengthAdjust="spacingAndGlyphs" textLength="40" x="348.8334" y="396.1807">Server</text><!--class Socket--><rect fill="#FEFECE" filter="url(#ftih2naa66udu)" height="32" id="Socket" style="stroke: #A80036; stroke-width: 1.5;" width="75" x="627.3334" y="376"/><ellipse cx="642.3334" cy="392" fill="#80FFFF" rx="11" ry="11" style="stroke: #A80036; stroke-width: 1.0;"/><path d="M645.3022,397.6406 Q644.724,397.9375 644.0834,398.0781 Q643.4428,398.2344 642.7397,398.2344 Q640.2397,398.2344 638.9115,396.5938 Q637.599,394.9375 637.599,391.8125 Q637.599,388.6875 638.9115,387.0313 Q640.2397,385.375 642.7397,385.375 Q643.4428,385.375 644.0834,385.5313 Q644.7397,385.6875 645.3022,385.9844 L645.3022,388.7031 Q644.6772,388.125 644.0834,387.8594 Q643.4897,387.5781 642.8647,387.5781 Q641.5209,387.5781 640.8334,388.6563 Q640.1459,389.7188 640.1459,391.8125 Q640.1459,393.9063 640.8334,394.9844 Q641.5209,396.0469 642.8647,396.0469 Q643.4897,396.0469 644.0834,395.7813 Q644.6772,395.5 645.3022,394.9219 L645.3022,397.6406 Z "/><text fill="#000000" font-family="sans-serif" font-size="12" lengthAdjust="spacingAndGlyphs" textLength="43" x="656.3334" y="396.1807">Socket</text><!--class Wire--><rect fill="#FEFECE" filter="url(#ftih2naa66udu)" height="32" id="Wire" style="stroke: #A80036; stroke-width: 1.5;" width="59" x="162.3334" y="284"/><ellipse cx="177.3334" cy="300" fill="#80FFFF" rx="11" ry="11" style="stroke: #A80036; stroke-width: 1.0;"/><path d="M180.3022,305.6406 Q179.724,305.9375 179.0834,306.0781 Q178.4428,306.2344 177.7397,306.2344 Q175.2397,306.2344 173.9115,304.5938 Q172.599,302.9375 172.599,299.8125 Q172.599,296.6875 173.9115,295.0313 Q175.2397,293.375 177.7397,293.375 Q178.4428,293.375 179.0834,293.5313 Q179.7397,293.6875 180.3022,293.9844 L180.3022,296.7031 Q179.6772,296.125 179.0834,295.8594 Q178.4897,295.5781 177.8647,295.5781 Q176.5209,295.5781 175.8334,296.6563 Q175.1459,297.7188 175.1459,299.8125 Q175.1459,301.9063 175.8334,302.9844 Q176.5209,304.0469 177.8647,304.0469 Q178.4897,304.0469 179.0834,303.7813 Q179.6772,303.5 180.3022,302.9219 L180.3022,305.6406 Z "/><text fill="#000000" font-family="sans-serif" font-size="12" lengthAdjust="spacingAndGlyphs" textLength="27" x="191.3334" y="304.1807">Wire</text><!--class Cursor--><rect fill="#FEFECE" filter="url(#ftih2naa66udu)" height="32" id="Cursor" style="stroke: #A80036; stroke-width: 1.5;" width="73" x="18.3334" y="284"/><ellipse cx="33.3334" cy="300" fill="#80FFFF" rx="11" ry="11" style="stroke: #A80036; stroke-width: 1.0;"/><path d="M36.3022,305.6406 Q35.724,305.9375 35.0834,306.0781 Q34.4428,306.2344 33.7397,306.2344 Q31.2396,306.2344 29.9115,304.5938 Q28.599,302.9375 28.599,299.8125 Q28.599,296.6875 29.9115,295.0313 Q31.2396,293.375 33.7397,293.375 Q34.4428,293.375 35.0834,293.5313 Q35.7397,293.6875 36.3022,293.9844 L36.3022,296.7031 Q35.6772,296.125 35.0834,295.8594 Q34.4897,295.5781 33.8647,295.5781 Q32.5209,295.5781 31.8334,296.6563 Q31.1459,297.7188 31.1459,299.8125 Q31.1459,301.9063 31.8334,302.9844 Q32.5209,304.0469 33.8647,304.0469 Q34.4897,304.0469 35.0834,303.7813 Q35.6772,303.5 36.3022,302.9219 L36.3022,305.6406 Z "/><text fill="#000000" font-family="sans-serif" font-size="12" lengthAdjust="spacingAndGlyphs" textLength="41" x="47.3334" y="304.1807">Cursor</text><!--link Application to Client--><path d="M190.7631,46.0644 C218.8332,60.4915 255.3748,79.2727 283.5213,93.739 " fill="none" id="Application-Client" style="stroke: #A80036; stroke-width: 1.0;"/><polygon fill="#A80036" points="295.4107,99.8498,289.2346,92.178,290.9637,97.5642,285.5776,99.2932,295.4107,99.8498" style="stroke: #A80036; stroke-width: 1.0;"/><line style="stroke: #A80036; stroke-width: 1.0;" x1="290.9637" x2="283.8485" y1="97.5642" y2="93.9071"/><polygon fill="#A80036" points="179.0128,40.0252,182.5207,46.3256,189.6856,45.5107,186.1777,39.2104,179.0128,40.0252" style="stroke: #A80036; stroke-width: 1.0;"/><!--link Application to Database--><path d="M166.4754,50.7979 C174.853,62.8406 184.7192,77.0233 193.1067,89.0804 " fill="none" id="Application-Database" style="stroke: #A80036; stroke-width: 1.0;"/><polygon fill="#A80036" points="200.5985,99.8498,198.7424,90.1774,197.7431,95.7453,192.1752,94.746,200.5985,99.8498" style="stroke: #A80036; stroke-width: 1.0;"/><line style="stroke: #A80036; stroke-width: 1.0;" x1="197.7431" x2="193.1746" y1="95.7453" y2="89.178"/><polygon fill="#A80036" points="158.9814,40.0252,159.1241,47.2349,165.8341,49.8761,165.6914,42.6664,158.9814,40.0252" style="stroke: #A80036; stroke-width: 1.0;"/><!--link Application to Collection--><path d="M129.1914,50.7979 C120.8138,62.8406 110.9476,77.0233 102.5601,89.0804 " fill="none" id="Application-Collection" style="stroke: #A80036; stroke-width: 1.0;"/><polygon fill="#A80036" points="95.0683,99.8498,103.4916,94.746,97.9237,95.7453,96.9244,90.1774,95.0683,99.8498" style="stroke: #A80036; stroke-width: 1.0;"/><line style="stroke: #A80036; stroke-width: 1.0;" x1="97.9237" x2="102.4922" y1="95.7453" y2="89.178"/><polygon fill="#A80036" points="136.6855,40.0252,129.9755,42.6663,129.8327,49.876,136.5427,47.2349,136.6855,40.0252" style="stroke: #A80036; stroke-width: 1.0;"/><!--link Client to Monitor--><path d="M313.421,132.0252 C300.4718,147.497 280.8158,170.982 266.7881,187.7425 " fill="none" id="Client-Monitor" style="stroke: #A80036; stroke-width: 1.0;"/><polygon fill="#A80036" points="263.3504,191.8498,272.1942,187.5154,266.5595,188.0155,266.0594,182.3808,263.3504,191.8498" style="stroke: #A80036; stroke-width: 1.0;"/><!--link Client to ServerPool--><path d="M329.364,132.0126 C331.7941,147.3928 335.5675,171.2839 338.8334,192 C343.5949,222.2025 349.0952,257.1577 352.5192,278.9259 " fill="none" id="Client-ServerPool" style="stroke: #A80036; stroke-width: 1.0;"/><polygon fill="#A80036" points="353.3012,283.8978,355.854,274.3855,352.5242,278.9585,347.9512,275.6287,353.3012,283.8978" style="stroke: #A80036; stroke-width: 1.0;"/><!--link ServerPool to Server--><path d="M355.8334,329.1374 C355.8334,339.8746 355.8334,352.0344 355.8334,362.779 " fill="none" id="ServerPool-Server" style="stroke: #A80036; stroke-width: 1.0;"/><polygon fill="#A80036" points="355.8334,375.8498,359.8334,366.8498,355.8334,370.8498,351.8334,366.8498,355.8334,375.8498" style="stroke: #A80036; stroke-width: 1.0;"/><line style="stroke: #A80036; stroke-width: 1.0;" x1="355.8334" x2="355.8335" y1="370.8498" y2="362.8498"/><polygon fill="#A80036" points="355.8334,316.0252,351.8334,322.0252,355.8334,328.0252,359.8334,322.0252,355.8334,316.0252" style="stroke: #A80036; stroke-width: 1.0;"/><text fill="#000000" font-family="sans-serif" font-size="13" lengthAdjust="spacingAndGlyphs" textLength="7" x="347.6303" y="364.9108">*</text><!--link Server to SocketPool--><path d="M391.9272,392 C401.863,392 411.7989,392 421.7348,392 " fill="none" id="Server-SocketPool" style="stroke: #A80036; stroke-width: 1.0;"/><polygon fill="#A80036" points="426.9306,392,417.9306,388,421.9306,392,417.9306,396,426.9306,392" style="stroke: #A80036; stroke-width: 1.0;"/><!--link SocketPool to Socket--><path d="M605.5162,392 C608.3453,392 611.1744,392 614.0034,392 " fill="none" id="SocketPool-Socket" style="stroke: #A80036; stroke-width: 1.0;"/><polygon fill="#A80036" points="627.2435,392,618.2435,388,622.2435,392,618.2435,396,627.2435,392" style="stroke: #A80036; stroke-width: 1.0;"/><line style="stroke: #A80036; stroke-width: 1.0;" x1="622.2435" x2="614.2435" y1="392" y2="391.9999"/><polygon fill="#A80036" points="592.4799,392,598.4799,396,604.4799,392,598.4799,388,592.4799,392" style="stroke: #A80036; stroke-width: 1.0;"/><text fill="#000000" font-family="sans-serif" font-size="13" lengthAdjust="spacingAndGlyphs" textLength="7" x="612.4107" y="387.7427">*</text><!--link Collection to Database--><path d="M130.8334,116 C137.9287,116 145.0239,116 152.1191,116 " fill="none" id="Collection-Database" style="stroke: #A80036; stroke-width: 1.0;"/><polygon fill="#A80036" points="165.3217,116,159.3217,112,153.3217,116,159.3217,120,165.3217,116" style="stroke: #A80036; stroke-width: 1.0;"/><!--link Collection to Wire--><path d="M93.2288,132.0069 C112.7764,165.3103 157.8122,242.0379 179.594,279.1477 " fill="none" id="Collection-Wire" style="stroke: #A80036; stroke-width: 1.0;"/><polygon fill="#A80036" points="182.3829,283.8991,181.2767,274.1126,179.8519,279.587,174.3774,278.1622,182.3829,283.8991" style="stroke: #A80036; stroke-width: 1.0;"/><!--link Collection to Cursor--><path d="M79.2623,145.0028 C73.8536,179.3203 64.8986,236.1379 59.464,270.6195 " fill="none" id="Collection-Cursor" style="stroke: #A80036; stroke-width: 1.0;"/><polygon fill="#A80036" points="57.3711,283.8991,62.7235,275.6316,58.1496,278.9601,54.8211,274.3861,57.3711,283.8991" style="stroke: #A80036; stroke-width: 1.0;"/><line style="stroke: #A80036; stroke-width: 1.0;" x1="58.1496" x2="59.3951" y1="278.9601" y2="271.0576"/><polygon fill="#A80036" points="81.3106,132.0069,76.4252,137.311,79.4423,143.8606,84.3277,138.5565,81.3106,132.0069" style="stroke: #A80036; stroke-width: 1.0;"/><!--link Application to Cursor--><path d="M97.0866,40.0259 C68.9506,51.807 36.3902,70.9141 19.8334,100 C-13.5131,158.581 22.4879,241.2399 42.8407,279.3185 " fill="none" id="Application-Cursor" style="stroke: #A80036; stroke-width: 1.0;"/><polygon fill="#A80036" points="45.2395,283.7366,44.4605,273.9186,42.8538,279.3425,37.4299,277.7357,45.2395,283.7366" style="stroke: #A80036; stroke-width: 1.0;"/><!--link Cursor to Wire--><path d="M91.4916,300 C113.2638,300 135.0359,300 156.8081,300 " fill="none" id="Cursor-Wire" style="stroke: #A80036; stroke-width: 1.0;"/><polygon fill="#A80036" points="162.0444,300,153.0444,296,157.0444,300,153.0444,304,162.0444,300" style="stroke: #A80036; stroke-width: 1.0;"/><!--link Wire to ServerPool--><path d="M221.6225,300 C237.48,300 253.3376,300 269.1951,300 " fill="none" id="Wire-ServerPool" style="stroke: #A80036; stroke-width: 1.0;"/><polygon fill="#A80036" points="274.5729,300,265.5729,296,269.5729,300,265.5729,304,274.5729,300" style="stroke: #A80036; stroke-width: 1.0;"/><!--link Monitor to Wire--><path d="M239.7306,224.0252 C230.0592,239.3659 215.4214,262.5846 204.874,279.3149 " fill="none" id="Monitor-Wire" style="stroke: #A80036; stroke-width: 1.0;"/><polygon fill="#A80036" points="202.0151,283.8498,210.1985,278.3697,204.6816,279.6202,203.4311,274.1033,202.0151,283.8498" style="stroke: #A80036; stroke-width: 1.0;"/><!--
@startuml

skinparam packageStyle rectangle
skinparam stereotypeCBackgroundColor #80ffff
hide members

class "User Application" as Application
class Monitor<Singleton>
class ServerPool<Singleton>
class SocketPool<Singleton>

Application *- -> Client
Application *- -> Database
Application *- -> Collection

Client - -> Monitor
Client - - -> ServerPool
ServerPool *- -> "*" Server
Server -> SocketPool
SocketPool *-> "*" Socket
Collection -* Database
Collection - - -> Wire
Collection *- - -> Cursor
Application - -> Cursor

Cursor -> Wire
Wire -> ServerPool
Monitor - -> Wire
@enduml

PlantUML version 1.2019.01(Sat Feb 09 16:32:04 CET 2019)
(LGPL source distribution)
Java Runtime: OpenJDK Runtime Environment
JVM: OpenJDK 64-Bit Server VM
Java Version: 1.8.0_265-b01
Operating System: Linux
OS Version: 5.8.15-101.fc31.x86_64
Default Encoding: UTF-8
Language: en
Country: null
--></g></svg>