<?xml version="1.0" encoding="UTF-8" standalone="no"?><svg xmlns="http://www.w3.org/2000/svg" xmlns:xlink="http://www.w3.org/1999/xlink" contentScriptType="application/ecmascript" contentStyleType="text/css" height="550px" preserveAspectRatio="none" style="width:391px;height:550px;" version="1.1" viewBox="0 0 391 550" width="391px" zoomAndPan="magnify"><defs><filter height="300%" id="f1gw0ddwh8wts2" width="300%" x="-1" y="-1"><feGaussianBlur result="blurOut" stdDeviation="2.0"/><feColorMatrix in="blurOut" result="blurOut2" type="matrix" values="0 0 0 0 0 0 0 0 0 0 0 0 0 0 0 0 0 0 .4 0"/><feOffset dx="4.0" dy="4.0" in="blurOut2" result="blurOut3"/><feBlend in="SourceGraphic" in2="blurOut3" mode="normal"/></filter></defs><g><!--class Application--><rect fill="#FEFECE" filter="url(#f1gw0ddwh8wts2)" height="48" id="Application" style="stroke: #A80036; stroke-width: 1.5;" width="101" x="24.0277" y="8"/><ellipse cx="39.0277" cy="24" fill="#ADD1B2" rx="11" ry="11" style="stroke: #A80036; stroke-width: 1.0;"/><path d="M41.9964,29.6406 Q41.4183,29.9375 40.7777,30.0781 Q40.1371,30.2344 39.4339,30.2344 Q36.9339,30.2344 35.6058,28.5938 Q34.2933,26.9375 34.2933,23.8125 Q34.2933,20.6875 35.6058,19.0313 Q36.9339,17.375 39.4339,17.375 Q40.1371,17.375 40.7777,17.5313 Q41.4339,17.6875 41.9964,17.9844 L41.9964,20.7031 Q41.3714,20.125 40.7777,19.8594 Q40.1839,19.5781 39.5589,19.5781 Q38.2152,19.5781 37.5277,20.6563 Q36.8402,21.7188 36.8402,23.8125 Q36.8402,25.9063 37.5277,26.9844 Q38.2152,28.0469 39.5589,28.0469 Q40.1839,28.0469 40.7777,27.7813 Q41.3714,27.5 41.9964,26.9219 L41.9964,29.6406 Z "/><text fill="#000000" font-family="sans-serif" font-size="12" lengthAdjust="spacingAndGlyphs" textLength="69" x="53.0277" y="28.1807">Application</text><line style="stroke: #A80036; stroke-width: 1.5;" x1="25.0277" x2="124.0277" y1="40" y2="40"/><line style="stroke: #A80036; stroke-width: 1.5;" x1="25.0277" x2="124.0277" y1="48" y2="48"/><!--class Client--><rect fill="#FEFECE" filter="url(#f1gw0ddwh8wts2)" height="48" id="Client" style="stroke: #A80036; stroke-width: 1.5;" width="67" x="98.0277" y="366"/><ellipse cx="113.0277" cy="382" fill="#ADD1B2" rx="11" ry="11" style="stroke: #A80036; stroke-width: 1.0;"/><path d="M115.9965,387.6406 Q115.4183,387.9375 114.7777,388.0781 Q114.1371,388.2344 113.434,388.2344 Q110.934,388.2344 109.6058,386.5938 Q108.2933,384.9375 108.2933,381.8125 Q108.2933,378.6875 109.6058,377.0313 Q110.934,375.375 113.434,375.375 Q114.1371,375.375 114.7777,375.5313 Q115.434,375.6875 115.9965,375.9844 L115.9965,378.7031 Q115.3715,378.125 114.7777,377.8594 Q114.184,377.5781 113.559,377.5781 Q112.2152,377.5781 111.5277,378.6563 Q110.8402,379.7188 110.8402,381.8125 Q110.8402,383.9063 111.5277,384.9844 Q112.2152,386.0469 113.559,386.0469 Q114.184,386.0469 114.7777,385.7813 Q115.3715,385.5 115.9965,384.9219 L115.9965,387.6406 Z "/><text fill="#000000" font-family="sans-serif" font-size="12" lengthAdjust="spacingAndGlyphs" textLength="35" x="127.0277" y="386.1807">Client</text><line style="stroke: #A80036; stroke-width: 1.5;" x1="99.0277" x2="164.0277" y1="398" y2="398"/><line style="stroke: #A80036; stroke-width: 1.5;" x1="99.0277" x2="164.0277" y1="406" y2="406"/><!--class Database--><rect fill="#FEFECE" filter="url(#f1gw0ddwh8wts2)" height="48" id="Database" style="stroke: #A80036; stroke-width: 1.5;" width="93" x="28.0277" y="117"/><ellipse cx="43.0277" cy="133" fill="#ADD1B2" rx="11" ry="11" style="stroke: #A80036; stroke-width: 1.0;"/><path d="M45.9964,138.6406 Q45.4183,138.9375 44.7777,139.0781 Q44.1371,139.2344 43.4339,139.2344 Q40.9339,139.2344 39.6058,137.5938 Q38.2933,135.9375 38.2933,132.8125 Q38.2933,129.6875 39.6058,128.0313 Q40.9339,126.375 43.4339,126.375 Q44.1371,126.375 44.7777,126.5313 Q45.4339,126.6875 45.9964,126.9844 L45.9964,129.7031 Q45.3714,129.125 44.7777,128.8594 Q44.1839,128.5781 43.5589,128.5781 Q42.2152,128.5781 41.5277,129.6563 Q40.8402,130.7188 40.8402,132.8125 Q40.8402,134.9063 41.5277,135.9844 Q42.2152,137.0469 43.5589,137.0469 Q44.1839,137.0469 44.7777,136.7813 Q45.3714,136.5 45.9964,135.9219 L45.9964,138.6406 Z "/><text fill="#000000" font-family="sans-serif" font-size="12" lengthAdjust="spacingAndGlyphs" textLength="61" x="57.0277" y="137.1807">Database</text><line style="stroke: #A80036; stroke-width: 1.5;" x1="29.0277" x2="120.0277" y1="149" y2="149"/><line style="stroke: #A80036; stroke-width: 1.5;" x1="29.0277" x2="120.0277" y1="157" y2="157"/><!--class Collection--><rect fill="#FEFECE" filter="url(#f1gw0ddwh8wts2)" height="48" id="Collection" style="stroke: #A80036; stroke-width: 1.5;" width="93" x="156.0277" y="117"/><ellipse cx="171.0277" cy="133" fill="#ADD1B2" rx="11" ry="11" style="stroke: #A80036; stroke-width: 1.0;"/><path d="M173.9965,138.6406 Q173.4183,138.9375 172.7777,139.0781 Q172.1371,139.2344 171.434,139.2344 Q168.934,139.2344 167.6058,137.5938 Q166.2933,135.9375 166.2933,132.8125 Q166.2933,129.6875 167.6058,128.0313 Q168.934,126.375 171.434,126.375 Q172.1371,126.375 172.7777,126.5313 Q173.434,126.6875 173.9965,126.9844 L173.9965,129.7031 Q173.3715,129.125 172.7777,128.8594 Q172.184,128.5781 171.559,128.5781 Q170.2152,128.5781 169.5277,129.6563 Q168.8402,130.7188 168.8402,132.8125 Q168.8402,134.9063 169.5277,135.9844 Q170.2152,137.0469 171.559,137.0469 Q172.184,137.0469 172.7777,136.7813 Q173.3715,136.5 173.9965,135.9219 L173.9965,138.6406 Z "/><text fill="#000000" font-family="sans-serif" font-size="12" lengthAdjust="spacingAndGlyphs" textLength="61" x="185.0277" y="137.1807">Collection</text><line style="stroke: #A80036; stroke-width: 1.5;" x1="157.0277" x2="248.0277" y1="149" y2="149"/><line style="stroke: #A80036; stroke-width: 1.5;" x1="157.0277" x2="248.0277" y1="157" y2="157"/><!--class Server--><rect fill="#FEFECE" filter="url(#f1gw0ddwh8wts2)" height="48" id="Server" style="stroke: #A80036; stroke-width: 1.5;" width="72" x="200.5277" y="366"/><ellipse cx="215.5277" cy="382" fill="#ADD1B2" rx="11" ry="11" style="stroke: #A80036; stroke-width: 1.0;"/><path d="M218.4965,387.6406 Q217.9183,387.9375 217.2777,388.0781 Q216.6371,388.2344 215.934,388.2344 Q213.434,388.2344 212.1058,386.5938 Q210.7933,384.9375 210.7933,381.8125 Q210.7933,378.6875 212.1058,377.0313 Q213.434,375.375 215.934,375.375 Q216.6371,375.375 217.2777,375.5313 Q217.934,375.6875 218.4965,375.9844 L218.4965,378.7031 Q217.8715,378.125 217.2777,377.8594 Q216.684,377.5781 216.059,377.5781 Q214.7152,377.5781 214.0277,378.6563 Q213.3402,379.7188 213.3402,381.8125 Q213.3402,383.9063 214.0277,384.9844 Q214.7152,386.0469 216.059,386.0469 Q216.684,386.0469 217.2777,385.7813 Q217.8715,385.5 218.4965,384.9219 L218.4965,387.6406 Z "/><text fill="#000000" font-family="sans-serif" font-size="12" lengthAdjust="spacingAndGlyphs" textLength="40" x="229.5277" y="386.1807">Server</text><line style="stroke: #A80036; stroke-width: 1.5;" x1="201.5277" x2="271.5277" y1="398" y2="398"/><line style="stroke: #A80036; stroke-width: 1.5;" x1="201.5277" x2="271.5277" y1="406" y2="406"/><!--class Wire--><rect fill="#FEFECE" filter="url(#f1gw0ddwh8wts2)" height="48" id="Wire" style="stroke: #A80036; stroke-width: 1.5;" width="59" x="198.0277" y="226"/><ellipse cx="213.0277" cy="242" fill="#ADD1B2" rx="11" ry="11" style="stroke: #A80036; stroke-width: 1.0;"/><path d="M215.9965,247.6406 Q215.4183,247.9375 214.7777,248.0781 Q214.1371,248.2344 213.434,248.2344 Q210.934,248.2344 209.6058,246.5938 Q208.2933,244.9375 208.2933,241.8125 Q208.2933,238.6875 209.6058,237.0313 Q210.934,235.375 213.434,235.375 Q214.1371,235.375 214.7777,235.5313 Q215.434,235.6875 215.9965,235.9844 L215.9965,238.7031 Q215.3715,238.125 214.7777,237.8594 Q214.184,237.5781 213.559,237.5781 Q212.2152,237.5781 211.5277,238.6563 Q210.8402,239.7188 210.8402,241.8125 Q210.8402,243.9063 211.5277,244.9844 Q212.2152,246.0469 213.559,246.0469 Q214.184,246.0469 214.7777,245.7813 Q215.3715,245.5 215.9965,244.9219 L215.9965,247.6406 Z "/><text fill="#000000" font-family="sans-serif" font-size="12" lengthAdjust="spacingAndGlyphs" textLength="27" x="227.0277" y="246.1807">Wire</text><line style="stroke: #A80036; stroke-width: 1.5;" x1="199.0277" x2="256.0277" y1="258" y2="258"/><line style="stroke: #A80036; stroke-width: 1.5;" x1="199.0277" x2="256.0277" y1="266" y2="266"/><!--class Cursor--><rect fill="#FEFECE" filter="url(#f1gw0ddwh8wts2)" height="48" id="Cursor" style="stroke: #A80036; stroke-width: 1.5;" width="73" x="292.0277" y="226"/><ellipse cx="307.0277" cy="242" fill="#ADD1B2" rx="11" ry="11" style="stroke: #A80036; stroke-width: 1.0;"/><path d="M309.9965,247.6406 Q309.4183,247.9375 308.7777,248.0781 Q308.1371,248.2344 307.434,248.2344 Q304.934,248.2344 303.6058,246.5938 Q302.2933,244.9375 302.2933,241.8125 Q302.2933,238.6875 303.6058,237.0313 Q304.934,235.375 307.434,235.375 Q308.1371,235.375 308.7777,235.5313 Q309.434,235.6875 309.9965,235.9844 L309.9965,238.7031 Q309.3715,238.125 308.7777,237.8594 Q308.184,237.5781 307.559,237.5781 Q306.2152,237.5781 305.5277,238.6563 Q304.8402,239.7188 304.8402,241.8125 Q304.8402,243.9063 305.5277,244.9844 Q306.2152,246.0469 307.559,246.0469 Q308.184,246.0469 308.7777,245.7813 Q309.3715,245.5 309.9965,244.9219 L309.9965,247.6406 Z "/><text fill="#000000" font-family="sans-serif" font-size="12" lengthAdjust="spacingAndGlyphs" textLength="41" x="321.0277" y="246.1807">Cursor</text><line style="stroke: #A80036; stroke-width: 1.5;" x1="293.0277" x2="364.0277" y1="258" y2="258"/><line style="stroke: #A80036; stroke-width: 1.5;" x1="293.0277" x2="364.0277" y1="266" y2="266"/><!--class Socket--><rect fill="#FEFECE" filter="url(#f1gw0ddwh8wts2)" height="48" id="Socket" style="stroke: #A80036; stroke-width: 1.5;" width="75" x="305.0277" y="491"/><ellipse cx="320.0277" cy="507" fill="#ADD1B2" rx="11" ry="11" style="stroke: #A80036; stroke-width: 1.0;"/><path d="M322.9965,512.6406 Q322.4183,512.9375 321.7777,513.0781 Q321.1371,513.2344 320.434,513.2344 Q317.934,513.2344 316.6058,511.5938 Q315.2933,509.9375 315.2933,506.8125 Q315.2933,503.6875 316.6058,502.0313 Q317.934,500.375 320.434,500.375 Q321.1371,500.375 321.7777,500.5313 Q322.434,500.6875 322.9965,500.9844 L322.9965,503.7031 Q322.3715,503.125 321.7777,502.8594 Q321.184,502.5781 320.559,502.5781 Q319.2152,502.5781 318.5277,503.6563 Q317.8402,504.7188 317.8402,506.8125 Q317.8402,508.9063 318.5277,509.9844 Q319.2152,511.0469 320.559,511.0469 Q321.184,511.0469 321.7777,510.7813 Q322.3715,510.5 322.9965,509.9219 L322.9965,512.6406 Z "/><text fill="#000000" font-family="sans-serif" font-size="12" lengthAdjust="spacingAndGlyphs" textLength="43" x="334.0277" y="511.1807">Socket</text><line style="stroke: #A80036; stroke-width: 1.5;" x1="306.0277" x2="379.0277" y1="523" y2="523"/><line style="stroke: #A80036; stroke-width: 1.5;" x1="306.0277" x2="379.0277" y1="531" y2="531"/><!--class Monitor--><rect fill="#FEFECE" filter="url(#f1gw0ddwh8wts2)" height="48" id="Monitor" style="stroke: #A80036; stroke-width: 1.5;" width="79" x="191.0277" y="491"/><ellipse cx="206.0277" cy="507" fill="#ADD1B2" rx="11" ry="11" style="stroke: #A80036; stroke-width: 1.0;"/><path d="M208.9965,512.6406 Q208.4183,512.9375 207.7777,513.0781 Q207.1371,513.2344 206.434,513.2344 Q203.934,513.2344 202.6058,511.5938 Q201.2933,509.9375 201.2933,506.8125 Q201.2933,503.6875 202.6058,502.0313 Q203.934,500.375 206.434,500.375 Q207.1371,500.375 207.7777,500.5313 Q208.434,500.6875 208.9965,500.9844 L208.9965,503.7031 Q208.3715,503.125 207.7777,502.8594 Q207.184,502.5781 206.559,502.5781 Q205.2152,502.5781 204.5277,503.6563 Q203.8402,504.7188 203.8402,506.8125 Q203.8402,508.9063 204.5277,509.9844 Q205.2152,511.0469 206.559,511.0469 Q207.184,511.0469 207.7777,510.7813 Q208.3715,510.5 208.9965,509.9219 L208.9965,512.6406 Z "/><text fill="#000000" font-family="sans-serif" font-size="12" lengthAdjust="spacingAndGlyphs" textLength="47" x="220.0277" y="511.1807">Monitor</text><line style="stroke: #A80036; stroke-width: 1.5;" x1="192.0277" x2="269.0277" y1="523" y2="523"/><line style="stroke: #A80036; stroke-width: 1.5;" x1="192.0277" x2="269.0277" y1="531" y2="531"/><!--class RegisteredServer--><rect fill="#FEFECE" filter="url(#f1gw0ddwh8wts2)" height="48" id="RegisteredServer" style="stroke: #A80036; stroke-width: 1.5;" width="140" x="15.5277" y="491"/><ellipse cx="30.5277" cy="507" fill="#ADD1B2" rx="11" ry="11" style="stroke: #A80036; stroke-width: 1.0;"/><path d="M33.4964,512.6406 Q32.9183,512.9375 32.2777,513.0781 Q31.6371,513.2344 30.934,513.2344 Q28.434,513.2344 27.1058,511.5938 Q25.7933,509.9375 25.7933,506.8125 Q25.7933,503.6875 27.1058,502.0313 Q28.434,500.375 30.934,500.375 Q31.6371,500.375 32.2777,500.5313 Q32.9339,500.6875 33.4964,500.9844 L33.4964,503.7031 Q32.8714,503.125 32.2777,502.8594 Q31.684,502.5781 31.059,502.5781 Q29.7152,502.5781 29.0277,503.6563 Q28.3402,504.7188 28.3402,506.8125 Q28.3402,508.9063 29.0277,509.9844 Q29.7152,511.0469 31.059,511.0469 Q31.684,511.0469 32.2777,510.7813 Q32.8714,510.5 33.4964,509.9219 L33.4964,512.6406 Z "/><text fill="#000000" font-family="sans-serif" font-size="12" lengthAdjust="spacingAndGlyphs" textLength="108" x="44.5277" y="511.1807">RegisteredServer</text><line style="stroke: #A80036; stroke-width: 1.5;" x1="16.5277" x2="154.5277" y1="523" y2="523"/><line style="stroke: #A80036; stroke-width: 1.5;" x1="16.5277" x2="154.5277" y1="531" y2="531"/><!--link Application to Client--><path d="M40.8286,66.1333 C28.8267,80.592 16.7499,98.3917 10.5277,117 C3.7625,137.2322 5.9473,144.1642 10.5277,165 C28.5024,246.7661 45.9898,264.4931 89.5277,336 C93.4266,342.4037 97.9565,348.9326 102.569,355.1357 " fill="none" id="Application-Client" style="stroke: #A80036; stroke-width: 1.0;"/><polygon fill="#A80036" points="110.8425,365.8519,108.5086,356.2836,107.7869,361.8942,102.1763,361.1725,110.8425,365.8519" style="stroke: #A80036; stroke-width: 1.0;"/><line style="stroke: #A80036; stroke-width: 1.0;" x1="107.7869" x2="102.898" y1="361.8942" y2="355.5618"/><polygon fill="#A80036" points="49.4697,56.2319,42.5108,58.1224,41.5794,65.2731,48.5382,63.3826,49.4697,56.2319" style="stroke: #A80036; stroke-width: 1.0;"/><!--link Application to Database--><path d="M74.5277,69.3192 C74.5277,80.3833 74.5277,92.4997 74.5277,103.5707 " fill="none" id="Application-Database" style="stroke: #A80036; stroke-width: 1.0;"/><polygon fill="#A80036" points="74.5277,116.877,78.5277,107.877,74.5277,111.877,70.5277,107.877,74.5277,116.877" style="stroke: #A80036; stroke-width: 1.0;"/><line style="stroke: #A80036; stroke-width: 1.0;" x1="74.5277" x2="74.5278" y1="111.877" y2="103.877"/><polygon fill="#A80036" points="74.5277,56.1906,70.5277,62.1906,74.5277,68.1906,78.5277,62.1906,74.5277,56.1906" style="stroke: #A80036; stroke-width: 1.0;"/><!--link Application to Collection--><path d="M112.8364,64.6223 C129.0042,78.3902 147.7949,94.3916 163.9877,108.1807 " fill="none" id="Application-Collection" style="stroke: #A80036; stroke-width: 1.0;"/><polygon fill="#A80036" points="174.1998,116.877,169.941,107.9965,170.393,113.6353,164.7543,114.0873,174.1998,116.877" style="stroke: #A80036; stroke-width: 1.0;"/><line style="stroke: #A80036; stroke-width: 1.0;" x1="170.393" x2="164.3022" y1="113.6353" y2="108.4485"/><polygon fill="#A80036" points="102.935,56.1906,104.9097,63.126,112.0712,63.9707,110.0965,57.0352,102.935,56.1906" style="stroke: #A80036; stroke-width: 1.0;"/><!--link Client to Server--><path d="M178.3328,390 C185.6507,390 192.9686,390 200.2865,390 " fill="none" id="Client-Server" style="stroke: #A80036; stroke-width: 1.0;"/><polygon fill="#A80036" points="165.1605,390,171.1605,394,177.1605,390,171.1605,386,165.1605,390" style="stroke: #A80036; stroke-width: 1.0;"/><text fill="#000000" font-family="sans-serif" font-size="13" lengthAdjust="spacingAndGlyphs" textLength="7" x="185.4625" y="385.6965">*</text><!--link Database to Client--><path d="M76.3559,165.1946 C78.6303,191.9778 83.1422,236.3438 90.5277,274 C96.0269,302.0384 97.9205,309.091 107.5277,336 C110.4701,344.2413 114.1161,352.9856 117.6702,360.9828 " fill="none" id="Database-Client" style="stroke: #A80036; stroke-width: 1.0;"/><polygon fill="#A80036" points="119.8641,365.8545,119.8156,356.0058,117.811,361.2955,112.5212,359.2908,119.8641,365.8545" style="stroke: #A80036; stroke-width: 1.0;"/><!--link Client to Collection--><path d="M131.4553,360.7808 C132.1933,327.3319 135.9598,271.3194 151.5277,226 C159.0756,204.0276 172.8454,181.5914 184.1761,165.291 " fill="none" id="Client-Collection" style="stroke: #A80036; stroke-width: 1.0;"/><polygon fill="#A80036" points="131.3615,365.9504,135.5244,357.0246,131.4524,360.9512,127.5257,356.8792,131.3615,365.9504" style="stroke: #A80036; stroke-width: 1.0;"/><text fill="#000000" font-family="sans-serif" font-size="13" lengthAdjust="spacingAndGlyphs" textLength="17" x="157.5277" y="247.1494">for</text><text fill="#000000" font-family="sans-serif" font-size="13" lengthAdjust="spacingAndGlyphs" textLength="27" x="152.5277" y="262.3901">Wire</text><!--link Database to Collection--><path d="M134.7302,141 C141.8255,141 148.9207,141 156.016,141 " fill="none" id="Database-Collection" style="stroke: #A80036; stroke-width: 1.0;"/><polygon fill="#A80036" points="121.5277,141,127.5277,145,133.5277,141,127.5277,137,121.5277,141" style="stroke: #A80036; stroke-width: 1.0;"/><!--link Collection to Wire--><path d="M208.076,165.1906 C211.8305,181.5604 216.8119,203.2793 220.7937,220.6399 " fill="none" id="Collection-Wire" style="stroke: #A80036; stroke-width: 1.0;"/><polygon fill="#A80036" points="221.9949,225.877,223.8816,216.2105,220.8771,221.0036,216.0841,217.9991,221.9949,225.877" style="stroke: #A80036; stroke-width: 1.0;"/><!--link Collection to Cursor--><path d="M240.5051,173.8534 C256.3759,187.5829 274.7764,203.5009 290.6379,217.2223 " fill="none" id="Collection-Cursor" style="stroke: #A80036; stroke-width: 1.0;"/><polygon fill="#A80036" points="300.6424,225.877,296.4528,216.9637,296.861,222.6058,291.2189,223.014,300.6424,225.877" style="stroke: #A80036; stroke-width: 1.0;"/><line style="stroke: #A80036; stroke-width: 1.0;" x1="296.861" x2="290.8107" y1="222.6058" y2="217.3718"/><polygon fill="#A80036" points="230.4912,165.1906,232.4119,172.1412,239.5666,173.0416,237.6459,166.091,230.4912,165.1906" style="stroke: #A80036; stroke-width: 1.0;"/><!--link Wire to Cursor--><path d="M262.2933,250 C272.1908,250 282.0883,250 291.9858,250 " fill="none" id="Wire-Cursor" style="stroke: #A80036; stroke-width: 1.0;"/><polygon fill="#A80036" points="257.1175,250,266.1175,254,262.1175,250,266.1175,246,257.1175,250" style="stroke: #A80036; stroke-width: 1.0;"/><!--link Wire to Client--><path d="M207.1953,274.2544 C199.8079,283.3931 191.5543,293.9975 184.5277,304 C171.5345,322.496 158.1907,344.1661 148.1426,361.1262 " fill="none" id="Wire-Client" style="stroke: #A80036; stroke-width: 1.0;"/><polygon fill="#A80036" points="145.399,365.7784,153.4165,360.0583,147.9391,361.4717,146.5257,355.9942,145.399,365.7784" style="stroke: #A80036; stroke-width: 1.0;"/><text fill="#000000" font-family="sans-serif" font-size="13" lengthAdjust="spacingAndGlyphs" textLength="17" x="197.0277" y="317.1494">for</text><text fill="#000000" font-family="sans-serif" font-size="13" lengthAdjust="spacingAndGlyphs" textLength="40" x="185.5277" y="332.3901">server</text><!--link Wire to Server--><path d="M231.2102,274.1368 C232.485,283.4467 233.7804,294.1969 234.5277,304 C235.9679,322.8935 236.4718,344.1832 236.6137,360.8534 " fill="none" id="Wire-Server" style="stroke: #A80036; stroke-width: 1.0;"/><polygon fill="#A80036" points="236.6468,365.8708,240.5871,356.8445,236.6137,360.8709,232.5872,356.8975,236.6468,365.8708" style="stroke: #A80036; stroke-width: 1.0;"/><text fill="#000000" font-family="sans-serif" font-size="13" lengthAdjust="spacingAndGlyphs" textLength="17" x="250.0277" y="317.1494">for</text><text fill="#000000" font-family="sans-serif" font-size="13" lengthAdjust="spacingAndGlyphs" textLength="42" x="237.5277" y="332.3901">socket</text><!--link Wire to Socket--><path d="M257.1337,270.2061 C268.4639,279.3169 280.5648,290.9645 288.5277,304 C324.0432,362.1397 336.3152,442.9596 340.4691,485.735 " fill="none" id="Wire-Socket" style="stroke: #A80036; stroke-width: 1.0;"/><polygon fill="#A80036" points="340.9365,490.7589,344.0854,481.427,340.4732,485.7804,336.1198,482.1683,340.9365,490.7589" style="stroke: #A80036; stroke-width: 1.0;"/><text fill="#000000" font-family="sans-serif" font-size="13" lengthAdjust="spacingAndGlyphs" textLength="38" x="329.5277" y="394.6494">for I/O</text><!--link Server to Socket--><path d="M246.4655,414.1953 C253.1161,428.6772 262.7916,446.9395 274.5277,461 C282.5577,470.6204 292.5424,479.6866 302.3659,487.5443 " fill="none" id="Server-Socket" style="stroke: #A80036; stroke-width: 1.0;"/><polygon fill="#A80036" points="306.5599,490.8359,301.95,482.1325,302.6268,487.7488,297.0105,488.4256,306.5599,490.8359" style="stroke: #A80036; stroke-width: 1.0;"/><text fill="#000000" font-family="sans-serif" font-size="13" lengthAdjust="spacingAndGlyphs" textLength="40" x="275.5277" y="457.1494">admin</text><text fill="#000000" font-family="sans-serif" font-size="13" lengthAdjust="spacingAndGlyphs" textLength="7" x="289.9396" y="480.2965">*</text><!--link Monitor to RegisteredServer--><path d="M177.803,515 C174.8368,515 171.8706,515 168.9045,515 " fill="none" id="Monitor-RegisteredServer" style="stroke: #A80036; stroke-width: 1.0;"/><polygon fill="#A80036" points="155.7621,515,164.7621,519,160.7621,515,164.7621,511,155.7621,515" style="stroke: #A80036; stroke-width: 1.0;"/><line style="stroke: #A80036; stroke-width: 1.0;" x1="160.7621" x2="168.7621" y1="515" y2="514.9999"/><polygon fill="#A80036" points="190.8085,515,184.8085,511,178.8085,515,184.8085,519,190.8085,515" style="stroke: #A80036; stroke-width: 1.0;"/><text fill="#000000" font-family="sans-serif" font-size="13" lengthAdjust="spacingAndGlyphs" textLength="7" x="163.366" y="511.3884">*</text><!--link Server to RegisteredServer--><path d="M207.4134,414.1013 C182.0325,435.1119 145.2331,465.575 118.7167,487.5256 " fill="none" id="Server-RegisteredServer" style="stroke: #A80036; stroke-width: 1.0;"/><polygon fill="#A80036" points="114.5526,490.9727,124.0361,488.315,118.4042,487.7844,118.9348,482.1525,114.5526,490.9727" style="stroke: #A80036; stroke-width: 1.0;"/><!--
@startuml
Application *- -> Client
Application *- -> Database
Application *-> Collection
Client *- "*" Server
Database -> Client
Client <- - Collection: for\nWire
Database *- Collection
Collection - -> Wire
Collection *- -> Cursor

Wire <- Cursor
Wire - -> Client: for\nserver
Wire -> Server: for\nsocket
Wire -> Socket: for I/O

Server - -> "*" Socket: admin
Monitor *-> "*" RegisteredServer
Server - -> RegisteredServer
@enduml

PlantUML version 1.2019.01(Sat Feb 09 16:32:04 CET 2019)
(LGPL source distribution)
Java Runtime: OpenJDK Runtime Environment
JVM: OpenJDK 64-Bit Server VM
Java Version: 1.8.0_265-b01
Operating System: Linux
OS Version: 5.8.15-101.fc31.x86_64
Default Encoding: UTF-8
Language: en
Country: null
--></g></svg>