<?xml version="1.0" encoding="UTF-8" standalone="no"?><svg xmlns="http://www.w3.org/2000/svg" xmlns:xlink="http://www.w3.org/1999/xlink" contentScriptType="application/ecmascript" contentStyleType="text/css" height="197px" preserveAspectRatio="none" style="width:597px;height:197px;" version="1.1" viewBox="0 0 597 197" width="597px" zoomAndPan="magnify"><defs><filter height="300%" id="f1cwmwgpsjchd2" width="300%" x="-1" y="-1"><feGaussianBlur result="blurOut" stdDeviation="2.0"/><feColorMatrix in="blurOut" result="blurOut2" type="matrix" values="0 0 0 0 0 0 0 0 0 0 0 0 0 0 0 0 0 0 .4 0"/><feOffset dx="4.0" dy="4.0" in="blurOut2" result="blurOut3"/><feBlend in="SourceGraphic" in2="blurOut3" mode="normal"/></filter></defs><g><!--MD5=[ad0a8438786a5920d357c4cbafe0820a]
cluster MongoDB::Server--><rect fill="#FFFFFF" filter="url(#f1cwmwgpsjchd2)" height="83" style="stroke: #000000; stroke-width: 1.5;" width="174" x="411.5" y="7"/><text fill="#000000" font-family="sans-serif" font-size="14" font-weight="bold" lengthAdjust="spacingAndGlyphs" textLength="139" x="429" y="21.9951">MongoDB::Server</text><!--MD5=[5358f19665500acb1e5b193c6bff82da]
cluster MongoDB--><rect fill="#FFFFFF" filter="url(#f1cwmwgpsjchd2)" height="178" style="stroke: #000000; stroke-width: 1.5;" width="279" x="108.5" y="7"/><text fill="#000000" font-family="sans-serif" font-size="14" font-weight="bold" lengthAdjust="spacingAndGlyphs" textLength="74" x="211" y="21.9951">MongoDB</text><!--MD5=[0a2148ea5cab659a927506d47abea030]
class MongoDB::Server::Monitor--><rect codeLine="12" fill="#FEFECE" filter="url(#f1cwmwgpsjchd2)" height="32" id="MongoDB::Server::Monitor" style="stroke: #A80036; stroke-width: 1.5;" width="142" x="427.5" y="42"/><ellipse cx="442.5" cy="58" fill="#80FFFF" rx="11" ry="11" style="stroke: #A80036; stroke-width: 1.0;"/><path d="M443.7031,58.1406 Q444.0625,58.2188 444.3281,58.5 Q444.6094,58.7656 445,59.5469 L447.2344,64 L444.5469,64 L443.0469,60.875 Q442.9844,60.7344 442.875,60.5 Q442.2188,59.1094 441.3281,59.1094 L440.5469,59.1094 L440.5469,64 L438.1094,64 L438.1094,51.6094 L441.6406,51.6094 Q444.0313,51.6094 445.0625,52.4531 Q446.1094,53.2969 446.1094,55.2031 Q446.1094,56.4844 445.4844,57.25 Q444.875,58 443.7031,58.1406 Z M440.5469,53.6719 L440.5469,57.0469 L441.7031,57.0469 Q442.7188,57.0469 443.1406,56.6563 Q443.5781,56.25 443.5781,55.3438 Q443.5781,54.4531 443.1406,54.0625 Q442.7188,53.6719 441.7031,53.6719 L440.5469,53.6719 Z "/><text fill="#000000" font-family="sans-serif" font-size="12" lengthAdjust="spacingAndGlyphs" textLength="47" x="456.5" y="62.1543">Monitor</text><rect fill="#FFFFFF" height="15.9688" style="stroke: #000000; stroke-width: 1.0; stroke-dasharray: 2.0,2.0;" width="61" x="511.5" y="39"/><text fill="#000000" font-family="sans-serif" font-size="12" font-style="italic" lengthAdjust="spacingAndGlyphs" textLength="59" x="512.5" y="51.1387">Singleton</text><!--MD5=[a3aeaa0dfe7ad0ce14a08b75f895ccfc]
class MongoDB::ServerPool--><rect codeLine="15" fill="#FEFECE" filter="url(#f1cwmwgpsjchd2)" height="32" id="MongoDB::ServerPool" style="stroke: #A80036; stroke-width: 1.5;" width="162" x="124.5" y="137"/><ellipse cx="139.5" cy="153" fill="#80FFFF" rx="11" ry="11" style="stroke: #A80036; stroke-width: 1.0;"/><path d="M140.7031,153.1406 Q141.0625,153.2188 141.3281,153.5 Q141.6094,153.7656 142,154.5469 L144.2344,159 L141.5469,159 L140.0469,155.875 Q139.9844,155.7344 139.875,155.5 Q139.2188,154.1094 138.3281,154.1094 L137.5469,154.1094 L137.5469,159 L135.1094,159 L135.1094,146.6094 L138.6406,146.6094 Q141.0313,146.6094 142.0625,147.4531 Q143.1094,148.2969 143.1094,150.2031 Q143.1094,151.4844 142.4844,152.25 Q141.875,153 140.7031,153.1406 Z M137.5469,148.6719 L137.5469,152.0469 L138.7031,152.0469 Q139.7188,152.0469 140.1406,151.6563 Q140.5781,151.25 140.5781,150.3438 Q140.5781,149.4531 140.1406,149.0625 Q139.7188,148.6719 138.7031,148.6719 L137.5469,148.6719 Z "/><text fill="#000000" font-family="sans-serif" font-size="12" lengthAdjust="spacingAndGlyphs" textLength="67" x="153.5" y="157.1543">ServerPool</text><rect fill="#FFFFFF" height="15.9688" style="stroke: #000000; stroke-width: 1.0; stroke-dasharray: 2.0,2.0;" width="61" x="228.5" y="134"/><text fill="#000000" font-family="sans-serif" font-size="12" font-style="italic" lengthAdjust="spacingAndGlyphs" textLength="59" x="229.5" y="146.1387">Singleton</text><!--MD5=[81f9906a644199ce6f3e2cb3cb759cd9]
class MongoDB::Client--><rect fill="#FEFECE" filter="url(#f1cwmwgpsjchd2)" height="32" id="MongoDB::Client" style="stroke: #A80036; stroke-width: 1.5;" width="67" x="222" y="42"/><ellipse cx="237" cy="58" fill="#80FFFF" rx="11" ry="11" style="stroke: #A80036; stroke-width: 1.0;"/><path d="M239.9688,63.6406 Q239.3906,63.9375 238.75,64.0781 Q238.1094,64.2344 237.4063,64.2344 Q234.9063,64.2344 233.5781,62.5938 Q232.2656,60.9375 232.2656,57.8125 Q232.2656,54.6875 233.5781,53.0313 Q234.9063,51.375 237.4063,51.375 Q238.1094,51.375 238.75,51.5313 Q239.4063,51.6875 239.9688,51.9844 L239.9688,54.7031 Q239.3438,54.125 238.75,53.8594 Q238.1563,53.5781 237.5313,53.5781 Q236.1875,53.5781 235.5,54.6563 Q234.8125,55.7188 234.8125,57.8125 Q234.8125,59.9063 235.5,60.9844 Q236.1875,62.0469 237.5313,62.0469 Q238.1563,62.0469 238.75,61.7813 Q239.3438,61.5 239.9688,60.9219 L239.9688,63.6406 Z "/><text fill="#000000" font-family="sans-serif" font-size="12" lengthAdjust="spacingAndGlyphs" textLength="35" x="251" y="62.1543">Client</text><!--MD5=[3c5a2d78164004e7b9428209ac056605]
class MongoDB::Uri--><rect fill="#FEFECE" filter="url(#f1cwmwgpsjchd2)" height="32" id="MongoDB::Uri" style="stroke: #A80036; stroke-width: 1.5;" width="49" x="322" y="137"/><ellipse cx="337" cy="153" fill="#80FFFF" rx="11" ry="11" style="stroke: #A80036; stroke-width: 1.0;"/><path d="M339.9688,158.6406 Q339.3906,158.9375 338.75,159.0781 Q338.1094,159.2344 337.4063,159.2344 Q334.9063,159.2344 333.5781,157.5938 Q332.2656,155.9375 332.2656,152.8125 Q332.2656,149.6875 333.5781,148.0313 Q334.9063,146.375 337.4063,146.375 Q338.1094,146.375 338.75,146.5313 Q339.4063,146.6875 339.9688,146.9844 L339.9688,149.7031 Q339.3438,149.125 338.75,148.8594 Q338.1563,148.5781 337.5313,148.5781 Q336.1875,148.5781 335.5,149.6563 Q334.8125,150.7188 334.8125,152.8125 Q334.8125,154.9063 335.5,155.9844 Q336.1875,157.0469 337.5313,157.0469 Q338.1563,157.0469 338.75,156.7813 Q339.3438,156.5 339.9688,155.9219 L339.9688,158.6406 Z "/><text fill="#000000" font-family="sans-serif" font-size="12" lengthAdjust="spacingAndGlyphs" textLength="17" x="351" y="157.1543">Uri</text><!--MD5=[ed03d9e1dcf386a6ed6959a81bc2feba]
class UserApp--><rect fill="#FEFECE" filter="url(#f1cwmwgpsjchd2)" height="32" id="UserApp" style="stroke: #A80036; stroke-width: 1.5;" width="85" x="7" y="42"/><ellipse cx="22" cy="58" fill="#80FFFF" rx="11" ry="11" style="stroke: #A80036; stroke-width: 1.0;"/><path d="M24.9688,63.6406 Q24.3906,63.9375 23.75,64.0781 Q23.1094,64.2344 22.4063,64.2344 Q19.9063,64.2344 18.5781,62.5938 Q17.2656,60.9375 17.2656,57.8125 Q17.2656,54.6875 18.5781,53.0313 Q19.9063,51.375 22.4063,51.375 Q23.1094,51.375 23.75,51.5313 Q24.4063,51.6875 24.9688,51.9844 L24.9688,54.7031 Q24.3438,54.125 23.75,53.8594 Q23.1563,53.5781 22.5313,53.5781 Q21.1875,53.5781 20.5,54.6563 Q19.8125,55.7188 19.8125,57.8125 Q19.8125,59.9063 20.5,60.9844 Q21.1875,62.0469 22.5313,62.0469 Q23.1563,62.0469 23.75,61.7813 Q24.3438,61.5 24.9688,60.9219 L24.9688,63.6406 Z "/><text fill="#000000" font-family="sans-serif" font-size="12" lengthAdjust="spacingAndGlyphs" textLength="53" x="36" y="62.1543">UserApp</text><!--MD5=[791c0b94e3b818c78bfdb36ae5ec07e7]
link UserApp to MongoDB::Client--><path codeLine="19" d="M104.15,58 C104.15,58 174.1,58 208.5,58 " fill="none" id="UserApp-MongoDB::Client" style="stroke: #A80036; stroke-width: 1.0;"/><polygon fill="#A80036" points="221.68,58,212.68,54,216.68,58,212.68,62,221.68,58" style="stroke: #A80036; stroke-width: 1.0;"/><line style="stroke: #A80036; stroke-width: 1.0;" x1="216.68" x2="208.68" y1="58" y2="58"/><polygon fill="#A80036" points="92.15,58,98.15,62,104.15,58,98.15,54,92.15,58" style="stroke: #A80036; stroke-width: 1.0;"/><!--MD5=[4fcf5ebb567265daaabd49c4c3956593]
link MongoDB::Client to MongoDB::Server::Monitor--><path codeLine="20" d="M289.03,58 C323.26,58 377.55,58 422.29,58 " fill="none" id="MongoDB::Client-to-MongoDB::Server::Monitor" style="stroke: #A80036; stroke-width: 1.0;"/><polygon fill="#A80036" points="427.42,58,418.42,54,422.42,58,418.42,62,427.42,58" style="stroke: #A80036; stroke-width: 1.0;"/><text fill="#000000" font-family="sans-serif" font-size="13" lengthAdjust="spacingAndGlyphs" textLength="51" x="332.75" y="51.0669">initialize</text><!--MD5=[9838ea58d72e30c3f50c9ddd24172bcd]
link MongoDB::Client to MongoDB::ServerPool--><path codeLine="21" d="M247.24,74.36 C238.72,90.2 225.41,114.98 216.11,132.26 " fill="none" id="MongoDB::Client-to-MongoDB::ServerPool" style="stroke: #A80036; stroke-width: 1.0;"/><polygon fill="#A80036" points="213.6,136.93,221.3759,130.8856,215.9611,132.5226,214.3241,127.1078,213.6,136.93" style="stroke: #A80036; stroke-width: 1.0;"/><!--MD5=[bc15fa86f8b22c58c1a02c5313326981]
link MongoDB::Client to MongoDB::Uri--><path codeLine="22" d="M278.9224,82.9371 C278.9224,82.9371 309.15,113.83 322.36,127.33 " fill="none" id="MongoDB::Client-MongoDB::Uri" style="stroke: #A80036; stroke-width: 1.0;"/><polygon fill="#A80036" points="331.75,136.93,328.3075,127.7024,328.2504,133.3589,322.5938,133.3018,331.75,136.93" style="stroke: #A80036; stroke-width: 1.0;"/><line style="stroke: #A80036; stroke-width: 1.0;" x1="328.2504" x2="322.66" y1="133.3589" y2="127.635"/><polygon fill="#A80036" points="270.53,74.36,271.8672,81.446,278.9224,82.9371,277.5853,75.8511,270.53,74.36" style="stroke: #A80036; stroke-width: 1.0;"/><!--MD5=[a83172a6a9209ea0de6ec800134b37d8]
@startuml

skinparam packageStyle rectangle
skinparam stereotypeCBackgroundColor #80ffff
set namespaceSeparator ::
hide empty members


'Classes and interfaces

Interface MongoDB::Server::Monitor <Singleton>
class MongoDB::Server::Monitor <<(R,#80ffff)>>

Interface MongoDB::ServerPool <Singleton>
class MongoDB::ServerPool <<(R,#80ffff)>>


'Class connections
UserApp *-> MongoDB::Client
MongoDB::Client -> MongoDB::Server::Monitor: initialize
MongoDB::Client - -> MongoDB::ServerPool
MongoDB::Client *- -> MongoDB::Uri
@enduml

@startuml

skinparam packageStyle rectangle
skinparam stereotypeCBackgroundColor #80ffff
set namespaceSeparator ::
hide empty members



Interface MongoDB::Server::Monitor <Singleton>
class MongoDB::Server::Monitor <<(R,#80ffff)>>

Interface MongoDB::ServerPool <Singleton>
class MongoDB::ServerPool <<(R,#80ffff)>>


UserApp *-> MongoDB::Client
MongoDB::Client -> MongoDB::Server::Monitor: initialize
MongoDB::Client - -> MongoDB::ServerPool
MongoDB::Client *- -> MongoDB::Uri
@enduml

PlantUML version 1.2020.19(Mon Oct 12 17:10:01 CEST 2020)
(GPL source distribution)
Java Runtime: OpenJDK Runtime Environment
JVM: OpenJDK 64-Bit Server VM
Default Encoding: UTF-8
Language: en
Country: null
--></g></svg>