<?xml version="1.0" encoding="UTF-8" standalone="no"?><svg xmlns="http://www.w3.org/2000/svg" xmlns:xlink="http://www.w3.org/1999/xlink" contentScriptType="application/ecmascript" contentStyleType="text/css" height="197px" preserveAspectRatio="none" style="width:512px;height:197px;" version="1.1" viewBox="0 0 512 197" width="512px" zoomAndPan="magnify"><defs><filter height="300%" id="f58ouibej9as7" width="300%" x="-1" y="-1"><feGaussianBlur result="blurOut" stdDeviation="2.0"/><feColorMatrix in="blurOut" result="blurOut2" type="matrix" values="0 0 0 0 0 0 0 0 0 0 0 0 0 0 0 0 0 0 .4 0"/><feOffset dx="4.0" dy="4.0" in="blurOut2" result="blurOut3"/><feBlend in="SourceGraphic" in2="blurOut3" mode="normal"/></filter></defs><g><!--MD5=[ad0a8438786a5920d357c4cbafe0820a]
cluster MongoDB::Server--><rect fill="#FFFFFF" filter="url(#f58ouibej9as7)" height="83" style="stroke: #000000; stroke-width: 1.5;" width="174" x="326.5" y="7"/><text fill="#000000" font-family="sans-serif" font-size="14" font-weight="bold" lengthAdjust="spacingAndGlyphs" textLength="139" x="344" y="21.9951">MongoDB::Server</text><!--MD5=[5358f19665500acb1e5b193c6bff82da]
cluster MongoDB--><rect fill="#FFFFFF" filter="url(#f58ouibej9as7)" height="178" style="stroke: #000000; stroke-width: 1.5;" width="194" x="108.5" y="7"/><text fill="#000000" font-family="sans-serif" font-size="14" font-weight="bold" lengthAdjust="spacingAndGlyphs" textLength="74" x="168.5" y="21.9951">MongoDB</text><!--MD5=[0a2148ea5cab659a927506d47abea030]
class MongoDB::Server::Monitor--><rect codeLine="12" fill="#FEFECE" filter="url(#f58ouibej9as7)" height="32" id="MongoDB::Server::Monitor" style="stroke: #A80036; stroke-width: 1.5;" width="142" x="342.5" y="42"/><ellipse cx="357.5" cy="58" fill="#80FFFF" rx="11" ry="11" style="stroke: #A80036; stroke-width: 1.0;"/><path d="M358.7031,58.1406 Q359.0625,58.2188 359.3281,58.5 Q359.6094,58.7656 360,59.5469 L362.2344,64 L359.5469,64 L358.0469,60.875 Q357.9844,60.7344 357.875,60.5 Q357.2188,59.1094 356.3281,59.1094 L355.5469,59.1094 L355.5469,64 L353.1094,64 L353.1094,51.6094 L356.6406,51.6094 Q359.0313,51.6094 360.0625,52.4531 Q361.1094,53.2969 361.1094,55.2031 Q361.1094,56.4844 360.4844,57.25 Q359.875,58 358.7031,58.1406 Z M355.5469,53.6719 L355.5469,57.0469 L356.7031,57.0469 Q357.7188,57.0469 358.1406,56.6563 Q358.5781,56.25 358.5781,55.3438 Q358.5781,54.4531 358.1406,54.0625 Q357.7188,53.6719 356.7031,53.6719 L355.5469,53.6719 Z "/><text fill="#000000" font-family="sans-serif" font-size="12" lengthAdjust="spacingAndGlyphs" textLength="47" x="371.5" y="62.1543">Monitor</text><rect fill="#FFFFFF" height="15.9688" style="stroke: #000000; stroke-width: 1.0; stroke-dasharray: 2.0,2.0;" width="61" x="426.5" y="39"/><text fill="#000000" font-family="sans-serif" font-size="12" font-style="italic" lengthAdjust="spacingAndGlyphs" textLength="59" x="427.5" y="51.1387">Singleton</text><!--MD5=[a3aeaa0dfe7ad0ce14a08b75f895ccfc]
class MongoDB::ServerPool--><rect codeLine="15" fill="#FEFECE" filter="url(#f58ouibej9as7)" height="32" id="MongoDB::ServerPool" style="stroke: #A80036; stroke-width: 1.5;" width="162" x="124.5" y="137"/><ellipse cx="139.5" cy="153" fill="#80FFFF" rx="11" ry="11" style="stroke: #A80036; stroke-width: 1.0;"/><path d="M140.7031,153.1406 Q141.0625,153.2188 141.3281,153.5 Q141.6094,153.7656 142,154.5469 L144.2344,159 L141.5469,159 L140.0469,155.875 Q139.9844,155.7344 139.875,155.5 Q139.2188,154.1094 138.3281,154.1094 L137.5469,154.1094 L137.5469,159 L135.1094,159 L135.1094,146.6094 L138.6406,146.6094 Q141.0313,146.6094 142.0625,147.4531 Q143.1094,148.2969 143.1094,150.2031 Q143.1094,151.4844 142.4844,152.25 Q141.875,153 140.7031,153.1406 Z M137.5469,148.6719 L137.5469,152.0469 L138.7031,152.0469 Q139.7188,152.0469 140.1406,151.6563 Q140.5781,151.25 140.5781,150.3438 Q140.5781,149.4531 140.1406,149.0625 Q139.7188,148.6719 138.7031,148.6719 L137.5469,148.6719 Z "/><text fill="#000000" font-family="sans-serif" font-size="12" lengthAdjust="spacingAndGlyphs" textLength="67" x="153.5" y="157.1543">ServerPool</text><rect fill="#FFFFFF" height="15.9688" style="stroke: #000000; stroke-width: 1.0; stroke-dasharray: 2.0,2.0;" width="61" x="228.5" y="134"/><text fill="#000000" font-family="sans-serif" font-size="12" font-style="italic" lengthAdjust="spacingAndGlyphs" textLength="59" x="229.5" y="146.1387">Singleton</text><!--MD5=[81f9906a644199ce6f3e2cb3cb759cd9]
class MongoDB::Client--><rect fill="#FEFECE" filter="url(#f58ouibej9as7)" height="32" id="MongoDB::Client" style="stroke: #A80036; stroke-width: 1.5;" width="67" x="172" y="42"/><ellipse cx="187" cy="58" fill="#80FFFF" rx="11" ry="11" style="stroke: #A80036; stroke-width: 1.0;"/><path d="M189.9688,63.6406 Q189.3906,63.9375 188.75,64.0781 Q188.1094,64.2344 187.4063,64.2344 Q184.9063,64.2344 183.5781,62.5938 Q182.2656,60.9375 182.2656,57.8125 Q182.2656,54.6875 183.5781,53.0313 Q184.9063,51.375 187.4063,51.375 Q188.1094,51.375 188.75,51.5313 Q189.4063,51.6875 189.9688,51.9844 L189.9688,54.7031 Q189.3438,54.125 188.75,53.8594 Q188.1563,53.5781 187.5313,53.5781 Q186.1875,53.5781 185.5,54.6563 Q184.8125,55.7188 184.8125,57.8125 Q184.8125,59.9063 185.5,60.9844 Q186.1875,62.0469 187.5313,62.0469 Q188.1563,62.0469 188.75,61.7813 Q189.3438,61.5 189.9688,60.9219 L189.9688,63.6406 Z "/><text fill="#000000" font-family="sans-serif" font-size="12" lengthAdjust="spacingAndGlyphs" textLength="35" x="201" y="62.1543">Client</text><!--MD5=[ed03d9e1dcf386a6ed6959a81bc2feba]
class UserApp--><rect fill="#FEFECE" filter="url(#f58ouibej9as7)" height="32" id="UserApp" style="stroke: #A80036; stroke-width: 1.5;" width="85" x="7" y="42"/><ellipse cx="22" cy="58" fill="#80FFFF" rx="11" ry="11" style="stroke: #A80036; stroke-width: 1.0;"/><path d="M24.9688,63.6406 Q24.3906,63.9375 23.75,64.0781 Q23.1094,64.2344 22.4063,64.2344 Q19.9063,64.2344 18.5781,62.5938 Q17.2656,60.9375 17.2656,57.8125 Q17.2656,54.6875 18.5781,53.0313 Q19.9063,51.375 22.4063,51.375 Q23.1094,51.375 23.75,51.5313 Q24.4063,51.6875 24.9688,51.9844 L24.9688,54.7031 Q24.3438,54.125 23.75,53.8594 Q23.1563,53.5781 22.5313,53.5781 Q21.1875,53.5781 20.5,54.6563 Q19.8125,55.7188 19.8125,57.8125 Q19.8125,59.9063 20.5,60.9844 Q21.1875,62.0469 22.5313,62.0469 Q23.1563,62.0469 23.75,61.7813 Q24.3438,61.5 24.9688,60.9219 L24.9688,63.6406 Z "/><text fill="#000000" font-family="sans-serif" font-size="12" lengthAdjust="spacingAndGlyphs" textLength="53" x="36" y="62.1543">UserApp</text><!--MD5=[791c0b94e3b818c78bfdb36ae5ec07e7]
link UserApp to MongoDB::Client--><path codeLine="19" d="M104.16,58 C104.16,58 140.97,58 158.84,58 " fill="none" id="UserApp-MongoDB::Client" style="stroke: #A80036; stroke-width: 1.0;"/><polygon fill="#A80036" points="171.85,58,162.85,54,166.85,58,162.85,62,171.85,58" style="stroke: #A80036; stroke-width: 1.0;"/><line style="stroke: #A80036; stroke-width: 1.0;" x1="166.85" x2="158.85" y1="58" y2="58"/><polygon fill="#A80036" points="92.16,58,98.16,62,104.16,58,98.16,54,92.16,58" style="stroke: #A80036; stroke-width: 1.0;"/><!--MD5=[4fcf5ebb567265daaabd49c4c3956593]
link MongoDB::Client to MongoDB::Server::Monitor--><path codeLine="20" d="M239.38,58 C265.72,58 303.28,58 336.78,58 " fill="none" id="MongoDB::Client-to-MongoDB::Server::Monitor" style="stroke: #A80036; stroke-width: 1.0;"/><polygon fill="#A80036" points="342.11,58,333.11,54,337.11,58,333.11,62,342.11,58" style="stroke: #A80036; stroke-width: 1.0;"/><text fill="#000000" font-family="sans-serif" font-size="13" lengthAdjust="spacingAndGlyphs" textLength="51" x="265.25" y="51.0669">initialize</text><!--MD5=[9838ea58d72e30c3f50c9ddd24172bcd]
link MongoDB::Client to MongoDB::ServerPool--><path codeLine="21" d="M205.5,74.36 C205.5,90.07 205.5,114.55 205.5,131.82 " fill="none" id="MongoDB::Client-to-MongoDB::ServerPool" style="stroke: #A80036; stroke-width: 1.0;"/><polygon fill="#A80036" points="205.5,136.93,209.5,127.93,205.5,131.93,201.5,127.93,205.5,136.93" style="stroke: #A80036; stroke-width: 1.0;"/><!--MD5=[0d3f48c0b89e4f74d2f7e5fcb6b5d392]
@startuml

skinparam packageStyle rectangle
skinparam stereotypeCBackgroundColor #80ffff
set namespaceSeparator ::
hide empty members


'Classes and interfaces

Interface MongoDB::Server::Monitor <Singleton>
class MongoDB::Server::Monitor <<(R,#80ffff)>>

Interface MongoDB::ServerPool <Singleton>
class MongoDB::ServerPool <<(R,#80ffff)>>


'Class connections
UserApp *-> MongoDB::Client
MongoDB::Client -> MongoDB::Server::Monitor: initialize
MongoDB::Client - -> MongoDB::ServerPool

@enduml

@startuml

skinparam packageStyle rectangle
skinparam stereotypeCBackgroundColor #80ffff
set namespaceSeparator ::
hide empty members



Interface MongoDB::Server::Monitor <Singleton>
class MongoDB::Server::Monitor <<(R,#80ffff)>>

Interface MongoDB::ServerPool <Singleton>
class MongoDB::ServerPool <<(R,#80ffff)>>


UserApp *-> MongoDB::Client
MongoDB::Client -> MongoDB::Server::Monitor: initialize
MongoDB::Client - -> MongoDB::ServerPool

@enduml

PlantUML version 1.2020.19(Mon Oct 12 17:10:01 CEST 2020)
(GPL source distribution)
Java Runtime: OpenJDK Runtime Environment
JVM: OpenJDK 64-Bit Server VM
Default Encoding: UTF-8
Language: en
Country: null
--></g></svg>