<?xml version="1.0" encoding="UTF-8" standalone="no"?><svg xmlns="http://www.w3.org/2000/svg" xmlns:xlink="http://www.w3.org/1999/xlink" contentStyleType="text/css" height="936px" preserveAspectRatio="none" style="width:824px;height:936px;background:#FFFFFF;" version="1.1" viewBox="0 0 824 936" width="824px" zoomAndPan="magnify"><defs/><g><rect fill="#F1F1F1" height="36.2969" rx="12.5" ry="12.5" style="stroke:#181818;stroke-width:1.5;" width="25" x="10" y="76.2969"/><text fill="#000000" font-family="sans-serif" font-size="14" lengthAdjust="spacing" textLength="5" x="20" y="99.292">t</text><rect fill="#F1F1F1" height="36.2969" rx="12.5" ry="12.5" style="stroke:#181818;stroke-width:1.5;" width="118" x="85" y="20"/><text fill="#000000" font-family="sans-serif" font-size="14" lengthAdjust="spacing" textLength="98" x="95" y="42.9951">client.rakutest</text><path d="M35,94.4453 L45,94.4453 C60,94.4453 60,38.1484 75,38.1484 L85,38.1484 " fill="none" style="stroke:#181818;stroke-width:1.0;"/><rect fill="#F1F1F1" height="36.2969" rx="12.5" ry="12.5" style="stroke:#181818;stroke-width:1.5;" width="145" x="85" y="76.2969"/><text fill="#000000" font-family="sans-serif" font-size="14" lengthAdjust="spacing" textLength="125" x="95" y="99.292">database.rakutest</text><path d="M35,94.4453 L45,94.4453 C60,94.4453 60,94.4453 75,94.4453 L85,94.4453 " fill="none" style="stroke:#181818;stroke-width:1.0;"/><rect fill="#F1F1F1" height="36.2969" rx="12.5" ry="12.5" style="stroke:#181818;stroke-width:1.5;" width="34" x="85" y="132.5938"/><text fill="#000000" font-family="sans-serif" font-size="14" lengthAdjust="spacing" textLength="14" x="95" y="155.5889">…</text><path d="M35,94.4453 L45,94.4453 C60,94.4453 60,150.7422 75,150.7422 L85,150.7422 " fill="none" style="stroke:#181818;stroke-width:1.0;"/><rect fill="#F1F1F1" height="36.2969" rx="12.5" ry="12.5" style="stroke:#181818;stroke-width:1.5;" width="32" x="10" y="533.709"/><text fill="#000000" font-family="sans-serif" font-size="14" lengthAdjust="spacing" textLength="12" x="20" y="556.7041">xt</text><rect fill="#F1F1F1" height="36.2969" rx="12.5" ry="12.5" style="stroke:#181818;stroke-width:1.5;" width="103" x="92" y="350.7441"/><text fill="#000000" font-family="sans-serif" font-size="14" lengthAdjust="spacing" textLength="83" x="102" y="373.7393">TestServers</text><rect fill="#F1F1F1" height="36.2969" rx="12.5" ry="12.5" style="stroke:#181818;stroke-width:1.5;" width="96" x="245" y="273.3359"/><text fill="#000000" font-family="sans-serif" font-size="14" lengthAdjust="spacing" textLength="76" x="255" y="296.3311">ServerData</text><rect fill="#F1F1F1" height="36.2969" rx="12.5" ry="12.5" style="stroke:#181818;stroke-width:1.5;" width="107" x="391" y="245.1875"/><text fill="#000000" font-family="sans-serif" font-size="14" lengthAdjust="spacing" textLength="87" x="401" y="268.1826">server-name</text><rect fill="#F1F1F1" height="36.2969" rx="12.5" ry="12.5" style="stroke:#181818;stroke-width:1.5;" width="70" x="548" y="245.1875"/><text fill="#000000" font-family="sans-serif" font-size="14" lengthAdjust="spacing" textLength="50" x="558" y="268.1826">version</text><rect fill="#F1F1F1" height="36.2969" rx="12.5" ry="12.5" style="stroke:#181818;stroke-width:1.5;" width="38" x="668" y="188.8906"/><text fill="#000000" font-family="sans-serif" font-size="14" lengthAdjust="spacing" textLength="18" x="678" y="211.8857">db</text><path d="M618,263.3359 L628,263.3359 C643,263.3359 643,207.0391 658,207.0391 L668,207.0391 " fill="none" style="stroke:#181818;stroke-width:1.0;"/><rect fill="#F1F1F1" height="36.2969" rx="12.5" ry="12.5" style="stroke:#181818;stroke-width:1.5;" width="76" x="668" y="245.1875"/><text fill="#000000" font-family="sans-serif" font-size="14" lengthAdjust="spacing" textLength="56" x="678" y="268.1826">mdb.log</text><path d="M618,263.3359 L628,263.3359 C643,263.3359 643,263.3359 658,263.3359 L668,263.3359 " fill="none" style="stroke:#181818;stroke-width:1.0;"/><rect fill="#F1F1F1" height="36.2969" rx="12.5" ry="12.5" style="stroke:#181818;stroke-width:1.5;" width="144" x="668" y="301.4844"/><text fill="#000000" font-family="sans-serif" font-size="14" lengthAdjust="spacing" textLength="124" x="678" y="324.4795">server-config.conf</text><path d="M618,263.3359 L628,263.3359 C643,263.3359 643,319.6328 658,319.6328 L668,319.6328 " fill="none" style="stroke:#181818;stroke-width:1.0;"/><path d="M498,263.3359 L508,263.3359 C523,263.3359 523,263.3359 538,263.3359 L548,263.3359 " fill="none" style="stroke:#181818;stroke-width:1.0;"/><rect fill="#F1F1F1" height="36.2969" rx="12.5" ry="12.5" style="stroke:#181818;stroke-width:1.5;" width="34" x="548" y="301.4844"/><text fill="#000000" font-family="sans-serif" font-size="14" lengthAdjust="spacing" textLength="14" x="558" y="324.4795">…</text><path d="M498,263.3359 L508,263.3359 C523,263.3359 523,319.6328 538,319.6328 L548,319.6328 " fill="none" style="stroke:#181818;stroke-width:1.0;"/><path d="M341,291.4844 L351,291.4844 C366,291.4844 366,263.3359 381,263.3359 L391,263.3359 " fill="none" style="stroke:#181818;stroke-width:1.0;"/><rect fill="#F1F1F1" height="36.2969" rx="12.5" ry="12.5" style="stroke:#181818;stroke-width:1.5;" width="34" x="391" y="301.4844"/><text fill="#000000" font-family="sans-serif" font-size="14" lengthAdjust="spacing" textLength="14" x="401" y="324.4795">…</text><path d="M341,291.4844 L351,291.4844 C366,291.4844 366,319.6328 381,319.6328 L391,319.6328 " fill="none" style="stroke:#181818;stroke-width:1.0;"/><rect fill="#F1F1F1" height="36.2969" rx="12.5" ry="12.5" style="stroke:#181818;stroke-width:1.5;" width="101" x="391" y="357.7813"/><text fill="#000000" font-family="sans-serif" font-size="14" lengthAdjust="spacing" textLength="81" x="401" y="380.7764">wrapper.log</text><path d="M341,291.4844 L351,291.4844 C366,291.4844 366,375.9297 381,375.9297 L391,375.9297 " fill="none" style="stroke:#181818;stroke-width:1.0;"/><path d="M195,368.8926 L205,368.8926 C220,368.8926 220,291.4844 235,291.4844 L245,291.4844 " fill="none" style="stroke:#181818;stroke-width:1.0;"/><rect fill="#F1F1F1" height="36.2969" rx="12.5" ry="12.5" style="stroke:#181818;stroke-width:1.5;" width="124" x="245" y="456.3008"/><text fill="#000000" font-family="sans-serif" font-size="14" lengthAdjust="spacing" textLength="104" x="255" y="479.2959">ServerSoftware</text><rect fill="#F1F1F1" height="36.2969" rx="12.5" ry="12.5" style="stroke:#181818;stroke-width:1.5;" width="70" x="419" y="442.2266"/><text fill="#000000" font-family="sans-serif" font-size="14" lengthAdjust="spacing" textLength="50" x="429" y="465.2217">version</text><rect fill="#F1F1F1" height="36.2969" rx="12.5" ry="12.5" style="stroke:#181818;stroke-width:1.5;" width="78" x="539" y="414.0781"/><text fill="#000000" font-family="sans-serif" font-size="14" lengthAdjust="spacing" textLength="58" x="549" y="437.0732">mongod</text><path d="M489,460.375 L499,460.375 C514,460.375 514,432.2266 529,432.2266 L539,432.2266 " fill="none" style="stroke:#181818;stroke-width:1.0;"/><rect fill="#F1F1F1" height="36.2969" rx="12.5" ry="12.5" style="stroke:#181818;stroke-width:1.5;" width="77" x="539" y="470.375"/><text fill="#000000" font-family="sans-serif" font-size="14" lengthAdjust="spacing" textLength="57" x="549" y="493.3701">mongos</text><path d="M489,460.375 L499,460.375 C514,460.375 514,488.5234 529,488.5234 L539,488.5234 " fill="none" style="stroke:#181818;stroke-width:1.0;"/><path d="M369,474.4492 L379,474.4492 C394,474.4492 394,460.375 409,460.375 L419,460.375 " fill="none" style="stroke:#181818;stroke-width:1.0;"/><rect fill="#F1F1F1" height="36.2969" rx="12.5" ry="12.5" style="stroke:#181818;stroke-width:1.5;" width="34" x="419" y="498.5234"/><text fill="#000000" font-family="sans-serif" font-size="14" lengthAdjust="spacing" textLength="14" x="429" y="521.5186">…</text><path d="M369,474.4492 L379,474.4492 C394,474.4492 394,516.6719 409,516.6719 L419,516.6719 " fill="none" style="stroke:#181818;stroke-width:1.0;"/><path d="M195,368.8926 L205,368.8926 C220,368.8926 220,474.4492 235,474.4492 L245,474.4492 " fill="none" style="stroke:#181818;stroke-width:1.0;"/><rect fill="#F1F1F1" height="36.2969" rx="12.5" ry="12.5" style="stroke:#181818;stroke-width:1.5;" width="97" x="245" y="512.5977"/><text fill="#000000" font-family="sans-serif" font-size="14" lengthAdjust="spacing" textLength="77" x="255" y="535.5928">config.yaml</text><path d="M195,368.8926 L205,368.8926 C220,368.8926 220,530.7461 235,530.7461 L245,530.7461 " fill="none" style="stroke:#181818;stroke-width:1.0;"/><path d="M42,551.8574 L52,551.8574 C67,551.8574 67,368.8926 82,368.8926 L92,368.8926 " fill="none" style="stroke:#181818;stroke-width:1.0;"/><rect fill="#F1F1F1" height="36.2969" rx="12.5" ry="12.5" style="stroke:#181818;stroke-width:1.5;" width="59" x="92" y="667.4141"/><text fill="#000000" font-family="sans-serif" font-size="14" lengthAdjust="spacing" textLength="39" x="102" y="690.4092">Tests</text><rect fill="#F1F1F1" height="36.2969" rx="12.5" ry="12.5" style="stroke:#181818;stroke-width:1.5;" width="68" x="201" y="597.043"/><text fill="#000000" font-family="sans-serif" font-size="14" lengthAdjust="spacing" textLength="48" x="211" y="620.0381">test dir</text><rect fill="#F1F1F1" height="36.2969" rx="12.5" ry="12.5" style="stroke:#181818;stroke-width:1.5;" width="109" x="319" y="568.8945"/><text fill="#000000" font-family="sans-serif" font-size="14" lengthAdjust="spacing" textLength="89" x="329" y="591.8896">test program</text><path d="M269,615.1914 L279,615.1914 C294,615.1914 294,587.043 309,587.043 L319,587.043 " fill="none" style="stroke:#181818;stroke-width:1.0;"/><rect fill="#F1F1F1" height="36.2969" rx="12.5" ry="12.5" style="stroke:#181818;stroke-width:1.5;" width="34" x="319" y="625.1914"/><text fill="#000000" font-family="sans-serif" font-size="14" lengthAdjust="spacing" textLength="14" x="329" y="648.1865">…</text><path d="M269,615.1914 L279,615.1914 C294,615.1914 294,643.3398 309,643.3398 L319,643.3398 " fill="none" style="stroke:#181818;stroke-width:1.0;"/><path d="M151,685.5625 L161,685.5625 C176,685.5625 176,615.1914 191,615.1914 L201,615.1914 " fill="none" style="stroke:#181818;stroke-width:1.0;"/><rect fill="#F1F1F1" height="36.2969" rx="12.5" ry="12.5" style="stroke:#181818;stroke-width:1.5;" width="34" x="201" y="653.3398"/><text fill="#000000" font-family="sans-serif" font-size="14" lengthAdjust="spacing" textLength="14" x="211" y="676.335">…</text><path d="M151,685.5625 L161,685.5625 C176,685.5625 176,671.4883 191,671.4883 L201,671.4883 " fill="none" style="stroke:#181818;stroke-width:1.0;"/><rect fill="#F1F1F1" height="36.2969" rx="12.5" ry="12.5" style="stroke:#181818;stroke-width:1.5;" width="109" x="201" y="709.6367"/><text fill="#000000" font-family="sans-serif" font-size="14" lengthAdjust="spacing" textLength="89" x="211" y="732.6318">test program</text><path d="M151,685.5625 L161,685.5625 C176,685.5625 176,727.7852 191,727.7852 L201,727.7852 " fill="none" style="stroke:#181818;stroke-width:1.0;"/><rect fill="#F1F1F1" height="36.2969" rx="12.5" ry="12.5" style="stroke:#181818;stroke-width:1.5;" width="34" x="201" y="765.9336"/><text fill="#000000" font-family="sans-serif" font-size="14" lengthAdjust="spacing" textLength="14" x="211" y="788.9287">…</text><path d="M151,685.5625 L161,685.5625 C176,685.5625 176,784.082 191,784.082 L201,784.082 " fill="none" style="stroke:#181818;stroke-width:1.0;"/><path d="M42,551.8574 L52,551.8574 C67,551.8574 67,685.5625 82,685.5625 L92,685.5625 " fill="none" style="stroke:#181818;stroke-width:1.0;"/><rect fill="#F1F1F1" height="36.2969" rx="12.5" ry="12.5" style="stroke:#181818;stroke-width:1.5;" width="87" x="92" y="822.2305"/><text fill="#000000" font-family="sans-serif" font-size="14" lengthAdjust="spacing" textLength="67" x="102" y="845.2256">TestDocs</text><path d="M42,551.8574 L52,551.8574 C67,551.8574 67,840.3789 82,840.3789 L92,840.3789 " fill="none" style="stroke:#181818;stroke-width:1.0;"/><rect fill="#F1F1F1" height="36.2969" rx="12.5" ry="12.5" style="stroke:#181818;stroke-width:1.5;" width="110" x="92" y="878.5273"/><text fill="#000000" font-family="sans-serif" font-size="14" lengthAdjust="spacing" textLength="90" x="102" y="901.5225">wrapper.raku</text><path d="M42,551.8574 L52,551.8574 C67,551.8574 67,896.6758 82,896.6758 L92,896.6758 " fill="none" style="stroke:#181818;stroke-width:1.0;"/><!--MD5=[962341540367fe8d9a955b7f6fc58b91]
@startmindmap
* t
** client.rakutest
** database.rakutest
** …

* xt
** TestServers
*** ServerData
**** server-name
***** version
****** db
****** mdb.log
****** server-config.conf
***** …
**** …
**** wrapper.log
*** ServerSoftware
**** version
***** mongod
***** mongos
**** …
*** config.yaml
** Tests
*** test dir
**** test program
**** …
*** …
*** test program
*** …
** TestDocs
** wrapper.raku
@endmindmap

PlantUML version 1.2022.13(Sat Nov 19 14:22:17 CET 2022)
(GPL source distribution)
Java Runtime: OpenJDK Runtime Environment
JVM: OpenJDK 64-Bit Server VM
Default Encoding: UTF-8
Language: en
Country: US
--></g></svg>